<svg xmlns="http://www.w3.org/2000/svg" width="231.653" height="196.581" viewBox="0 0 231.653 196.581">
  <g id="forget_password_image" transform="translate(-292.663 -102.697)">
    <g id="Group_1901" data-name="Group 1901" transform="translate(285.663 84.219)">
      <path id="Path_2481" data-name="Path 2481" d="M388.639,137.13l-44.17,25.915c-11.2-3.437-25.467-2.374-34.882,3.15-11.455,6.721-11.38,17.488.168,24.049a35.24,35.24,0,0,0,8.689,3.408,46.35,46.35,0,0,0,6.906,1.191c9.186.894,18.99-.744,26.058-4.891,8.56-5.023,10.679-12.3,6.384-18.4l6.1-3.576-.173-3.87,6.414-.045-.162-3.623,6.415-.045-.162-3.624,6.415-.045-.162-3.623,6.414-.045-.161-3.624,6.848-.048,2.09-1.225,2.306-9.514Zm-62.157,49.586a11.987,11.987,0,0,1-10.844.076c-3.006-1.708-3.026-4.511-.044-6.261a11.987,11.987,0,0,1,10.844-.076C329.445,182.164,329.465,184.967,326.483,186.716Z" transform="translate(-277.564 -95.755)" fill="#422f8a" opacity="0.27"/>
      <path id="Path_2482" data-name="Path 2482" d="M419.776,313.05,360.206,278.8c-4.011-2.316-3.508-6.361,1.124-9.034l57.816-33.38c4.631-2.674,11.637-2.964,15.648-.649l59.57,34.251c4.011,2.316,3.508,6.36-1.123,9.034L435.424,312.4C430.793,315.076,423.787,315.366,419.776,313.05Z" transform="translate(-297.537 -117.743)" fill="#422f8a" opacity="0.21"/>
      <g id="Group_1876" data-name="Group 1876" transform="translate(46.418 69.45)">
        <g id="Group_1874" data-name="Group 1874" transform="translate(82.766)" opacity="0.4">
          <path id="Path_2483" data-name="Path 2483" d="M498.949,226.66l-10.3-5.946,37.972-21.923c1.793-1.036,1.793-2.721,0-3.756l-38.792-22.4a7.2,7.2,0,0,0-6.505,0l-37.972,21.923-10.3-5.946,37.972-21.923c7.472-4.314,19.63-4.314,27.1,0l38.792,22.4c7.472,4.314,7.472,11.334,0,15.648Z" transform="translate(-433.054 -163.458)" fill="#031087"/>
        </g>
        <g id="Group_1875" data-name="Group 1875" transform="translate(0 10.92)">
          <path id="Path_2484" data-name="Path 2484" d="M504.185,230.817c0-5.506-3.347-11.9-7.477-14.286l-68.8-39.721c-1.849-1.068-3.539-1.143-4.844-.414l0,0-82.145,47.734,79.436,59.858,80.928-46.971A3.747,3.747,0,0,0,502,236.6h0C503.349,235.576,504.185,233.568,504.185,230.817Z" transform="translate(-338.906 -175.917)" fill="#4b3c87"/>
          <path id="Path_2485" data-name="Path 2485" d="M430.079,290.6l80.928-46.971a3.75,3.75,0,0,0,.715-.415h0c1.351-1.024,2.187-3.032,2.187-5.782a18.343,18.343,0,0,0-2.015-7.957l-92.251,53.261Z" transform="translate(-348.632 -182.533)" fill="#4b3c87"/>
          <path id="Path_2486" data-name="Path 2486" d="M414.9,290.44l-68.8-39.721c-4.129-2.384-7.476-8.78-7.476-14.286h0c0-5.506,3.347-8.036,7.476-5.652L414.9,270.5c4.129,2.384,7.476,8.78,7.476,14.286h0C422.374,290.294,419.027,292.824,414.9,290.44Z" transform="translate(-338.623 -182.584)" fill="#5340a2"/>
        </g>
        <path id="Path_2487" data-name="Path 2487" d="M412.515,282.433l-8.271-4.771a3.569,3.569,0,0,1-1.491-2.848h0c0-1.1.668-1.6,1.491-1.126l8.271,4.771a3.569,3.569,0,0,1,1.49,2.848h0C414.005,282.4,413.338,282.908,412.515,282.433Z" transform="translate(-346.545 -177.052)" fill="#fff"/>
      </g>
      <g id="Group_1900" data-name="Group 1900" transform="translate(7 35)">
        <g id="Group_1899" data-name="Group 1899">
          <path id="Path_2488" data-name="Path 2488" d="M343.029,119.391l14.135,8.029,14.423-8.462-.038-3.681-.123.072-.011-.26,6.414-.045-.038-3.624,6.29-.044-.038-3.625,6.29-.044-.038-3.625,6.29-.044-.038-3.625,6.724-.047,2.089-1.226,2.306-9.514-.038-3.681-1.113,3.527-10.179-1.36Z" transform="translate(-292.75 -84.432)" fill="#6d54ce"/>
          <g id="Group_1898" data-name="Group 1898">
            <g id="Group_1897" data-name="Group 1897">
              <g id="Group_1892" data-name="Group 1892" transform="translate(15.955)">
                <g id="Group_1878" data-name="Group 1878" transform="translate(34.285)">
                  <g id="Group_1877" data-name="Group 1877">
                    <path id="Path_2489" data-name="Path 2489" d="M357.12,123.525l14.423-8.462-.173-3.869,6.414-.045-.162-3.623,6.414-.045-.162-3.624,6.414-.045-.162-3.623,6.414-.045-.162-3.623,6.849-.048,2.089-1.226,2.306-9.514-11.33-1.513L342.985,115.5Z" transform="translate(-342.985 -84.219)" fill="#422f8a"/>
                  </g>
                </g>
                <g id="Group_1880" data-name="Group 1880" transform="translate(34.285 25.165)">
                  <g id="Group_1879" data-name="Group 1879">
                    <path id="Path_2490" data-name="Path 2490" d="M366.725,121.437a19.873,19.873,0,0,0-6.552-5.648,33.814,33.814,0,0,0-6.771-2.858l-10.418,6.112,14.135,8.029Z" transform="translate(-342.985 -112.931)" fill="#396caa"/>
                  </g>
                </g>
                <g id="Group_1882" data-name="Group 1882" transform="translate(51.982 1.259)">
                  <g id="Group_1881" data-name="Group 1881">
                    <path id="Path_2491" data-name="Path 2491" d="M409.731,87.507l.387-1.6-1.9-.254-45.041,26.427,2.372,1.347Z" transform="translate(-363.176 -85.656)" fill="#6d54ce"/>
                  </g>
                </g>
                <g id="Group_1884" data-name="Group 1884" transform="translate(0.004 41.338)">
                  <g id="Group_1883" data-name="Group 1883">
                    <path id="Path_2492" data-name="Path 2492" d="M304.027,136.616l-.156-5.233,1.675,3.534Z" transform="translate(-303.872 -131.383)" fill="#d3d0cf"/>
                  </g>
                </g>
                <path id="Path_2493" data-name="Path 2493" d="M312.757,146.673c11.548,6.56,30.2,6.431,41.652-.291,5.744-3.37,8.587-7.757,8.54-12.12v0l-.16-5.545-.941,1.049a18.026,18.026,0,0,0-7.609-7.435c-11.549-6.56-30.2-6.43-41.652.291S301.208,140.114,312.757,146.673Zm16.682-9.788c3.006,1.708,3.026,4.511.044,6.261a11.987,11.987,0,0,1-10.844.076c-3.006-1.708-3.026-4.511-.044-6.261A11.982,11.982,0,0,1,329.439,136.886Z" transform="translate(-303.889 -88.33)" fill="#6d54ce"/>
                <g id="Group_1886" data-name="Group 1886" transform="translate(0 23.938)">
                  <g id="Group_1885" data-name="Group 1885">
                    <path id="Path_2494" data-name="Path 2494" d="M312.578,140.706c11.549,6.56,30.2,6.43,41.653-.291s11.379-17.488-.169-24.049-30.2-6.43-41.652.292S301.03,134.146,312.578,140.706Zm16.683-9.788c3.006,1.707,3.026,4.51.044,6.261a11.984,11.984,0,0,1-10.844.075c-3.006-1.707-3.026-4.51-.044-6.261A11.984,11.984,0,0,1,329.261,130.918Z" transform="translate(-303.867 -111.531)" fill="#f2f2f2"/>
                  </g>
                </g>
                <path id="Path_2495" data-name="Path 2495" d="M325.992,145.839a11.827,11.827,0,0,1-7.352-1.086c-2.156-1.225-2.767-3.012-1.846-4.571l-5.232-4.148s-2.735-3.085-5.442-6.144c-4.212,6.157-1.995,13.41,6.637,18.314a36.4,36.4,0,0,0,12.915,4.1Z" transform="translate(-303.89 -89.861)" fill="#6d54ce"/>
                <g id="Group_1888" data-name="Group 1888" transform="translate(0 23.938)">
                  <g id="Group_1887" data-name="Group 1887">
                    <path id="Path_2496" data-name="Path 2496" d="M312.578,140.706a35.171,35.171,0,0,0,8.689,3.408,46.24,46.24,0,0,0,6.906,1.192c9.186.894,18.99-.744,26.058-4.891,11.455-6.722,11.379-17.488-.169-24.049s-30.2-6.43-41.652.292S301.03,134.146,312.578,140.706Zm16.683-9.788c3.006,1.707,3.026,4.51.044,6.261a11.984,11.984,0,0,1-10.844.075c-3.006-1.707-3.026-4.51-.044-6.261A11.984,11.984,0,0,1,329.261,130.918Z" transform="translate(-303.867 -111.531)" fill="#422f8a"/>
                  </g>
                </g>
                <g id="Group_1891" data-name="Group 1891" transform="translate(3.254 25.813)">
                  <g id="Group_1890" data-name="Group 1890">
                    <g id="Group_1889" data-name="Group 1889">
                      <path id="Path_2497" data-name="Path 2497" d="M307.581,129.055c.562-3.352,3.047-6.626,7.471-9.222,10.192-5.98,26.784-6.1,37.059-.259,5.106,2.9,7.686,6.726,7.744,10.574.732-4.369-1.807-8.871-7.622-12.173-10.275-5.837-26.867-5.721-37.059.259C310.047,121.24,307.522,125.16,307.581,129.055Z" transform="translate(-307.58 -113.67)" fill="#6d54ce"/>
                    </g>
                  </g>
                </g>
              </g>
              <g id="Group_1896" data-name="Group 1896" transform="translate(0 40.29)">
                <g id="Group_1895" data-name="Group 1895">
                  <g id="Group_1894" data-name="Group 1894">
                    <g id="Group_1893" data-name="Group 1893">
                      <path id="Path_2498" data-name="Path 2498" d="M297.926,178.694a11.554,11.554,0,0,1-5.779-1.491c-4.139-2.348-6.442-7.068-6.483-13.29-.082-11.348,7.817-25.253,17.607-31,5.363-3.147,10.6-3.587,14.734-1.236a11.572,11.572,0,0,1,4.284,4.284,17.838,17.838,0,0,1,2.2,9.007c.081,11.348-7.819,25.254-17.608,31A17.9,17.9,0,0,1,297.926,178.694Zm14.291-44.334a13.79,13.79,0,0,0-6.839,2.148c-8.646,5.072-15.622,17.353-15.55,27.377.032,4.671,1.586,8.114,4.375,9.7s6.542,1.157,10.57-1.206c8.646-5.072,15.622-17.353,15.552-27.377a13.968,13.968,0,0,0-1.627-6.927h0a7.234,7.234,0,0,0-6.481-3.713Z" transform="translate(-285.663 -130.188)" fill="#422f8a"/>
                    </g>
                  </g>
                </g>
              </g>
            </g>
          </g>
        </g>
        <path id="Path_2499" data-name="Path 2499" d="M321.959,144.88l8.222,2.015,1.181-6.1a11.984,11.984,0,0,1-10.844.075Z" transform="translate(-289.969 -91.208)" fill="#422f8a"/>
        <path id="Path_2500" data-name="Path 2500" d="M313.806,144.671a35.172,35.172,0,0,0,8.689,3.408,46.242,46.242,0,0,0,6.906,1.192c9.186.894,18.99-.744,26.058-4.891l-33.484-.752Z" transform="translate(-289.14 -91.558)" fill="#422f8a"/>
        <path id="Path_2501" data-name="Path 2501" d="M329.266,149.683a66.906,66.906,0,0,1-9.641-2.18v5.138a39.887,39.887,0,0,0,7.184,1.841C334.475,155.495,329.266,149.683,329.266,149.683Z" transform="translate(-289.859 -92.036)" fill="#6d54ce"/>
      </g>
      <path id="Path_2502" data-name="Path 2502" d="M320.92,147.913a34.1,34.1,0,0,1-4.736-1.748c-4.479-2.1,1.187,5.671,1.187,5.671s1.526.608,3.55,1.229Z" transform="translate(-282.221 -56.827)" fill="#6d54ce"/>
    </g>
    <g id="Group_1906" data-name="Group 1906" transform="translate(351.305 102.697)">
      <g id="Group_1903" data-name="Group 1903" transform="translate(3.178)">
        <path id="Path_2503" data-name="Path 2503" d="M395.6,305.519s-4.219-2.128-6.811,1.04-6.3,10.65-6.411,15.7,4,4.713,6.446,3.516,9.591-11.561,10.024-13.591-.51-4.778-1.2-5.315S395.6,305.519,395.6,305.519Z" transform="translate(-366.43 -129.948)" fill="#173d7a"/>
        <path id="Path_2504" data-name="Path 2504" d="M397.386,304.316l.2,4.372a2.48,2.48,0,0,1-1.236,2.274,4.862,4.862,0,0,1-3.255.506c-3.179-.511-3.462-1.419-3.69-5.79S397.386,304.316,397.386,304.316Z" transform="translate(-367.297 -129.761)" fill="#5793ce"/>
        <g id="Group_1902" data-name="Group 1902" transform="translate(0 77.565)">
          <path id="Path_2505" data-name="Path 2505" d="M377.973,295.928s-4.219-2.128-6.811,1.04-6.3,10.649-6.411,15.7,4,4.714,6.446,3.517,9.591-11.561,10.024-13.592-.51-4.777-1.2-5.314S377.973,295.928,377.973,295.928Z" transform="translate(-364.252 -206.328)" fill="#173d7a"/>
          <path id="Path_2506" data-name="Path 2506" d="M379.762,294.725l.2,4.372a2.48,2.48,0,0,1-1.236,2.274,4.868,4.868,0,0,1-3.255.506c-3.179-.511-3.463-1.419-3.69-5.79S379.762,294.725,379.762,294.725Z" transform="translate(-365.12 -206.141)" fill="#5793ce"/>
          <path id="Path_2507" data-name="Path 2507" d="M416.478,202.116c-1.249-20.322-22.008,2.99-22.008,2.99l-14.208,13.926-12.795,14.055a12.611,12.611,0,0,0-3.178,10.131l5.176,39.41a3.873,3.873,0,0,0,3.885,3.366,13.075,13.075,0,0,0,1.917-.167,4.814,4.814,0,0,0,4.276-5.109l-.946-36.86,26.869-16.2S417.727,222.438,416.478,202.116Z" transform="translate(-364.183 -193.799)" fill="#422f8a"/>
        </g>
        <path id="Path_2508" data-name="Path 2508" d="M390.9,242.766l-3.823-1.4c-.089,0-6.5,6.2-6.444,8.37l2.877.923,7.222-7.011Z" transform="translate(-366.214 -122.109)" fill="#65569f"/>
        <path id="Path_2509" data-name="Path 2509" d="M416.8,248.616s15.968-9.117,17.879-12.939c.749-1.5,1.912-3.062-2.748-5.324l-21.295,15.18.923,5.226Z" transform="translate(-369.921 -120.749)" fill="#65569f"/>
        <path id="Path_2510" data-name="Path 2510" d="M434.1,211.063c-1.331-20.317-22.008,2.991-22.008,2.991L397.887,227.98l-12.795,14.054a12.613,12.613,0,0,0-3.178,10.131l5.176,39.41a3.872,3.872,0,0,0,3.884,3.366,13.2,13.2,0,0,0,1.917-.167,4.815,4.815,0,0,0,4.276-5.11l-.946-36.859,26.869-16.2S435.32,229.638,434.1,211.063Z" transform="translate(-366.36 -117.339)" fill="#422f8a"/>
        <path id="Path_2511" data-name="Path 2511" d="M423.182,137.375C438.92,143.9,438.6,153.2,438.6,153.2s-3.083,34.107-2.031,56.885c.44,9.523-50.592,10.249-42.981-15.155,8.973-29.953,5.609-54.2,9.81-57.859S419.11,135.687,423.182,137.375Z" transform="translate(-367.72 -108.984)" fill="#e5bc6a"/>
        <path id="Path_2512" data-name="Path 2512" d="M431,145.955c-.823,3.2-5.01,4.88-9.351,3.762s-7.193-4.615-6.37-7.811,5.01-4.879,9.351-3.761S431.825,142.761,431,145.955Z" transform="translate(-370.477 -109.316)" fill="#ffc2b0"/>
        <path id="Path_2513" data-name="Path 2513" d="M424.2,150.705a11.419,11.419,0,0,1-2.844-.366,10.475,10.475,0,0,1-5.518-3.38,6.011,6.011,0,0,1-1.394-5.347c.924-3.593,5.531-5.524,10.267-4.3a10.478,10.478,0,0,1,5.517,3.381,6.011,6.011,0,0,1,1.394,5.346C430.888,148.9,427.815,150.705,424.2,150.705Zm-2.369-12.262c-2.923,0-5.368,1.36-5.93,3.544a4.555,4.555,0,0,0,1.1,4.021,8.963,8.963,0,0,0,4.726,2.873c3.933,1.01,7.716-.431,8.435-3.219a4.555,4.555,0,0,0-1.1-4.021,8.955,8.955,0,0,0-4.726-2.874A10.093,10.093,0,0,0,421.833,138.444Z" transform="translate(-370.371 -109.21)" fill="#fff"/>
        <path id="Path_2514" data-name="Path 2514" d="M420.242,136.442a38.591,38.591,0,0,1-.136,5.618c-.086,1.568,5.4,3.033,6.823,1.614s.851-2.895,1.192-8.231S420.242,136.442,420.242,136.442Z" transform="translate(-371.091 -108.761)" fill="#ffc2b0"/>
        <path id="Path_2515" data-name="Path 2515" d="M428.121,135.744s-1.352,4.948-8.016,6.845l.1-4.5Z" transform="translate(-371.091 -109.062)" fill="#ea9c92"/>
        <path id="Path_2516" data-name="Path 2516" d="M430.707,120.122a12.115,12.115,0,1,1-14.761-8.7A12.115,12.115,0,0,1,430.707,120.122Z" transform="translate(-369.455 -106.01)" fill="#ffc2b0"/>
        <path id="Path_2517" data-name="Path 2517" d="M421.748,124.957s-6.67,2.857-11.288,2.89-3.6-3.835-3.6-3.835l13.71-1.982Z" transform="translate(-369.443 -107.368)" fill="#ea9c92"/>
        <path id="Path_2518" data-name="Path 2518" d="M408.341,123.643s5.81-2.466,10.908-1.438a5.34,5.34,0,0,1,3.08,1.831,1.819,1.819,0,0,0,.933.674c.9.205,2.383-3.545,4.14-3.63s2.929,1.158,1.488,3.465-.954,4.887-.29,5.257,7.693-5.014,1.492-17.3-21.954-5.668-24.4-3.178c0,0-2.581,2.248-4.679.247C401.008,109.571,398.654,127.2,408.341,123.643Z" transform="translate(-368.7 -105.302)" fill="#422f8a"/>
        <path id="Path_2519" data-name="Path 2519" d="M432.144,183.444v9.216a3.757,3.757,0,0,1-1.225,2.775l-18.933,17.26,2.151,3.29,25-18.133a5.081,5.081,0,0,0,2.071-3.582L442.9,178.2Z" transform="translate(-370.088 -114.306)" fill="#ffc2b0"/>
        <path id="Path_2520" data-name="Path 2520" d="M442.287,150.495s5.743,8.638,7.883,31.375c0,0-9.811,3.173-15.379,1.372S442.287,150.495,442.287,150.495Z" transform="translate(-372.734 -110.884)" fill="#e5bc6a"/>
        <path id="Path_2521" data-name="Path 2521" d="M433.453,162.956s-2.249,12.034-2.376,17.69a3.61,3.61,0,0,0,2.376,3.487h0Z" transform="translate(-372.446 -112.424)" fill="#977532"/>
      </g>
      <g id="Group_1904" data-name="Group 1904" transform="translate(3.026 91.507)">
        <path id="Path_2522" data-name="Path 2522" d="M420.257,228.907l-4.184-.552-27.012-15.6a3.756,3.756,0,0,0-3.379.139l-19.14,11.047-2.53-.334v2.519h0a.987.987,0,0,0,.581.887l30.612,17.674a3.754,3.754,0,0,0,3.378-.14l20.845-12.03a1.364,1.364,0,0,0,.827-1.137h0Z" transform="translate(-364.01 -210.042)" fill="#173d7a"/>
        <path id="Path_2523" data-name="Path 2523" d="M399.961,219.831l-1.919-1.108h-21.1l-10.4,6-2.53-.334v2.519h0a.987.987,0,0,0,.581.887l30.612,17.674a3.162,3.162,0,0,0,1.743.326Z" transform="translate(-364.01 -210.82)" fill="#396caa"/>
        <path id="Path_2524" data-name="Path 2524" d="M365.135,225.337l-1.123-.148v2.519h0a.987.987,0,0,0,.581.887l.54.311Z" transform="translate(-364.01 -211.619)" fill="#5793ce"/>
        <path id="Path_2525" data-name="Path 2525" d="M399.955,248.774a3.924,3.924,0,0,0,2.871-.178V244.31h-2.871Z" transform="translate(-368.45 -213.981)" fill="#274f89"/>
        <path id="Path_2526" data-name="Path 2526" d="M395.207,241.839l-30.612-17.674c-.866-.5-.757-1.373.243-1.951l20.844-12.03a3.756,3.756,0,0,1,3.379-.14l30.612,17.674c.866.5.757,1.373-.243,1.951L398.585,241.7A3.754,3.754,0,0,1,395.207,241.839Z" transform="translate(-364.01 -209.706)" fill="#fff"/>
        <path id="Path_2527" data-name="Path 2527" d="M395.357,240.07l-25.454-14.7c-.72-.415-.63-1.141.2-1.621l11.17-6.282a3.122,3.122,0,0,1,2.809-.116l25.454,14.695c.72.416.629,1.142-.2,1.622l-11.17,6.281A3.119,3.119,0,0,1,395.357,240.07Z" transform="translate(-364.678 -210.616)" fill="#d4ecff"/>
      </g>
      <path id="Path_2528" data-name="Path 2528" d="M390.018,209.439l-.317,2.112a15.616,15.616,0,0,0,.138,5.416l.377,1.862a2.617,2.617,0,0,0,2.1,2.056h0a1.444,1.444,0,0,0,1.693-1.26l.5-4.516s1.155,1.515,1.714,1.515-.624-4.523-1.886-7.082S390.018,209.439,390.018,209.439Z" transform="translate(-364.136 -118.035)" fill="#ffc2b0"/>
      <path id="Path_2529" data-name="Path 2529" d="M400.183,170.39l-3.285,6.5a12.738,12.738,0,0,0-1.344,4.935l-1.427,22.236-4.321-.1-1.962-24.971a9.178,9.178,0,0,1,.111-2.309l2.241-12.663Z" transform="translate(-363.924 -112.555)" fill="#ffc2b0"/>
      <g id="Group_1905" data-name="Group 1905" transform="translate(0 78.266)">
        <path id="Path_2530" data-name="Path 2530" d="M393.819,241.67l-2.567-3.351-26.993-15.627a3.755,3.755,0,0,1-1.564-3l.023-22.1-1.551-2.026,1.458-.845,0,0a.984.984,0,0,1,1.059.06L394.276,212.5a3.753,3.753,0,0,1,1.564,3l-.025,24.067a1.364,1.364,0,0,1-.572,1.283h0Z" transform="translate(-360.632 -194.599)" fill="#173d7a"/>
        <path id="Path_2531" data-name="Path 2531" d="M375.152,229l-1.918-1.11L362.708,209.6l.011-12.009-1.551-2.026,1.458-.845,0,0a.984.984,0,0,1,1.059.06L394.276,212.5a3.168,3.168,0,0,1,1.153,1.348Z" transform="translate(-360.632 -194.599)" fill="#396caa"/>
        <path id="Path_2532" data-name="Path 2532" d="M361.855,196.468l-.688-.9,1.458-.845,0,0a.984.984,0,0,1,1.059.06l.539.312Z" transform="translate(-360.632 -194.599)" fill="#5793ce"/>
        <path id="Path_2533" data-name="Path 2533" d="M398.816,215.244a3.921,3.921,0,0,1,1.278,2.577l-2.99,1.726-1.432-2.487Z" transform="translate(-364.895 -197.149)" fill="#274f89"/>
        <path id="Path_2534" data-name="Path 2534" d="M392.743,213.46l-30.59-17.711c-.866-.5-1.569.029-1.57,1.183L360.557,221a3.758,3.758,0,0,0,1.565,3l30.591,17.711c.865.5,1.568-.029,1.57-1.183l.025-24.067A3.753,3.753,0,0,0,392.743,213.46Z" transform="translate(-360.557 -194.718)" fill="#5793ce"/>
      </g>
      <path id="Path_2535" data-name="Path 2535" d="M413.018,220.847l-.49,1.015a6.8,6.8,0,0,1-2.557,2.835l-3.039,1.873a3.026,3.026,0,0,1-3.1.072l-.1-.062a1.829,1.829,0,0,1-.259-2.809l3.175-3.264s-1.784,1.366-2.284.816c-.366-.4,1.73-2.372,3.34-2.436a6.355,6.355,0,0,0,3.167-1.33Z" transform="translate(-365.792 -119.169)" fill="#ffc2b0"/>
      <path id="Path_2536" data-name="Path 2536" d="M402.952,137.295s-11.64,12.666-16.336,24.285a23.759,23.759,0,0,0,13.724,9.985C410.083,174.379,402.952,137.295,402.952,137.295Z" transform="translate(-363.776 -109.254)" fill="#e5bc6a"/>
      <path id="Path_2537" data-name="Path 2537" d="M399.412,172.969l1.887-18.225-4.445,17.075A25.285,25.285,0,0,0,399.412,172.969Z" transform="translate(-365.041 -111.409)" fill="#977532"/>
      <path id="Path_2538" data-name="Path 2538" d="M414.761,134.258l-3.128-.859a7.549,7.549,0,0,0,3.673,2.948c2.18.6,2.519-1.246,2.519-1.246Z" transform="translate(-366.866 -108.772)" fill="#fff"/>
    </g>
  </g>
</svg>
