<svg xmlns="http://www.w3.org/2000/svg" width="315.915" height="322.247" viewBox="0 0 315.915 322.247">
  <g id="Group_52823" data-name="Group 52823" transform="translate(-41.593 -114.198)">
    <g id="on_boarding_image_tow">
      <path id="Path_2246" data-name="Path 2246" d="M560.079,131.158c-92.991-18.243-175.017-6.68-199.963,35.22-34.46,57.884-.266,76.514-5.113,109.306-3.842,25.99-48.581,83.5,11.145,114.586C427.9,422.414,588.594,398.7,591.588,343.7c4.907-90.141,28.062-51.592,50.342-96.25C669.8,191.579,632.821,145.428,560.079,131.158Z" transform="translate(-293.718 -5.792)" fill="#fff" opacity="0.3"/>
      <circle id="Ellipse_4" data-name="Ellipse 4" cx="41.165" cy="41.165" r="41.165" transform="translate(269.83 114.198)" fill="#fff"/>
      <g id="Group_1778" data-name="Group 1778" transform="translate(294.627 126.566)">
        <path id="Path_2190" data-name="Path 2190" d="M397.938,139.617a2.433,2.433,0,0,1,.027.8q-1.007,2.634-2.077,5.245a3.931,3.931,0,0,1-.626.8,10.319,10.319,0,0,1-1.355-.123c-1.144-.254-2.283-.545-3.419-.837a11.088,11.088,0,0,0-5.13.179c-2.227.476-3.638,2.082-4.718,3.959a2.008,2.008,0,0,0,.385,2.409,13.043,13.043,0,0,0,2.235,2.064c1.558,1.048,3.2,1.978,4.83,2.908,1.088.62,2.229,1.144,3.331,1.746.62.334,1.208.727,1.8,1.109,5.51,3.547,7.052,8.795,6.1,14.914a10.329,10.329,0,0,1-6.2,8.308c-1.858.823-3.732,1.612-5.838,2.518a6.851,6.851,0,0,0-.241,1.045c-.051.465.019.941,0,1.409-.062,1.444-.708,2.093-2.195,2.189a12.049,12.049,0,0,1-1.644,0c-1.788-.128-3.577-.283-5.285-.425-1.16-1.219-.4-2.684-.877-4.093l-1.58-.668A34.278,34.278,0,0,1,368,180.64a3.185,3.185,0,0,1-1.385-1.617,4.134,4.134,0,0,1,1.056-2.494c.508-.791,1.021-1.583,1.583-2.336s.885-1.684,1.8-2.069a2.013,2.013,0,0,1,1.716.679,28.93,28.93,0,0,0,6.3,3.62,8.788,8.788,0,0,0,8.332-.575,6.467,6.467,0,0,0,1.478-1.149,4.25,4.25,0,0,0,.668-5.582,8.531,8.531,0,0,0-3.775-3.424c-1-.457-2.018-.863-3.042-1.254a32.958,32.958,0,0,1-8.947-5.106c-.123-.1-.243-.2-.361-.3a10.455,10.455,0,0,1-1.973-13.992,14.869,14.869,0,0,1,3.638-3.964c.372-.278.743-.553,1.222-.912.027-2.085.051-4.186.078-6.344.428-.286.786-.719,1.184-.762,2.181-.233,4.371-.377,6.557-.529a2.318,2.318,0,0,1,.727.241c.829,1.411-.118,3.08.548,4.662,1.059.219,2.117-.289,3.189-.174,1.091.118,2.189.179,3.272.342a22.155,22.155,0,0,1,2.986.617A6.109,6.109,0,0,1,397.938,139.617ZM384.778,188a2.077,2.077,0,0,0,.257-.511c.051-.388.064-.781.08-1.171.027-.548.011-1.1.075-1.647a1.258,1.258,0,0,1,1.168-1.272c2.352-.184,4.293-1.422,6.349-2.363a7.7,7.7,0,0,0,3.817-3.986,12.2,12.2,0,0,0,1.045-5.247c-.005-4.331-1.6-7.79-5.309-10.137-1.385-.882-2.86-1.623-4.285-2.443-1.9-1.093-3.849-2.12-5.667-3.339a14.645,14.645,0,0,1-2.925-2.7,3.9,3.9,0,0,1-.524-4.432,9.016,9.016,0,0,1,5.694-4.945,13.616,13.616,0,0,1,6.982-.158c.888.227,1.8.348,2.81.537.465-1.2.885-2.28,1.267-3.261-.225-.246-.31-.409-.438-.462a11.866,11.866,0,0,0-1.331-.46,20.724,20.724,0,0,0-8.634-.385c-1.815.275-2.2-.091-2.091-1.981.037-.626.094-1.254.086-1.877a3.854,3.854,0,0,0-.192-.847,9.426,9.426,0,0,0-4.523.241c-.588,2.074.155,4.336-.553,6.45-.353.235-.668.465-1,.663a11.9,11.9,0,0,0-4.146,4.414,8.25,8.25,0,0,0,1.772,10.645,27.973,27.973,0,0,0,4.841,3.307c2.28,1.2,4.71,2.114,7.071,3.162a10.806,10.806,0,0,1,4.823,4.331,6.366,6.366,0,0,1,.952,2.879,6.214,6.214,0,0,1-2.283,5.429,10.773,10.773,0,0,1-11,2.093,26.41,26.41,0,0,1-6.247-3.248,10.953,10.953,0,0,0-1.227-.62,14.63,14.63,0,0,0-2.63,4.125c.289.219.535.414.789.593a29.376,29.376,0,0,0,7.589,4.194c.663.225,1.382.366,1.735,1.088.5,1-.131,2.205.663,3.344C381.3,187.9,383.056,188.534,384.778,188Z" transform="translate(-366.607 -132.53)" fill="#3c3372"/>
        <path id="Path_2191" data-name="Path 2191" d="M383.371,186.609c-1.722.537-3.475-.1-5.149.005-.794-1.139-.166-2.344-.663-3.344-.353-.722-1.072-.863-1.735-1.088a29.376,29.376,0,0,1-7.589-4.194c-.254-.179-.5-.374-.789-.593a14.631,14.631,0,0,1,2.63-4.125,10.949,10.949,0,0,1,1.227.62,26.411,26.411,0,0,0,6.247,3.248,10.773,10.773,0,0,0,11-2.093,6.214,6.214,0,0,0,2.283-5.429,6.366,6.366,0,0,0-.952-2.879,10.806,10.806,0,0,0-4.823-4.331c-2.36-1.048-4.79-1.965-7.071-3.162a27.971,27.971,0,0,1-4.841-3.307,8.25,8.25,0,0,1-1.772-10.645,11.9,11.9,0,0,1,4.146-4.414c.334-.2.65-.428,1-.663.708-2.115-.035-4.376.553-6.45a9.426,9.426,0,0,1,4.523-.241,3.855,3.855,0,0,1,.192.847c.008.623-.048,1.251-.086,1.877-.112,1.89.275,2.256,2.09,1.981a20.724,20.724,0,0,1,8.635.385,11.877,11.877,0,0,1,1.331.46c.128.053.214.217.438.462-.382.981-.8,2.058-1.267,3.261-1.008-.19-1.922-.31-2.81-.537a13.617,13.617,0,0,0-6.982.158,9.016,9.016,0,0,0-5.694,4.945,3.9,3.9,0,0,0,.524,4.432,14.646,14.646,0,0,0,2.925,2.7c1.818,1.219,3.767,2.246,5.667,3.339,1.425.821,2.9,1.561,4.285,2.443,3.705,2.347,5.3,5.806,5.309,10.137a12.194,12.194,0,0,1-1.045,5.248,7.7,7.7,0,0,1-3.817,3.986c-2.056.941-4,2.179-6.349,2.363a1.258,1.258,0,0,0-1.168,1.272c-.064.543-.048,1.1-.075,1.647-.016.39-.029.783-.08,1.171A2.08,2.08,0,0,1,383.371,186.609Z" transform="translate(-365.2 -131.142)" fill="#f5f5f5"/>
      </g>
      <g id="Group_1855" data-name="Group 1855" transform="translate(-34.765 33.821)">
        <g id="Group_1854" data-name="Group 1854" transform="translate(105.765 121.179)">
          <g id="Group_1851" data-name="Group 1851">
            <path id="Path_2307" data-name="Path 2307" d="M281.387,274.163c0,5.4-25.1,9.773-56.069,9.773s-56.066-4.374-56.066-9.773,25.1-9.769,56.066-9.769S281.387,268.768,281.387,274.163Z" transform="translate(-53.151 -2.49)" opacity="0.1"/>
            <g id="Group_1847" data-name="Group 1847" transform="translate(103.914)">
              <path id="Path_2308" data-name="Path 2308" d="M279.734,145.057H174.528a11.938,11.938,0,0,1-11.94-11.938h0a11.94,11.94,0,0,1,11.94-11.94H279.734a11.94,11.94,0,0,1,11.94,11.94h0A11.938,11.938,0,0,1,279.734,145.057Z" transform="translate(-162.588 -121.179)" fill="#634bbf"/>
              <g id="Group_1843" data-name="Group 1843" transform="translate(2.838 2.719)">
                <path id="Path_2309" data-name="Path 2309" d="M182.579,131.887a9.22,9.22,0,1,1-9.219-9.221A9.22,9.22,0,0,1,182.579,131.887Z" transform="translate(-164.14 -122.666)" fill="#ffd176"/>
                <g id="Group_1842" data-name="Group 1842" transform="translate(2.08 3.653)">
                  <path id="Path_2310" data-name="Path 2310" d="M173.994,130.919c.267-.069.463-.115.657-.174a1.161,1.161,0,0,1,.975.117q1.893,1.149,3.773,2.319c.06.038.079.143.157.3a5.569,5.569,0,0,1-1.469,2.321,26.909,26.909,0,0,1-4.532-2.9c-.037-.23-.081-.5-.143-.883-.357.382-.622.706-.925.986a4.137,4.137,0,0,1-6.975-1.8,5.162,5.162,0,0,1,.819-4.689,4.268,4.268,0,0,1,4.572-1.7,4.328,4.328,0,0,1,3.081,3.793C174.049,129.313,173.994,130.032,173.994,130.919Zm-7.626-1.262a3.744,3.744,0,0,0,.832,2.456,3.013,3.013,0,0,0,3.442.85,4.024,4.024,0,0,0,1.251-6.366,2.8,2.8,0,0,0-2.906-.722A3.941,3.941,0,0,0,166.368,129.657Zm11.43,4.793c.148-.318.243-.521.331-.708-1.439-1.092-2.805-1.882-3.151-1.754-.053.11-.137.276-.249.5C175.717,133.166,176.662,133.779,177.8,134.45Z" transform="translate(-165.278 -124.663)" fill="#3c3372"/>
                  <path id="Path_2311" data-name="Path 2311" d="M165.876,129.171a3.941,3.941,0,0,1,2.619-3.782,2.8,2.8,0,0,1,2.906.722,4.024,4.024,0,0,1-1.251,6.366,3.013,3.013,0,0,1-3.442-.85A3.744,3.744,0,0,1,165.876,129.171Z" transform="translate(-164.786 -124.177)" fill="#fff"/>
                  <path id="Path_2312" data-name="Path 2312" d="M173.515,131.137c-1.136-.671-2.081-1.284-3.069-1.962.112-.223.2-.39.249-.5.346-.128,1.712.662,3.151,1.754C173.758,130.615,173.663,130.818,173.515,131.137Z" transform="translate(-160.994 -121.35)" fill="#fff"/>
                </g>
              </g>
              <rect id="Rectangle_106" data-name="Rectangle 106" width="59.578" height="59.578" rx="8.417" transform="translate(0 31.089)" fill="#ffd176"/>
              <rect id="Rectangle_107" data-name="Rectangle 107" width="59.578" height="59.578" rx="8.417" transform="translate(69.508 31.089)" fill="#634bbf"/>
              <rect id="Rectangle_108" data-name="Rectangle 108" width="59.578" height="59.578" rx="8.417" transform="translate(0 97.759)" fill="#634bbf"/>
              <path id="Rectangle_109" data-name="Rectangle 109" d="M8.416,0H51.161a8.417,8.417,0,0,1,8.417,8.417V51.161a8.417,8.417,0,0,1-8.417,8.417H8.417A8.417,8.417,0,0,1,0,51.161V8.416A8.416,8.416,0,0,1,8.416,0Z" transform="translate(69.508 97.759)" fill="#634bbf"/>
              <g id="Group_1845" data-name="Group 1845" transform="translate(4.949 44.051)">
                <path id="Path_2313" data-name="Path 2313" d="M174.089,165.475a9.475,9.475,0,0,1-1.639-.144,7.714,7.714,0,0,1-6.26-5.342,8.24,8.24,0,0,1,1.613-8.418,8.383,8.383,0,0,1,6.647-3.114l.113,0a8.313,8.313,0,0,1,7.107,3.945,8.411,8.411,0,0,1,.307,8.315A8.673,8.673,0,0,1,174.089,165.475Z" transform="translate(-164.986 -142.625)" fill="#fff"/>
                <g id="Group_1844" data-name="Group 1844" transform="translate(7.711 1.776)">
                  <path id="Path_2314" data-name="Path 2314" d="M169.511,163.552a11.734,11.734,0,0,0,3.886,4.715l0,.055c.08.035.159.064.24.091,1.825,1.042,4.232,1.275,7.18-.869,7.317-5.322,1.329-13.3,1.329-13.3Z" transform="translate(-169.511 -139.606)" fill="#fff"/>
                  <path id="Path_2315" data-name="Path 2315" d="M192.334,146.238c-4.656,2-12.638,9.312-12.638,9.312,1.329,2.661,5.987,7.982,11.973,3.326S192.334,146.238,192.334,146.238Z" transform="translate(-161.07 -146.238)" fill="#fff"/>
                </g>
                <path id="Path_2316" data-name="Path 2316" d="M187.542,161.322c1.527-1.842,1.527-1.842,3.464-2.639.055-.828-.816-1.5-.5-2.408,1.4-1.666,12.125-9.661,14.782-11.007a3.63,3.63,0,0,1,1.9,1.141l1.408-.289c.8.876-.208,1.273-.366,1.964.069.221.163.523.256.823a9.176,9.176,0,0,1-.269,6.4,11.025,11.025,0,0,1-8.345,6.942,8.237,8.237,0,0,1-6.545-1.324c-.349-.241-.693-.49-1.086-.77a6.445,6.445,0,0,0-.92.006,2.939,2.939,0,0,0-2.524,3.586c.084.415.236.819.315,1.236a9.667,9.667,0,0,1-1.459,7.169,10.914,10.914,0,0,1-6.938,4.993,8.388,8.388,0,0,1-7.642-1.7c-.2-.168-.408-.338-.614-.5a.773.773,0,0,0-.177-.069l-1.037.5-.8-.366c0-.232-.059-.426.011-.532.26-.39.565-.748.841-1.1-.2-.633-.382-1.236-.552-1.788.536-1.22,1.761-1.633,2.472-2.529.02-.34-.254-.289-.428-.349a2.234,2.234,0,0,0-.618-.152c-3.039-.137-6.468-4.179-6.686-7.072a9.392,9.392,0,0,1,8.443-11.042,8.988,8.988,0,0,1,9.78,7.11,8.349,8.349,0,0,1,.2,2.849,6.292,6.292,0,0,0-.005.768c.624-.329,1.125-.592,1.639-.865C186.408,160.133,186.818,160.914,187.542,161.322Zm-12.777-9.557a7.749,7.749,0,0,0-6.143,2.873,7.607,7.607,0,0,0-1.5,7.77,7.077,7.077,0,0,0,5.748,4.91,8.146,8.146,0,0,0,8.815-4.255A7.7,7.7,0,0,0,174.765,151.765ZM200.941,150a4.956,4.956,0,0,0-1.787,1.081c-.549.4-1.079.836-1.545,1.2-.124,1.117-.187,6.878-.086,8.057a4.274,4.274,0,0,0,.172.655,5.515,5.515,0,0,0,3.374-.589C201.027,156.964,200.985,153.586,200.941,150Zm-20.692,17.09c-1.072.411-2.039,1.037-3.058,1.45a41.674,41.674,0,0,0-.3,7.218,3.965,3.965,0,0,0,3.195.022,2.407,2.407,0,0,0,.132-.5q.1-3.9.174-7.8A1.5,1.5,0,0,0,180.249,167.089Zm23.9-8.412c0-.54.02-.964,0-1.386-.112-2.068-.227-4.138-.36-6.2-.057-.9-.159-1.794-.258-2.688-.007-.07-.143-.124-.271-.227-.322.229-.658.464-.966.68-.079,3.639.084,7.182.245,10.782A2.825,2.825,0,0,0,204.149,158.677Zm-20.85,15.85c.123-1.474-.035-8.418-.234-10.188-.009-.079-.1-.148-.2-.283a5.216,5.216,0,0,0-1.064,1.481c-.082,3.124-.166,6.141-.236,9.158a2.363,2.363,0,0,0,.179.613A2.784,2.784,0,0,0,183.3,174.527Z" transform="translate(-165.294 -145.267)" fill="#3c3372"/>
                <path id="Path_2317" data-name="Path 2317" d="M168.418,154.32c1.178.249,1.754,1.293,2.84,1.723a5.97,5.97,0,0,0,.651-.549c1.167-1.3,2.317-2.611,3.478-3.913.278-.315.574-.614.8-.856.518-.165.821-.042.975.351a1,1,0,0,1-.005.335,2.027,2.027,0,0,1-.315.543q-2.3,2.62-4.634,5.221a4.068,4.068,0,0,1-.721.523c-.223-.042-.411-.024-.525-.108-.929-.695-1.854-1.394-2.754-2.123C167.891,155.208,167.957,154.941,168.418,154.32Z" transform="translate(-163.042 -140.803)" fill="#4f9ba3"/>
              </g>
              <path id="Path_2318" data-name="Path 2318" d="M231.151,181.367c-2.008-.179-3.875-.49-5.715-.779a8.042,8.042,0,0,1-.154-3.35c.631-3.445,1.386-6.874,1.862-10.343.4-2.95,1.178-5.825,1.527-8.78a20.141,20.141,0,0,1,.5-2.171,3.78,3.78,0,0,0,.077-1.854.844.844,0,0,0-1.278.227c-.859,1.079-1.732,2.151-2.582,3.237-1.631,2.085-3.242,4.186-4.879,6.265-2.163,2.752-4.321,5.506-6.529,8.224a9.573,9.573,0,0,1-1.944,2.262,18.025,18.025,0,0,1-4.658-2.8,4.367,4.367,0,0,1,.3-.861c1.637-2.725,3.308-5.43,4.938-8.158,1.657-2.774,3.266-5.578,4.921-8.352,1.247-2.094,2.538-4.162,3.8-6.249,1.041-1.719,2.065-3.445,3.059-5.11a2.016,2.016,0,0,1,1.6.309q3.415,1.514,6.821,3.043,3.484,1.558,6.964,3.127a2.8,2.8,0,0,1,.45.342c-.23.945-.439,1.922-.706,2.882-.655,2.348-1.333,4.689-2,7.033-.422,1.478-.843,2.955-1.278,4.431-.585,1.984-1.207,3.956-1.77,5.945-.88,3.111-1.717,6.234-2.59,9.347C231.7,179.9,231.438,180.543,231.151,181.367Z" transform="translate(-125.464 -103.34)" fill="#baedb2"/>
              <path id="Path_2319" data-name="Path 2319" d="M213.324,162.78A3.849,3.849,0,0,1,212,164.523c-2.167-1.2-4.193-2.617-6.355-4.007a3.2,3.2,0,0,1,.293-.7c.278-.38.607-.722.907-1.07A39.136,39.136,0,0,1,213.324,162.78Z" transform="translate(-126.905 -90.045)" fill="#fff"/>
              <path id="Path_2320" data-name="Path 2320" d="M216.473,165.882a3,3,0,0,1,.157-1.73,1.823,1.823,0,0,1,.481-.113c.929.042,6.434.927,7.245,1.156a1.7,1.7,0,0,1-.355,1.644,15.617,15.617,0,0,1-2.825-.287c-1.006-.048-2.008-.177-3.01-.278-.369-.037-.741-.073-1.1-.144A3.355,3.355,0,0,1,216.473,165.882Z" transform="translate(-117.98 -85.66)" fill="#fff"/>
              <path id="Path_2321" data-name="Path 2321" d="M210.038,204.041a2.481,2.481,0,0,1-.212-.574c-.629-5.7-1.249-11.4-1.876-17.177a6.765,6.765,0,0,1,.964-.269c1.582-.19,3.164-.371,4.751-.527,3.754-.368,7.511-.7,11.265-1.079,3.647-.362,7.291-.763,10.938-1.13a5.464,5.464,0,0,1,1.8.005c.43,1.938.567,3.893.817,5.828s.455,3.906.711,5.856.529,3.879.686,5.737a1.64,1.64,0,0,1-.2.218.8.8,0,0,1-.28.137q-14.426,1.533-28.856,3.05A2.032,2.032,0,0,1,210.038,204.041Z" transform="translate(-124.994 -69.771)" fill="#fff"/>
              <path id="Path_2322" data-name="Path 2322" d="M212.9,180c-2.67-1.624-5.141-3.25-7.637-4.837-.163-.1-.245-.333-.388-.536.28-1.375,1.37-2.237,2-3.39h1.543c1.083-1.812,2.193-3.678,3.306-5.539q2-3.347,4.007-6.691,2.452-4.09,4.9-8.184,1.35-2.249,2.694-4.506c.651-1.092,1.295-2.189,1.946-3.281.62-1.044,1.112-1.269,2.227-.83,1.28.5,2.52,1.1,3.78,1.655,1.361.594,2.727,1.178,4.085,1.778,1.116.494,2.224,1,3.336,1.5,1.545.695,3.092,1.384,4.612,2.065a1.261,1.261,0,0,1,.176,1.375c-.4,1.428-.834,2.847-1.236,4.277-.558,1.992-1.09,3.988-1.646,5.978-.386,1.381-.79,2.754-1.194,4.129-.582,1.984-1.187,3.963-1.754,5.953-.525,1.834-1,3.683-1.522,5.519-.508,1.785-1.053,3.561-1.6,5.408.236.265.47.527.706.79a6.056,6.056,0,0,1-.891,3.711,6.549,6.549,0,0,1-1.033.031c-2.588-.3-5.172-.614-7.756-.935a2.39,2.39,0,0,1-.437-.139c-.512-.966-.519-1.425-.057-3.778.262-.166.565-.358.858-.541a1.391,1.391,0,0,0,.1-.322,50.482,50.482,0,0,1,.863-6.949c.556-2.761,1.13-5.521,1.518-8.308.271-1.953.68-3.868,1.059-5.8.121-.611.132-1.245.2-1.9-.2.055-.338.049-.388.115q-7.014,8.852-14.03,17.735c.112.324.21.609.333.958A14.318,14.318,0,0,1,212.9,180Zm20.334,1.957c.287-.825.547-1.468.731-2.13.872-3.113,1.71-6.236,2.59-9.347.563-1.99,1.185-3.961,1.77-5.945.435-1.476.856-2.953,1.278-4.431.671-2.344,1.35-4.685,2-7.033.267-.96.475-1.937.706-2.882a2.8,2.8,0,0,0-.45-.342q-3.478-1.569-6.964-3.127-3.41-1.525-6.821-3.043a2.017,2.017,0,0,0-1.6-.309c-.995,1.664-2.019,3.391-3.059,5.11-1.262,2.087-2.553,4.155-3.8,6.249-1.655,2.774-3.264,5.578-4.921,8.352-1.629,2.728-3.3,5.433-4.938,8.158a4.366,4.366,0,0,0-.3.861,18.024,18.024,0,0,0,4.658,2.8,9.573,9.573,0,0,0,1.944-2.262c2.207-2.717,4.365-5.472,6.529-8.224,1.637-2.079,3.248-4.18,4.879-6.265.85-1.086,1.723-2.158,2.582-3.237a.844.844,0,0,1,1.278-.227,3.78,3.78,0,0,1-.077,1.854,20.139,20.139,0,0,0-.5,2.171c-.349,2.955-1.125,5.83-1.527,8.78-.475,3.469-1.231,6.9-1.862,10.343a8.041,8.041,0,0,0,.154,3.35C229.356,181.467,231.223,181.777,233.231,181.957Zm-19.268-5.292a39.136,39.136,0,0,0-6.479-4.034c-.3.348-.629.689-.907,1.07a3.2,3.2,0,0,0-.293.7c2.162,1.39,4.188,2.807,6.355,4.007A3.848,3.848,0,0,0,213.964,176.664Zm12.073,7.487a3.352,3.352,0,0,0,.589.247c.364.071.735.108,1.1.144,1,.1,2,.23,3.01.278a15.618,15.618,0,0,0,2.825.287,1.7,1.7,0,0,0,.355-1.644c-.812-.229-6.317-1.114-7.245-1.156a1.823,1.823,0,0,0-.481.113A3,3,0,0,0,226.037,184.151Z" transform="translate(-127.544 -103.93)" fill="#3c3372"/>
              <path id="Path_2323" data-name="Path 2323" d="M225.838,204.62a14.4,14.4,0,0,0,.34,3.116,7.52,7.52,0,0,0,.933-.005c2-.249,4-.521,6.006-.768a10.767,10.767,0,0,1,1.172-.005c.086.315.165.592.234.845a2.716,2.716,0,0,1-1.7.589c-4.215.53-8.431,1.064-12.649,1.578a5.927,5.927,0,0,1-2.33.048c-.371-.364-.316-.686.06-1.072,2.147-.428,4.426-.545,6.684-.938a7.783,7.783,0,0,0-.249-3.147c-2.434.029-4.784.426-7.147.666s-4.747.485-6.99.715a1.87,1.87,0,0,1-1.072-1.644c-.221-2.112-.441-4.226-.671-6.338q-.417-3.8-.849-7.6c-.13-1.161-.282-2.321-.39-3.484-.113-1.22.2-1.637,1.456-1.8,1.633-.208,3.277-.337,4.917-.5q3.887-.381,7.774-.763,4.282-.422,8.566-.845,3.728-.368,7.456-.742c.212-.02.421-.066.633-.08,1.017-.075,1.518.276,1.673,1.258.2,1.26.351,2.526.508,3.793.364,2.953.717,5.907,1.081,8.86.163,1.318.344,2.633.5,3.954.069.578.117,1.161.154,1.745a1.355,1.355,0,0,1-.09.411,1.425,1.425,0,0,1-1.143.554c-3.275.331-6.552.66-9.828,1.006C229.249,204.2,227.621,204.406,225.838,204.62Zm-15.175.066a2.032,2.032,0,0,0,.507.075q14.429-1.517,28.856-3.05a.8.8,0,0,0,.28-.137,1.639,1.639,0,0,0,.2-.218c-.157-1.858-.43-3.8-.686-5.737s-.461-3.906-.711-5.856-.388-3.89-.817-5.828a5.461,5.461,0,0,0-1.8-.005c-3.647.368-7.291.768-10.938,1.13-3.754.375-7.511.711-11.265,1.079-1.587.155-3.169.336-4.751.527a6.761,6.761,0,0,0-.964.269c.627,5.773,1.247,11.475,1.876,17.177A2.482,2.482,0,0,0,210.663,204.686Z" transform="translate(-125.619 -70.416)" fill="#3c3372"/>
              <path id="Path_2324" data-name="Path 2324" d="M221.888,146.5c-.154.7-.468.832-.779.713-.678-.258-1.328-.6-2.041-.925.027-.355.049-.635.073-.956C220.332,145.328,220.986,146.139,221.888,146.5Z" transform="translate(-115.78 -101.161)" fill="#3c3372"/>
              <path id="Path_2325" data-name="Path 2325" d="M217,144.011a5.2,5.2,0,0,1,2.284,1.359c-.176.263-.331.492-.477.706-.885-.1-1.353-.717-2.035-1.167C216.838,144.649,216.907,144.384,217,144.011Z" transform="translate(-117.683 -102.257)" fill="#3c3372"/>
              <path id="Path_2326" data-name="Path 2326" d="M223.586,147.452a2.531,2.531,0,0,1-.187.45c-.051.077-.168.112-.289.183-.8-.048-1.359-.611-2.074-.958.1-.294.159-.481.223-.673C222.319,146.212,222.943,146.823,223.586,147.452Z" transform="translate(-114.149 -100.278)" fill="#3c3372"/>
              <path id="Path_2327" data-name="Path 2327" d="M223.083,147.891c.419-.651.629-.724,1.132-.432.41.238.433.417.141,1.033A1.057,1.057,0,0,1,223.083,147.891Z" transform="translate(-112.453 -99.535)" fill="#3c3372"/>
              <g id="Group_1846" data-name="Group 1846" transform="translate(11.078 113.086)">
                <path id="Path_2328" data-name="Path 2328" d="M201.074,195.579c-.075-1.059-.187-2.116-.3-3.169a6.734,6.734,0,0,0-1.639-3.74,13.024,13.024,0,0,0-5.651-4.02,14.09,14.09,0,0,0-11.15.534,20.1,20.1,0,0,0-2.478,1.434,19.183,19.183,0,0,0-6.88,7.58,25.834,25.834,0,0,0-2.244,7.77,1.63,1.63,0,0,0,.115.5,5.231,5.231,0,0,0,.624-.057,50.823,50.823,0,0,1,11.713-1.123c2.017.062,4.032.166,6.049.256,1.381.06,2.76.132,4.14.183.185.007.446.046.441-.368l-.064-.009a2.576,2.576,0,0,0,.327-1.375,17.574,17.574,0,0,0,4.4-.221,2.718,2.718,0,0,0,2.2-1.838A5.442,5.442,0,0,0,201.074,195.579Z" transform="translate(-166.916 -182.405)" fill="#ffd176"/>
                <path id="Path_2329" data-name="Path 2329" d="M170.031,200.621a4.607,4.607,0,0,1-.433-3.866,1.6,1.6,0,0,1,1.4-1.145c1.611-.326,3.22-.691,4.846-.913,2.052-.278,4.116-.461,6.181-.618a27.407,27.407,0,0,1,3.027.011c1.964.073,3.928.143,5.89.272,2.33.152,4.658.36,6.986.561a3.374,3.374,0,0,1,2.213.841,5.225,5.225,0,0,1-.194,2.955,2.534,2.534,0,0,1-1.523,1.531,13.3,13.3,0,0,1-4.138,1.112c-2.741.316-5.494.552-8.244.783-1.322.112-2.652.135-3.976.2a43.32,43.32,0,0,1-6.679-.375A15.225,15.225,0,0,1,170.031,200.621Z" transform="translate(-168.044 -173.882)" fill="#db9a4b"/>
                <path id="Path_2330" data-name="Path 2330" d="M197.2,202.418c.721.13,1.242.2,1.748.322a15.529,15.529,0,0,1,1.982.58,1.806,1.806,0,0,1,1.214,1.724,15.489,15.489,0,0,1-.187,2.855,3.394,3.394,0,0,1-2,2.538,15.19,15.19,0,0,1-2.69.969,24.007,24.007,0,0,1-4.722.722c-1.114.048-2.222.208-3.332.322a61.086,61.086,0,0,1-13.69-.055,40.134,40.134,0,0,1-4.51-.977,2.822,2.822,0,0,1-2.16-2.3,7.246,7.246,0,0,1,.1-3.776,2.373,2.373,0,0,1,1.03-1.373c.311-.2.629-.39.971-.6.174-.995.349-1.986.518-2.977a22.437,22.437,0,0,1,1.326-4.586,20.964,20.964,0,0,1,12.086-11.812,15.036,15.036,0,0,1,9.25-.468,14.51,14.51,0,0,1,7.822,4.936,8.025,8.025,0,0,1,1.818,3.853,21.665,21.665,0,0,1,.307,4.923,5.794,5.794,0,0,1-.775,2.575,3.3,3.3,0,0,1-2.189,1.723c-.772.179-1.569.247-2.355.369A2.03,2.03,0,0,0,197.2,202.418Zm-24.617.666a5.225,5.225,0,0,0,.624-.057,50.823,50.823,0,0,1,11.713-1.123c2.017.062,4.032.166,6.049.256,1.381.06,2.76.132,4.14.183.185.007.446.046.441-.368-.238-.033-.485-.06-.73-.1-.68-.113-1.362-.219-2.039-.351a1.927,1.927,0,0,1-.587-.23.588.588,0,0,1-.305-.669.552.552,0,0,1,.567-.466c.686.06,1.361.21,2.045.3a18.123,18.123,0,0,0,5.709-.09,2.718,2.718,0,0,0,2.2-1.838,5.442,5.442,0,0,0,.393-2.341c-.075-1.059-.187-2.116-.3-3.169a6.734,6.734,0,0,0-1.639-3.74,13.024,13.024,0,0,0-5.651-4.02,14.09,14.09,0,0,0-11.15.534,20.091,20.091,0,0,0-2.478,1.434,19.182,19.182,0,0,0-6.88,7.58,25.834,25.834,0,0,0-2.244,7.77A1.63,1.63,0,0,0,172.58,203.084Zm-1.948,6.673a15.225,15.225,0,0,0,5.355,1.351,43.323,43.323,0,0,0,6.679.375c1.324-.066,2.654-.09,3.976-.2,2.75-.23,5.5-.466,8.244-.783a13.3,13.3,0,0,0,4.138-1.112,2.534,2.534,0,0,0,1.523-1.531,5.225,5.225,0,0,0,.194-2.955,3.374,3.374,0,0,0-2.213-.841c-2.328-.2-4.656-.41-6.986-.561-1.962-.13-3.926-.2-5.89-.272a27.407,27.407,0,0,0-3.027-.011c-2.065.157-4.129.34-6.181.618-1.626.221-3.235.587-4.846.913a1.6,1.6,0,0,0-1.4,1.145A4.608,4.608,0,0,0,170.632,209.757Z" transform="translate(-168.646 -183.017)" fill="#3c3372"/>
                <path id="Path_2331" data-name="Path 2331" d="M172.83,191.241h0a.624.624,0,0,1-.267-.7,4.02,4.02,0,0,1,1.066-1.75.843.843,0,0,1,.71-.09.512.512,0,0,1,.265.662,5.158,5.158,0,0,1-.969,1.73A.615.615,0,0,1,172.83,191.241Z" transform="translate(-165.418 -178.336)" fill="#3c3372"/>
                <path id="Path_2332" data-name="Path 2332" d="M172.76,191.058c.1.117.327.276.38.481a.6.6,0,0,1-.6.717.633.633,0,0,1-.54-.647C172.023,191.3,172.305,191.054,172.76,191.058Z" transform="translate(-165.869 -176.353)" fill="#3c3372"/>
              </g>
            </g>
            <path id="Path_2333" data-name="Path 2333" d="M218.882,274.163c0,5.4-25.1,9.773-56.068,9.773s-56.068-4.374-56.068-9.773,25.1-9.769,56.068-9.769S218.882,268.768,218.882,274.163Z" transform="translate(-104.952 -2.49)" opacity="0.1"/>
            <g id="Group_1850" data-name="Group 1850" transform="translate(0 8.469)">
              <path id="Path_2334" data-name="Path 2334" d="M134.5,273.153c-2.019.081-3.926.037-5.832-.009-5.612-.139-11.234-.033-16.753-.4-.124-.119-.176-.15-.2-.192a.3.3,0,0,1-.015-.157q.8-4.789,1.6-9.577c.016-.1.108-.179.232-.375.5-.053,1.07-.157,1.646-.172,2.974-.077,5.947-.155,8.921-.181a7.385,7.385,0,0,1,2.026.322,14.968,14.968,0,0,1,5.227,2.635,9.442,9.442,0,0,1,2.5,2.862A6.6,6.6,0,0,1,134.5,273.153Z" transform="translate(-100.85 -12.866)" fill="#4f9ba3"/>
              <path id="Path_2335" data-name="Path 2335" d="M147.712,272.588c-.256-2.851-.166-5.5-.362-8.207a2.132,2.132,0,0,1,.594-.181,26.7,26.7,0,0,0,10.671-1.873,22.807,22.807,0,0,1,10.678,4.552,13.507,13.507,0,0,1,2.747,3.087,3.981,3.981,0,0,1,.839,2.465c-.421.038-.828.11-1.236.11-3.3.009-6.594,0-9.893.009q-6.142.011-12.286.038C148.936,272.59,148.409,272.588,147.712,272.588Z" transform="translate(-71.302 -12.672)" fill="#4f9ba3"/>
              <path id="Path_2336" data-name="Path 2336" d="M167.94,159.943a.617.617,0,0,0,.19.856c.256.185.565.291.832.461,1.073.684,2.154,1.359,3.2,2.079a2.356,2.356,0,0,1,1.143,1.565,4.477,4.477,0,0,1-1.125,1.992c-.889.984-1.829,1.922-2.769,2.858a9.717,9.717,0,0,1-1.216,1.024,3.537,3.537,0,0,0-1.584,3.113,8.692,8.692,0,0,1-.316,2.981,39.656,39.656,0,0,1-6.9-.038c.066-.556.123-1.121.2-1.686.291-2.156.58-4.312.883-6.468.23-1.629.5-3.253.724-4.883a4.746,4.746,0,0,1,1.445-2.771c.413-.413.85-.8,1.3-1.172a54.009,54.009,0,0,1,9.3-5.832,9.592,9.592,0,0,1,1.637-.607,1.641,1.641,0,0,1,.6.053,2.388,2.388,0,0,1-.977,1.306c-1.673,1.476-3.35,2.948-5.064,4.374A8.047,8.047,0,0,1,167.94,159.943Z" transform="translate(-61.317 -102.948)" fill="#ffc9b5"/>
              <g id="Group_1848" data-name="Group 1848" transform="translate(0.729 69.841)">
                <path id="Path_2337" data-name="Path 2337" d="M177.846,169.153c-.005-.326-.029-.651-.053-.988l-.033-.47a.665.665,0,0,0-.413-.576,5.8,5.8,0,0,0-2.235-.327c-.282,0-.563,0-.839-.027-.852-.08-1.71-.09-2.54-.1l-.541-.005s-.647-.009-.821-.009a5.383,5.383,0,0,0-2.29.41.657.657,0,0,0-.375.465l-.06.262c-.049.2-.093.4-.121.593-.113.832-.223,1.666-.333,2.5l-.276,2.087c-.09.675-.185,1.351-.278,2.026-.139,1.009-.278,2.019-.41,3.028q-.431,3.322-.836,6.646c-.042.338-.088.673-.135,1.013a19.814,19.814,0,0,0-.265,4.407.618.618,0,0,0,.055.212q-2.348-3.687-4.682-7.383c-.444-.7-.88-1.41-1.339-2.154l-.658-1.064a.667.667,0,0,0-.913-.218c-.1.06-.176.1-.241.141a1.577,1.577,0,0,0-.444.316,64.921,64.921,0,0,1-7.732,6.964,3.131,3.131,0,0,0-.463.479c-.049.059-.1.121-.152.181a.666.666,0,0,0-.1.753l.161.313c.113.227.218.432.336.625l.854,1.392q2.074,3.385,4.162,6.759a30.867,30.867,0,0,0,4.963,6.024,13.308,13.308,0,0,0,5.579,3.279,6.524,6.524,0,0,0,1.77.26,5.08,5.08,0,0,0,2.12-.45,7.724,7.724,0,0,0,4.3-4.321c.315-.836.571-1.682.8-2.471a84.066,84.066,0,0,0,2.194-10.038c.688-4.2,1.293-8.4,1.8-12.485A54.385,54.385,0,0,0,177.846,169.153Z" transform="translate(-71.284 -161.801)" fill="#634bbf"/>
                <path id="Path_2338" data-name="Path 2338" d="M128.341,195.739c-2.86-5.018-5.817-10.2-9.038-15.272l.863-.554c1-.64,1.946-1.247,2.884-1.865.446-.294.9-.583,1.35-.869.929-.593,1.891-1.205,2.831-1.891a.664.664,0,0,0,.165-.9c-.338-.521-.678-1.031-1.013-1.538-.755-1.134-1.467-2.207-2.134-3.325-.689-1.15-1.317-2.313-1.981-3.548q-.436-.809-.885-1.631A.67.67,0,0,0,120.8,164a.663.663,0,0,0-.291.068c-.084.042-.166.079-.245.113a4.055,4.055,0,0,0-.56.287l-2.076,1.337c-2.264,1.456-4.607,2.963-6.885,4.484a20.2,20.2,0,0,0-2.787,2.3,5.086,5.086,0,0,0-1.267,6.123l.139.313c.472,1.055.958,2.147,1.54,3.184l.907,1.624c1.439,2.575,2.926,5.238,4.519,7.785,2.154,3.447,4.418,6.9,6.607,10.243q1.207,1.838,2.408,3.679a5.075,5.075,0,0,0,.53.649c.066.071.132.143.192.212a.662.662,0,0,0,.5.232.61.61,0,0,0,.181-.026,20.119,20.119,0,0,0,7.169-4.649.667.667,0,0,0,.079-.777Q129.894,198.472,128.341,195.739Z" transform="translate(-106.164 -164.001)" fill="#634bbf"/>
              </g>
              <path id="Path_2339" data-name="Path 2339" d="M128.158,305.507c-5.122.062-10.109-.322-15.1-.369a1.255,1.255,0,0,1-.413-.161.987.987,0,0,1-.084-.331q8.945-54.21,17.876-108.289c.446-.494.887-.358,1.3-.327,3.551.267,7.1.549,10.654.81,3.023.225,6.046.466,9.071.631,3.771.2,7.545.335,11.316.5.421.018.838.077,1.326.123.188.463.377.892.538,1.333a157.3,157.3,0,0,1,4.647,15.583q3.19,12.684,6.269,25.392c1.975,8.167,3.679,16.393,5.049,24.683.964,5.823,1.922,11.647,2.727,17.492.7,5.055,1.174,10.14,1.743,15.211.166,1.481.34,2.959.472,4.442a4.372,4.372,0,0,1,.026,1.715c-.362.38-.812.256-1.222.263-2.5.051-5,.069-7.5.139-1.7.048-3.4.168-5.1.247-.366.018-.733,0-1.176,0a5.235,5.235,0,0,1-.207-.922c-.157-4.1-.779-8.147-1.269-12.212-1.009-8.348-2.483-16.612-4.166-24.845-1.364-6.669-2.86-13.308-4.843-19.822-1.1-3.608-2.291-7.2-3.61-10.731-2.361-6.326-4.837-12.606-7.286-18.9-.521-1.337-1.119-2.644-1.71-3.952a7.019,7.019,0,0,0-.728-1.233.935.935,0,0,0-1.255-.238,4.775,4.775,0,0,0-.351.916c-.66,3.555-1.3,7.114-1.946,10.671q-1.662,9.181-3.33,18.362-1.511,8.314-3.032,16.631-1.717,9.414-3.427,18.831-1.662,9.181-3.317,18.366-.823,4.548-1.653,9.1A7.748,7.748,0,0,1,128.158,305.507Z" transform="translate(-100.138 -67.65)" fill="#634bbf"/>
              <path id="Path_2340" data-name="Path 2340" d="M185.856,186.306c-1.006-1.688-2-3.387-3.039-5.058a172.5,172.5,0,0,0-10.243-15.4,66.662,66.662,0,0,0-8.034-8.626,15.871,15.871,0,0,0-7.094-3.423,9.69,9.69,0,0,0-3.487-.168,27.469,27.469,0,0,0-6.327,1.571,129.854,129.854,0,0,0-14.058,6.419c-2.972,1.538-5.857,3.242-8.76,4.914-2.994,1.723-5.964,3.489-8.933,5.256-.393.234-.889.384-1.079,1.011a48.042,48.042,0,0,0,10.329,14.756c2.33-1.533,4.585-3.019,6.88-4.532l.033-.113a3.5,3.5,0,0,0,.5.082,3.38,3.38,0,0,0,.512,1.081l-.055.245c-1,4.621-1.935,9.259-2.833,13.9-.766,3.965-1.452,7.946-2.151,11.923-.21,1.2-.346,2.412-.507,3.548.331.613.589,1.137.889,1.637a5.745,5.745,0,0,1-1.448,7.573c-.256.187-.494.4-.8.647-.234,1.65-.5,3.326-.587,5.022a9,9,0,0,0,.046.938c.565.064,1.035.132,1.509.165q6.6.48,13.2.947c2.917.207,5.832.421,8.749.611,2.28.148,4.563.3,6.847.384,3.127.122,6.258.194,9.387.269a3.7,3.7,0,0,0,.863-.174,4.222,4.222,0,0,0,.1-.556q.148-6.139.289-12.278c.086-3.934.155-7.865.234-11.8.038-1.862.071-3.721.132-5.583,0-.073,0-.146-.005-.219a3.48,3.48,0,0,0,.335-.88l.007-.04a3.8,3.8,0,0,0,.02-1.565c-.02-.221-.038-.443-.06-.664.483,1.053.956,2.109,1.408,3.177a4.14,4.14,0,0,0,.508.724,7.018,7.018,0,0,0,.677-.294,60.916,60.916,0,0,0,14.548-11.576,13.656,13.656,0,0,0,2.059-2.8C186.2,186.957,186.044,186.622,185.856,186.306Z" transform="translate(-98.276 -102.822)" fill="#ffd176"/>
              <path id="Path_2341" data-name="Path 2341" d="M145.985,160.139a26,26,0,0,1-2.97,5.656c-.631-.24-.576-.814-.786-1.22a2.681,2.681,0,0,0-.753-1.18.75.75,0,0,0-.982.305c-.452.658-.856,1.346-1.3,2.008-.287.432-.419.984-.9,1.256-.333,0-.307-.263-.366-.435a20.012,20.012,0,0,0-3.008-5.6,21.249,21.249,0,0,1-3.546-7.439,8.1,8.1,0,0,1,4.3-9.343,2.158,2.158,0,0,0,1.562-2.37,3.89,3.89,0,0,1,2.878-3.952,18.323,18.323,0,0,1,3.261-.73,38.879,38.879,0,0,0,8.593-2.344,16.74,16.74,0,0,0,4.533-2.635,16.215,16.215,0,0,1,2.076-1.479,8.555,8.555,0,0,1,1.92-.728.874.874,0,0,1,.916,1.406c-.2.3-.41.585-.582.828a.657.657,0,0,0,.8.5c.8-.042,1.591-.133,2.387-.124a6.327,6.327,0,0,1,1.728.24c1.483.444,1.918,1.514,1.125,2.824-.38.629-.94,1.148-1.384,1.743a3.642,3.642,0,0,0-.342.755c.4.561.911.468,1.377.488a2.136,2.136,0,0,1,1.8.719,2.963,2.963,0,0,1-.179.812,4.54,4.54,0,0,1-1.964,1.814,17.782,17.782,0,0,1-3.983,1.607c-3.177.865-6.36,1.708-9.542,2.558-.463.124-.938.2-1.388.36a2.584,2.584,0,0,0-.6.406,14.361,14.361,0,0,1,.077,4.85C150.111,155.871,149.176,159.09,145.985,160.139Z" transform="translate(-84.754 -122.438)" fill="#4f9ba3"/>
              <path id="Path_2342" data-name="Path 2342" d="M144.972,160.15c-.9,1.717-.735,3.773-1.441,5.654a37.563,37.563,0,0,0-3.705-.951,37.61,37.61,0,0,0-3.789-.238c-.04-.073-.143-.168-.13-.247a56.624,56.624,0,0,1,1.364-5.636c.7.337.563,1.366,1.392,1.434a1.38,1.38,0,0,0,1.238-.847q1.138-1.915,2.216-3.864c.333-.6.6-1.24.909-1.9h1.326c.086-.23.168-.455.232-.629-.124-.165-.17-.278-.254-.327a3.779,3.779,0,0,0-.571-.269,2.724,2.724,0,0,1-1.75-2.452,7.422,7.422,0,0,1,.737-4.181,3.348,3.348,0,0,1,.66-.887,1.279,1.279,0,0,1,1.971-.015,3.615,3.615,0,0,1,1.022,2.756,8.88,8.88,0,0,1-.108,1.167c.256.521.585.545,1.086.315a5.7,5.7,0,0,0,.346-.931,22.446,22.446,0,0,0,.393-5.071,11.493,11.493,0,0,1,.022-2.93l5.313-1.342c.11.168.208.294.282.435a18.774,18.774,0,0,1,1.71,13.889,11.4,11.4,0,0,1-2.2,4.383,7.15,7.15,0,0,1-4.855,2.76,8.445,8.445,0,0,1-1.578-.035A4.358,4.358,0,0,0,144.972,160.15Z" transform="translate(-80.787 -115.076)" fill="#ffc9b5"/>
              <path id="Path_2343" data-name="Path 2343" d="M158.123,266.3a3.027,3.027,0,0,1-1.606.878,29.445,29.445,0,0,1-6.9,1.077,3.961,3.961,0,0,1-1.748-.331c-.386-3.848-.774-7.686-1.169-11.618,1.741-.4,3.548-.152,5.322-.346a46.149,46.149,0,0,1,5.285-.066c.578,1.77.327,3.539.532,5.254S158.042,264.627,158.123,266.3Z" transform="translate(-71.837 -18.039)" fill="#ffc9b5"/>
              <path id="Path_2344" data-name="Path 2344" d="M120.282,188.288c1.3-.947,2.536-1.854,3.782-2.75a2.475,2.475,0,0,1,.525-.2,30.752,30.752,0,0,1,3.107,5.523c.6,1.523-.044,2.8-.925,3.983a3.575,3.575,0,0,1-.956.832,29.034,29.034,0,0,1-5.64,2.933,12.1,12.1,0,0,1-2.163.477,2.015,2.015,0,0,1-1.5-.417,4.107,4.107,0,0,1-1.692-3.109.891.891,0,0,1,.527-.914,1.137,1.137,0,0,1,1.1.472,7.054,7.054,0,0,0,1.039.962c.388.258.81.216,1.116-.36-.1-.23-.2-.518-.333-.79a2.463,2.463,0,0,1,1.538-3.546c.4-.124.817-.19,1.26-.289l.421-.905c-.181-.333-.342-.66-.536-.967S120.535,188.635,120.282,188.288Z" transform="translate(-98.268 -76.475)" fill="#ffc9b5"/>
              <path id="Path_2345" data-name="Path 2345" d="M123.369,256.754c-.086,1.492-.24,2.851-.415,4.21s-.32,2.739-.485,4.17a2.678,2.678,0,0,1-.726.249c-2.814.09-5.629.161-8.445.229a1.977,1.977,0,0,1-.444-.091,55.616,55.616,0,0,1,1.447-8.957,12.207,12.207,0,0,1,2.968-.005c1.008-.044,2.021.011,3.028.062A25.75,25.75,0,0,1,123.369,256.754Z" transform="translate(-99.892 -17.548)" fill="#ffc9b5"/>
              <path id="Path_2346" data-name="Path 2346" d="M135.73,200.137" transform="translate(-80.932 -64.212)" opacity="0.1"/>
              <path id="Path_2347" data-name="Path 2347" d="M131.256,204.735A180.068,180.068,0,0,1,152.384,260.1c6.263,31.8,5.792,38.113,5.792,38.113h-3.784S152.213,250.086,131.256,204.735Z" transform="translate(-84.64 -60.402)" opacity="0.1"/>
              <path id="Path_2348" data-name="Path 2348" d="M145.976,256.142l12.751-.642v2.364l-11.42,4.483Z" transform="translate(-72.441 -18.33)" opacity="0.1"/>
              <path id="Path_2349" data-name="Path 2349" d="M164.694,224.978l-28.452-1.973,1.918-60.118-6.371,8.288a6.688,6.688,0,0,1-8.908,1.558l-3.57-2.284-3.142-5.166,1.536,13.831,5.082-3.606,4.788,5.084,7.388-5.084-5.437,28.9-.768.768s2.482,2.383-.119,5.656c-3.665,5.417-10.391,6.031-10.391,6.031,2.279,3.967,9.21-1.639,9.21-1.639v7.359l2.624.47-5.55,34.373-12.412,75.52h2.216l-.878,4.981,11.34-2.4.088-2.039-9.308-.547,17.711-95.857a11.213,11.213,0,0,1,10.5-9.166l20.908-.995.8-.177Z" transform="translate(-100.498 -95.083)" opacity="0.1"/>
              <path id="Path_2350" data-name="Path 2350" d="M159.912,176.286s-2.941,6.966-8.714,9.652l-3.2-3.519s6.827-4.521,10.107-9.043Z" transform="translate(-70.767 -86.39)" opacity="0.1"/>
              <path id="Path_2351" data-name="Path 2351" d="M188.256,137.806c.417.179.814.318,1.178.516a1.877,1.877,0,0,1,.81,2.827,5.052,5.052,0,0,1-1.865,1.933,16.053,16.053,0,0,1-2.412,1.222c-1.39.523-2.82.936-4.235,1.392-.6.194-1.209.379-1.827.574a1.862,1.862,0,0,0,.357,1.211,21.014,21.014,0,0,1,1.949,9.288,16.715,16.715,0,0,1-1.5,6.8,11.386,11.386,0,0,1-2.368,3.378,7.925,7.925,0,0,1-6.068,2.344c-.474-.022-.947-.048-1.512-.075a30.26,30.26,0,0,0-.967,4.912c.126.17.17.282.252.333a34.676,34.676,0,0,1,7.264,6.43,86.011,86.011,0,0,1,9.55,12.759c2.579,4.1,5.078,8.242,7.609,12.368.112.181.2.377.32.55a1.541,1.541,0,0,1-.077,1.924c-.271.388-.512.8-.8,1.244.8,1.584,1.777,3.034,2.692,4.521a36.859,36.859,0,0,0,2.88,4.4c.261-1.832.51-3.451.721-5.073.347-2.69.638-5.386,1.011-8.07.572-4.106,1.212-8.2,1.792-12.309.276-1.949.468-3.906.722-5.857.187-1.423.413-2.842.629-4.259a3.949,3.949,0,0,1,.94-2,18.78,18.78,0,0,1,2.229-2.266,42.367,42.367,0,0,1,8.176-5.236c.667-.326,1.286-.763,1.97-1.042a10.837,10.837,0,0,1,1.991-.532,1.455,1.455,0,0,1,1.571.527,1.53,1.53,0,0,1-.106,1.8,6.4,6.4,0,0,1-1.869,1.944c-1.52,1.088-2.78,2.469-4.184,3.685a1.806,1.806,0,0,0-.221.344,7.674,7.674,0,0,0,.66.594c.6.437,1.234.834,1.827,1.284a7.154,7.154,0,0,1,1.055.967,2.4,2.4,0,0,1,.358,2.95,9.667,9.667,0,0,1-1.243,1.847c-1,1.094-2.081,2.123-3.151,3.156-.534.516-1.119.978-1.688,1.472a15.176,15.176,0,0,0-.368,4.493l1.1.518a1.733,1.733,0,0,1,.382,1.383c-.126,2.549-.234,5.1-.4,7.644-.254,3.773-.854,7.5-1.437,11.232a115.677,115.677,0,0,1-2.882,13.727,13.132,13.132,0,0,1-1.54,3.489,7.483,7.483,0,0,1-6.073,3.586,6.985,6.985,0,0,1-2.339-.389,13.53,13.53,0,0,1-5.678-3.433,33.487,33.487,0,0,1-5.461-6.841c-1.487-2.456-3.006-4.894-4.517-7.337-.163-.263-.366-.5-.593-.812-2.4,1.207-4.34,3.173-7.1,3.824-.318,3.156-.155,6.393-.223,9.625-.07,3.3-.2,6.593-.265,9.89-.062,3.241-.075,6.483-.11,9.623a.961.961,0,0,1-.962.616c-.532,0-1.064-.029-1.6-.016-.36.009-.719.07-1.165.117a5.116,5.116,0,0,0,.137.823c3.142,8.778,5.2,17.86,7.469,26.877q2.8,11.137,5.278,22.349c1.245,5.656,2.322,11.355,3.326,17.059q1.424,8.092,2.529,16.234c.68,4.95,1.191,9.923,1.739,14.892.311,2.8.572,5.605.816,8.414.163,1.906.252,3.82.379,5.729.115,1.745.236,3.489.36,5.3.624.163,1.178.316,1.735.452a23.307,23.307,0,0,1,9.427,4.479A13.786,13.786,0,0,1,207.929,380a5.516,5.516,0,0,1,.87,3.434,1.183,1.183,0,0,1-1.079.669c-.369.026-.744.022-1.116.022-5.375.022-10.748.035-16.122.066-2.606.017-5.212.075-7.818.1a2.568,2.568,0,0,1-1.776-.331,2.946,2.946,0,0,1-.148-.678q-.027-6.306-.567-12.585-.31-3.654-.695-7.3c-.071-.682-.247-1.351-.386-2.094a7.651,7.651,0,0,0-.966-.077c-.636.029-1.273.1-1.909.15a1.563,1.563,0,0,1-1.778-1.156,7.142,7.142,0,0,0,.112-3.07c-.26-2.646-.541-5.289-.867-7.926-.355-2.849-.715-5.7-1.169-8.535-.73-4.566-1.49-9.129-2.324-13.677-1.11-6.068-2.485-12.081-3.978-18.064a170.209,170.209,0,0,0-6.3-19.573q-2.784-7.3-5.623-14.584c-.521-1.337-1.086-2.657-1.644-3.979-.141-.333-.335-.644-.5-.949-.4.091-.43.362-.477.624q-1.147,6.356-2.3,12.713-1.358,7.453-2.727,14.9-1.5,8.24-2.986,16.479-1.7,9.338-3.4,18.671-1.5,8.24-2.985,16.479-.864,4.787-1.723,9.573c-.15.836-.274,1.673-.428,2.613a2.5,2.5,0,0,1-.783.32c-.689.038-1.383,0-2.072-.029a2.57,2.57,0,0,0-1.4.084,41.223,41.223,0,0,0-1.1,8.273,10.579,10.579,0,0,0,1.106.441,18.789,18.789,0,0,1,4.685,1.982,12.441,12.441,0,0,1,3.778,3.385,8.661,8.661,0,0,1,1.717,5.53,4.419,4.419,0,0,1-.881,2.707,6.394,6.394,0,0,1-.781.084q-11.73-.209-23.457-.435a1.467,1.467,0,0,1-.43-.152,1.161,1.161,0,0,1-.364-1.172c.194-1.209.375-2.418.58-3.623q1.341-7.944,2.69-15.884c.079-.466.088-.942.135-1.49l-1.8-.34a3.64,3.64,0,0,1-.1-.938c.543-3.359,1.114-6.715,1.671-10.071q1.045-6.293,2.083-12.589t2.088-12.589q1.029-6.216,2.054-12.434,1.223-7.4,2.454-14.791,1.339-8.1,2.664-16.212,1.366-8.26,2.743-16.521,1.119-6.767,2.222-13.536a4.328,4.328,0,0,0,0-.565l-2.664-.55a4.9,4.9,0,0,1-.177-1.079c.073-1.114.2-2.224.307-3.336.044-.475.079-.951.1-1.428,0-.093-.08-.19-.166-.377-.47.23-.936.463-1.4.691a16.331,16.331,0,0,1-4.477,1.626,3.774,3.774,0,0,1-2.75-.51,5.088,5.088,0,0,1-2.419-4.577,1.937,1.937,0,0,1,2.129-2.065,4.6,4.6,0,0,0,.477.02,2.616,2.616,0,0,0,.313-.044,11.73,11.73,0,0,1,1.216-2.008,12.2,12.2,0,0,1,1.944-1.454c-.194-.23-.388-.455-.561-.662-.783.234-1.483.461-2.195.644a2.312,2.312,0,0,1-.706-.06c-.267-.351-.576-.711-.832-1.108-2.313-3.572-4.554-7.192-6.936-10.716-2.688-3.972-5.042-8.136-7.388-12.307-.755-1.34-1.361-2.763-2.03-4.151-.091-.19-.152-.4-.232-.594a5.3,5.3,0,0,1,.774-5.42,10.428,10.428,0,0,1,1.785-1.807,22.431,22.431,0,0,1,2.222-1.551c7.3-4.674,14.533-9.447,22.1-13.7,4.455-2.5,8.93-4.941,13.547-7.123a71.113,71.113,0,0,1,11.1-4.418c.508-.143,1.022-.267,1.5-.391a13.148,13.148,0,0,0,1.11-4.409c-.263.351-.446.6-.635.849s-.391.5-.622.79c-.252-.029-.5-.059-.686-.082-.1-.172-.188-.263-.194-.357a13.068,13.068,0,0,0-2.732-6.871,31.831,31.831,0,0,1-2.61-4.191,22.434,22.434,0,0,1-1.708-4.8,9.318,9.318,0,0,1,4.486-9.939c.408-.247.838-.457,1.32-.719.033-.333.084-.7.1-1.059a5.171,5.171,0,0,1,3.871-4.918,22.722,22.722,0,0,1,3.734-.8,36.138,36.138,0,0,0,8.983-2.69,17.45,17.45,0,0,0,3.358-2.136,31.726,31.726,0,0,1,2.644-1.772,3.829,3.829,0,0,1,2.141-.525,1.805,1.805,0,0,1,1.99,1.478c.091.3.122.624.2,1.024.408.035.823.049,1.234.108a12.033,12.033,0,0,1,2.185.38c1.935.664,2.465,2.3,1.706,4.107A13.608,13.608,0,0,1,188.256,137.806Zm-54.471,223a7.757,7.757,0,0,0,.285-.885q.834-4.548,1.653-9.1,1.66-9.184,3.317-18.366,1.709-9.417,3.427-18.831,1.514-8.314,3.032-16.631,1.671-9.181,3.33-18.362c.646-3.557,1.286-7.116,1.946-10.671a4.773,4.773,0,0,1,.351-.916.935.935,0,0,1,1.255.238,7.023,7.023,0,0,1,.728,1.233c.591,1.308,1.189,2.615,1.71,3.952,2.449,6.293,4.925,12.573,7.286,18.9,1.319,3.535,2.513,7.123,3.61,10.731,1.982,6.514,3.478,13.152,4.843,19.822,1.682,8.233,3.156,16.5,4.166,24.845.49,4.065,1.112,8.112,1.269,12.212a5.234,5.234,0,0,0,.207.922c.443,0,.81.015,1.176,0,1.7-.079,3.4-.2,5.1-.247,2.5-.069,5-.088,7.5-.139.41-.007.859.117,1.222-.263a4.372,4.372,0,0,0-.026-1.715c-.132-1.483-.305-2.961-.472-4.442-.569-5.071-1.046-10.157-1.743-15.211-.8-5.845-1.763-11.669-2.727-17.492-1.37-8.29-3.074-16.515-5.049-24.683q-3.072-12.712-6.269-25.392a157.309,157.309,0,0,0-4.647-15.583c-.161-.441-.349-.87-.538-1.333-.488-.046-.905-.1-1.326-.123-3.771-.166-7.545-.3-11.316-.5-3.025-.165-6.048-.406-9.071-.631-3.551-.262-7.1-.543-10.654-.81-.411-.031-.852-.166-1.3.327q-8.918,54.017-17.876,108.289a.987.987,0,0,0,.084.331,1.255,1.255,0,0,0,.413.161C123.676,360.489,128.663,360.873,133.785,360.81ZM193.9,207.488c-.21-.4-.366-.735-.554-1.052-1.006-1.688-2-3.387-3.039-5.058a172.492,172.492,0,0,0-10.243-15.4,66.664,66.664,0,0,0-8.034-8.626,15.871,15.871,0,0,0-7.094-3.423,9.69,9.69,0,0,0-3.487-.168,27.468,27.468,0,0,0-6.327,1.571,129.854,129.854,0,0,0-14.058,6.419c-2.972,1.538-5.857,3.242-8.76,4.914-2.994,1.723-5.964,3.489-8.933,5.256-.393.234-.889.384-1.079,1.011a48.072,48.072,0,0,0,10.329,14.758l6.88-4.533c.13-.452.274-.9.388-1.364.536-2.165,1.048-4.338,1.6-6.5a30.4,30.4,0,0,0,.845-4.541,5.948,5.948,0,0,1,.09-.627c.077-.342.276-.406.924-.269.026.283.08.591.08.9a16.73,16.73,0,0,1-.587,3.934c-.794,3.251-1.646,6.492-2.355,9.762-1,4.621-1.935,9.259-2.833,13.9-.766,3.965-1.452,7.946-2.151,11.923-.21,1.2-.346,2.412-.507,3.548.331.613.589,1.137.889,1.637a5.745,5.745,0,0,1-1.448,7.573c-.256.186-.494.4-.8.647-.234,1.65-.5,3.327-.587,5.022a9,9,0,0,0,.046.938c.565.064,1.035.132,1.509.165q6.6.48,13.2.947c2.917.207,5.832.421,8.749.611,2.28.148,4.563.3,6.847.384,3.127.122,6.258.194,9.387.269a3.708,3.708,0,0,0,.863-.174,4.223,4.223,0,0,0,.1-.556q.148-6.139.289-12.278c.086-3.934.155-7.865.234-11.8.038-1.862.071-3.721.132-5.583a4.478,4.478,0,0,0-.439-2.16c-.49-1-.933-2.026-1.417-3.032q-2.8-5.821-5.6-11.636a10.31,10.31,0,0,1-.587-1.474.571.571,0,0,1,.4-.761c.6.066.7.583.891,1,2.749,5.989,5.89,11.792,8.463,17.867a4.141,4.141,0,0,0,.508.724,7.024,7.024,0,0,0,.677-.294A60.917,60.917,0,0,0,191.84,210.29,13.657,13.657,0,0,0,193.9,207.488Zm-12.051-74.825c.172-.243.386-.53.582-.828a.874.874,0,0,0-.916-1.406,8.555,8.555,0,0,0-1.92.728,16.213,16.213,0,0,0-2.076,1.479,16.74,16.74,0,0,1-4.533,2.635,38.879,38.879,0,0,1-8.593,2.344,18.326,18.326,0,0,0-3.261.73,3.89,3.89,0,0,0-2.878,3.952,2.158,2.158,0,0,1-1.562,2.37,8.1,8.1,0,0,0-4.3,9.343,21.249,21.249,0,0,0,3.546,7.439,20.013,20.013,0,0,1,3.008,5.6c.059.172.033.439.366.435.479-.272.611-.825.9-1.256.443-.662.847-1.35,1.3-2.008a.75.75,0,0,1,.982-.305,2.681,2.681,0,0,1,.753,1.18c.21.406.155.98.786,1.22a26,26,0,0,0,2.97-5.656,5.537,5.537,0,0,1-1.174-2.728,8.362,8.362,0,0,1,.9-4.947,5.024,5.024,0,0,1,1.218-1.448,2.166,2.166,0,0,1,2.668-.124c.39.241.748.53,1.145.814a14.36,14.36,0,0,0-.077-4.85,2.583,2.583,0,0,1,.6-.406c.45-.155.925-.236,1.388-.36,3.182-.85,6.366-1.693,9.542-2.558a17.781,17.781,0,0,0,3.983-1.607,4.54,4.54,0,0,0,1.964-1.814,2.963,2.963,0,0,0,.179-.812,2.136,2.136,0,0,0-1.8-.719c-.466-.02-.973.073-1.377-.488a3.642,3.642,0,0,1,.342-.755c.444-.594,1-1.114,1.384-1.743.794-1.309.358-2.379-1.125-2.824a6.327,6.327,0,0,0-1.728-.24c-.8-.009-1.591.082-2.386.124A.657.657,0,0,1,181.848,132.663Zm11.164,78.376a3.218,3.218,0,0,0-.547.342,65.526,65.526,0,0,1-7.811,7.039,4.968,4.968,0,0,0-.53.578c.181.346.313.633.475.9,1.668,2.718,3.33,5.437,5.014,8.145a30.088,30.088,0,0,0,4.855,5.892,12.727,12.727,0,0,0,5.305,3.122,4.88,4.88,0,0,0,3.433-.155,7.065,7.065,0,0,0,3.95-3.95c.3-.794.545-1.607.783-2.425a84.176,84.176,0,0,0,2.176-9.958q1.015-6.21,1.8-12.457a54.763,54.763,0,0,0,.479-7.953c-.011-.465-.055-.931-.086-1.432a9.4,9.4,0,0,0-2.888-.309c-1-.1-2.017-.084-3.027-.1a6.375,6.375,0,0,0-2.827.338c-.062.293-.135.545-.17.8-.208,1.527-.4,3.054-.609,4.581-.227,1.684-.47,3.369-.689,5.053q-.431,3.319-.834,6.64a25.18,25.18,0,0,0-.4,5.285c.335.5.689,1.026,1.046,1.553.327.483.666.96.977,1.456a1.615,1.615,0,0,1,.091.51c-.185.155-.377.318-.607.516a5.025,5.025,0,0,1-.777-.629,14.3,14.3,0,0,1-1.031-1.417q-2.787-4.367-5.552-8.749C194.36,213.234,193.727,212.194,193.012,211.04Zm-74.3-1.981c1.545-.995,2.93-1.873,4.3-2.774s2.78-1.741,4.153-2.741c-1.094-1.681-2.184-3.248-3.16-4.883-1.006-1.677-1.9-3.422-2.878-5.2a7.105,7.105,0,0,0-.737.362c-2.99,1.929-5.995,3.839-8.952,5.815a19.471,19.471,0,0,0-2.694,2.227,4.427,4.427,0,0,0-1.123,5.373c.519,1.161,1.03,2.333,1.651,3.44,1.767,3.151,3.5,6.326,5.409,9.385,2.928,4.683,5.993,9.281,9.008,13.909a7.938,7.938,0,0,0,.671.794,19.675,19.675,0,0,0,6.852-4.455C127.141,223.267,123.226,216.1,118.716,209.059Zm51.234-41.032a4.358,4.358,0,0,1,1.838.046,8.446,8.446,0,0,0,1.578.035,7.15,7.15,0,0,0,4.855-2.76,11.4,11.4,0,0,0,2.2-4.383,18.774,18.774,0,0,0-1.71-13.889c-.073-.141-.172-.267-.282-.435l-5.312,1.342a11.493,11.493,0,0,0-.022,2.93,22.446,22.446,0,0,1-.393,5.071,5.7,5.7,0,0,1-.346.931c-.5.23-.83.207-1.086-.315a8.88,8.88,0,0,0,.108-1.167,3.615,3.615,0,0,0-1.022-2.756,1.279,1.279,0,0,0-1.971.015,3.348,3.348,0,0,0-.66.887,7.422,7.422,0,0,0-.737,4.181,2.724,2.724,0,0,0,1.75,2.452,3.781,3.781,0,0,1,.571.269c.084.049.13.163.254.327-.064.174-.146.4-.232.629H168c-.311.657-.576,1.295-.909,1.9q-1.078,1.95-2.216,3.864a1.38,1.38,0,0,1-1.238.847c-.828-.068-.691-1.1-1.392-1.434a56.626,56.626,0,0,0-1.364,5.636c-.013.079.09.174.13.247a37.61,37.61,0,0,1,3.789.238,37.564,37.564,0,0,1,3.705.951C169.215,171.8,169.05,169.745,169.95,168.028Zm-49.3,41.406c.112.208.221.443.353.664,2.032,3.433,4.082,6.854,6.1,10.3,2.039,3.489,4.04,7,6.073,10.5.2.347.3.819.878.933,1.45-8.815,3.178-17.569,4.947-26.316.018-.088-.055-.194-.117-.4a7.212,7.212,0,0,0-.8.411q-2.381,1.607-4.744,3.235a1.163,1.163,0,0,1-1.17.287c-1.083-1.181-2.26-2.474-3.451-3.756a10.071,10.071,0,0,0-.774-.686A59.838,59.838,0,0,0,120.651,209.434ZM139.412,383.24a6.6,6.6,0,0,0-.646-5.241,9.442,9.442,0,0,0-2.5-2.862,14.969,14.969,0,0,0-5.227-2.635,7.382,7.382,0,0,0-2.026-.322c-2.974.026-5.947.1-8.921.181-.576.015-1.15.119-1.646.172-.124.2-.216.28-.232.375q-.806,4.787-1.6,9.577a.3.3,0,0,0,.015.157c.022.042.073.073.2.192,5.519.364,11.141.258,16.753.4C135.486,383.277,137.393,383.32,139.412,383.24Zm42.763-.371c.7,0,1.223,0,1.752,0q6.142-.019,12.286-.038c3.3-.007,6.6,0,9.893-.009.408,0,.816-.071,1.236-.11a3.981,3.981,0,0,0-.839-2.465,13.5,13.5,0,0,0-2.747-3.087,22.806,22.806,0,0,0-10.678-4.552,26.7,26.7,0,0,1-10.671,1.873,2.137,2.137,0,0,0-.594.181C182.009,377.366,181.919,380.018,182.175,382.869Zm30.213-202.921a8.047,8.047,0,0,0,1.5-.8c1.714-1.426,3.39-2.9,5.064-4.374a2.388,2.388,0,0,0,.977-1.306,1.642,1.642,0,0,0-.6-.053,9.593,9.593,0,0,0-1.637.607,54.008,54.008,0,0,0-9.3,5.832c-.452.369-.889.759-1.3,1.172a4.746,4.746,0,0,0-1.445,2.771c-.225,1.629-.494,3.253-.724,4.883-.3,2.156-.593,4.312-.883,6.468-.075.565-.132,1.13-.2,1.686a39.656,39.656,0,0,0,6.9.038,8.692,8.692,0,0,0,.316-2.981,3.537,3.537,0,0,1,1.584-3.113,9.717,9.717,0,0,0,1.216-1.024c.94-.936,1.88-1.875,2.769-2.858a4.477,4.477,0,0,0,1.125-1.992,2.356,2.356,0,0,0-1.143-1.565c-1.05-.721-2.131-1.4-3.2-2.079-.267-.17-.576-.276-.832-.461A.617.617,0,0,1,212.388,179.948ZM192.05,371.214c-.08-1.673-.071-3.425-.28-5.152s.046-3.484-.532-5.254a46.155,46.155,0,0,0-5.285.066c-1.774.194-3.581-.055-5.322.346.395,3.932.783,7.77,1.169,11.618a3.961,3.961,0,0,0,1.748.331,29.442,29.442,0,0,0,6.9-1.077A3.027,3.027,0,0,0,192.05,371.214ZM127.779,234.766c.252.347.477.633.667.936s.355.635.536.967l-.421.905c-.443.1-.86.165-1.26.289a2.463,2.463,0,0,0-1.538,3.546c.134.272.238.56.333.79-.305.576-.728.618-1.116.36a7.051,7.051,0,0,1-1.039-.962,1.137,1.137,0,0,0-1.1-.472.891.891,0,0,0-.527.914A4.107,4.107,0,0,0,124,245.15a2.015,2.015,0,0,0,1.5.417,12.1,12.1,0,0,0,2.163-.477,29.036,29.036,0,0,0,5.64-2.933,3.576,3.576,0,0,0,.956-.832c.881-1.183,1.525-2.46.925-3.983a30.752,30.752,0,0,0-3.107-5.523,2.474,2.474,0,0,0-.525.2C130.316,232.912,129.078,233.819,127.779,234.766Zm1.463,127.394a25.744,25.744,0,0,0-3.072-.135c-1.008-.051-2.021-.106-3.028-.062a12.207,12.207,0,0,0-2.968.005,55.617,55.617,0,0,0-1.447,8.957,1.979,1.979,0,0,0,.444.091c2.816-.068,5.631-.139,8.445-.229a2.676,2.676,0,0,0,.726-.249c.165-1.43.307-2.8.485-4.17S129.156,363.652,129.242,362.16Z" transform="translate(-105.765 -122.953)" fill="#3c3372"/>
              <g id="Group_1849" data-name="Group 1849" transform="translate(18.854)">
                <path id="Path_2352" data-name="Path 2352" d="M124.672,146.137a15.471,15.471,0,0,0-6.958-5.7c.748-.631,1.4-1.094,1.937-1.655a10.15,10.15,0,0,0,1.35-1.767c.41-.673.708-1.415,1.059-2.138,1.231.9,2.4,1.8,3.626,2.624a21.584,21.584,0,0,0,4.179,1.812c-.56.6-1.031,1.075-1.472,1.584-.486.561-.964,1.136-1.406,1.73-.413.554-.774,1.147-1.161,1.717A9.6,9.6,0,0,1,124.672,146.137Z" transform="translate(-114.717 -118.297)" fill="#ffd176"/>
                <path id="Path_2353" data-name="Path 2353" d="M125.907,131.587c.49-.693.984-1.315,1.393-1.988s.732-1.39,1.106-2.116c.869.574,1.668,1.187,2.544,1.66.834.452,1.746.755,2.7,1.159-.358.847-1.077,1.434-1.494,2.213s-.847,1.551-1.324,2.423a17.978,17.978,0,0,0-1.4-1.437,10.7,10.7,0,0,0-1.714-1.148A18.635,18.635,0,0,0,125.907,131.587Z" transform="translate(-107.927 -124.424)" fill="#ffd176"/>
                <path id="Path_2354" data-name="Path 2354" d="M126.344,150.721l-1.426-1.419c.4-.5.821-1.028,1.308-1.635l1.448,1.465A9.6,9.6,0,0,1,126.344,150.721Z" transform="translate(-108.746 -107.696)" fill="#ffd176"/>
                <path id="Path_2355" data-name="Path 2355" d="M133.988,140.4a4.2,4.2,0,0,1-.62.666,17.409,17.409,0,0,0-6.631,9.083,2.21,2.21,0,0,1-.232.589c-.113.161-.3.366-.461.379a2.233,2.233,0,0,1-.737-.232c.15-2.121-1-3.555-2.377-4.863a13.366,13.366,0,0,0-5.77-3.237,6.058,6.058,0,0,1-.872-.331c-.084-.038-.128-.165-.194-.254a.87.87,0,0,1,.474-.922,2.852,2.852,0,0,1,.73-.311c3.021-.991,4.466-3.228,4.925-6.238.071-.468.086-.942.132-1.483l.865-.168c.126.146.229.212.261.3a7.76,7.76,0,0,0,2.985,3.63,13.463,13.463,0,0,0,6.424,2.577,2.342,2.342,0,0,1,.861.338C133.86,139.986,133.889,140.189,133.988,140.4Zm-7.957,7.236a9.6,9.6,0,0,0,1.152-1.794c.388-.571.748-1.163,1.161-1.717.443-.594.92-1.169,1.406-1.73.441-.508.913-.986,1.472-1.584a21.583,21.583,0,0,1-4.179-1.812c-1.222-.827-2.4-1.728-3.626-2.624-.351.722-.649,1.465-1.059,2.138a10.15,10.15,0,0,1-1.35,1.767c-.541.561-1.189,1.024-1.937,1.655A15.471,15.471,0,0,1,126.031,147.632Z" transform="translate(-116.075 -119.791)" fill="#3c3372"/>
                <path id="Path_2356" data-name="Path 2356" d="M132.771,139.363l-.507.307a.878.878,0,0,1-.808-.715,8.138,8.138,0,0,0-.369-1.211,5.736,5.736,0,0,0-4.678-3.376c-.419-.062-.85-.033-1.267-.1a.772.772,0,0,1-.708-.739c.044-.492.441-.693.786-.929a7.63,7.63,0,0,0,2.535-3.006,4.814,4.814,0,0,0,.613-2.91,2.039,2.039,0,0,1,.13-.691.776.776,0,0,1,1.077.075.882.882,0,0,1,.192.251c1.167,2.445,3.352,3.409,5.8,4,.512.123,1.022.249,1.587.386.077.309.152.6.236.935A11.373,11.373,0,0,0,132.771,139.363Zm-5.643-6.39a18.635,18.635,0,0,1,1.821.766,10.7,10.7,0,0,1,1.714,1.148,17.978,17.978,0,0,1,1.4,1.437c.477-.872.907-1.644,1.324-2.423s1.136-1.366,1.494-2.213c-.958-.4-1.871-.708-2.7-1.159-.876-.474-1.675-1.086-2.544-1.661-.375.726-.7,1.447-1.106,2.116S127.618,132.28,127.128,132.973Z" transform="translate(-109.147 -125.81)" fill="#3c3372"/>
                <path id="Path_2357" data-name="Path 2357" d="M123.557,149.955c.322-.117.565-.212.812-.3a3.037,3.037,0,0,0,1.864-1.829,5.532,5.532,0,0,1,.475-.995,3.112,3.112,0,0,1,.673-.538c.3.262.686.443.808.735a5.694,5.694,0,0,0,2.222,2.617.71.71,0,0,1,.115.108.792.792,0,0,1,.013,1.137,2.517,2.517,0,0,1-.368.3,6.421,6.421,0,0,0-2.045,2.385c-.1.187-.225.355-.377.591l-.812.044c-.135-.15-.245-.216-.271-.307a3.564,3.564,0,0,0-2.611-2.719,1.476,1.476,0,0,1-.41-.238C123.489,150.841,123.471,150.672,123.557,149.955Zm3.957,1.9a9.6,9.6,0,0,0,1.33-1.589L127.4,148.8c-.486.607-.907,1.136-1.308,1.635Z" transform="translate(-109.916 -108.831)" fill="#3c3372"/>
              </g>
              <path id="Path_2358" data-name="Path 2358" d="M144.258,214.759c-.24.208-.457.4-.635.558-.646-.192-.774-.666-.931-1.116-.519-1.507-1.046-3.01-1.567-4.515q-1.459-4.211-2.911-8.427c-.17-.5-.307-1-.468-1.529l.673-.589a4.269,4.269,0,0,1,.625.529,2.032,2.032,0,0,1,.234.587q2.373,6.844,4.742,13.692C144.106,214.2,144.169,214.45,144.258,214.759Z" transform="translate(-79.261 -65.037)" fill="#3c3372"/>
            </g>
          </g>
          <g id="Group_1853" data-name="Group 1853" transform="translate(99.628 170.468)">
            <path id="Path_2359" data-name="Path 2359" d="M220.444,276.336a4.786,4.786,0,0,1-4.427-2.63,5.987,5.987,0,0,1,.322-6.631,4.875,4.875,0,0,1,4.786-2.277,4.962,4.962,0,0,1,4.129,3.1,6.188,6.188,0,0,1-1.346,7.05A4.894,4.894,0,0,1,220.444,276.336Zm3.943-5.777a4.233,4.233,0,0,0-1.028-3.1,3.45,3.45,0,0,0-4.016-1.077,4.655,4.655,0,0,0-.512,8.207,3.244,3.244,0,0,0,3.341-.079A4.389,4.389,0,0,0,224.387,270.559Z" transform="translate(-114.726 -172.651)" fill="#3c3372"/>
            <path id="Path_2360" data-name="Path 2360" d="M191.617,276.686a4.926,4.926,0,0,1-4.517-2.465,6.282,6.282,0,0,1,.5-7.167,5.034,5.034,0,0,1,8.432.752,6.235,6.235,0,0,1-1.106,7.481A4.775,4.775,0,0,1,191.617,276.686Zm3.8-6.43a3.949,3.949,0,0,0-1.286-2.674,3.322,3.322,0,0,0-3.795-.841,4.653,4.653,0,0,0-.5,8.206,3.244,3.244,0,0,0,3.341-.084C194.682,273.981,195.351,272.611,195.42,270.256Z" transform="translate(-138.728 -172.364)" fill="#3c3372"/>
            <path id="Path_2361" data-name="Path 2361" d="M187.157,230.208c-.11-1.975.477-12.161.77-13.461.909-.064,1.851-.166,2.8-.19,3.614-.084,7.229-.134,10.843-.216q6.219-.145,12.434-.329c3.294-.1,6.585-.216,9.881-.309,4.089-.119,8.18-.216,12.271-.338.956-.027,1.909-.128,2.864-.17a6.714,6.714,0,0,1,.925.077,2.517,2.517,0,0,1,.037.547c-.419,2.246-.5,4.541-1.052,6.768a44.242,44.242,0,0,0-.922,6.139c-.037.364-.128.722-.19,1.052a2.971,2.971,0,0,1-1.761.249c-4.042.026-8.081.022-12.123.038q-17.465.069-34.933.144C188.417,230.21,187.839,230.208,187.157,230.208Z" transform="translate(-137.951 -213.734)" fill="#d1a76b"/>
            <path id="Path_2362" data-name="Path 2362" d="M217.279,217.961c4.46-.324,8.955-.393,13.341-.305a.68.68,0,0,1,.256.823c-.735,2.88-1.229,5.823-2.218,8.639-.069.2-.155.389-.223.556-1.066.293-5.605.415-11.475.313a11.83,11.83,0,0,1-1.205-.134A48.5,48.5,0,0,1,217.279,217.961Z" transform="translate(-114.241 -211.721)" fill="#ffd176"/>
            <path id="Path_2363" data-name="Path 2363" d="M184.19,218.755a12.858,12.858,0,0,1-1.379.384,66.143,66.143,0,0,1-6.8.781c-2.169.132-4.327.433-6.492.635-1.9.176-3.806.347-5.711.454a7.345,7.345,0,0,1-1.876-.252,1.286,1.286,0,0,1-.863-.869.908.908,0,0,1,.315-1.128,1.975,1.975,0,0,1,.41-.241,24.955,24.955,0,0,1,7.326-2.048c.9-.071,1.787-.254,2.685-.342,1.319-.126,2.641-.272,3.963-.294,1.964-.037,3.93.031,5.892.055a3.12,3.12,0,0,1,2.28.978A1.407,1.407,0,0,1,184.19,218.755Z" transform="translate(-159.625 -213.211)" fill="#b57341"/>
            <path id="Path_2364" data-name="Path 2364" d="M223.338,217.241l-1.241,11.27-6.343-.343,1.524-9.892Z" transform="translate(-114.24 -212.036)" opacity="0.1"/>
            <path id="Path_2365" data-name="Path 2365" d="M188.112,220.929l52.656-1.632-1.261,8.647L186.2,226.789Z" transform="translate(-138.733 -210.331)" opacity="0.1"/>
            <g id="Group_1852" data-name="Group 1852">
              <path id="Path_2366" data-name="Path 2366" d="M223.735,269.945a4.389,4.389,0,0,1-2.215,3.954,3.244,3.244,0,0,1-3.341.079,4.655,4.655,0,0,1,.512-8.207,3.45,3.45,0,0,1,4.016,1.077A4.233,4.233,0,0,1,223.735,269.945Zm-2.61-.177c.005-.631-.3-1.041-.763-1.1a1.3,1.3,0,0,0-1.375.83,1.172,1.172,0,0,0,.763,1.512,1.127,1.127,0,0,0,1.319-.841A3.085,3.085,0,0,0,221.126,269.767Z" transform="translate(-114.075 -172.036)" fill="#634bbf"/>
              <path id="Path_2367" data-name="Path 2367" d="M194.786,269.641c-.069,2.355-.739,3.725-2.244,4.607a3.244,3.244,0,0,1-3.341.084,4.653,4.653,0,0,1,.5-8.206,3.322,3.322,0,0,1,3.795.841A3.949,3.949,0,0,1,194.786,269.641Zm-2.7.592a1.433,1.433,0,0,0-1.112-1.364,1.259,1.259,0,0,0-1.355,1.244,1.163,1.163,0,0,0,.958,1.267A1.487,1.487,0,0,0,192.091,270.233Z" transform="translate(-138.093 -171.749)" fill="#634bbf"/>
              <path id="Path_2368" data-name="Path 2368" d="M210.2,305.436a3.113,3.113,0,0,1-.66-1.6c-1.28-5.214-2.535-10.433-3.833-15.645-1.851-7.427-3.539-14.9-5.649-22.258-.658-2.3-1.159-4.643-1.787-6.951-1.048-3.846-2.143-7.679-3.211-11.521q-1.879-6.762-3.747-13.525c-.936-3.381-1.867-6.764-2.816-10.142a19.55,19.55,0,0,0-.726-2.11A2.5,2.5,0,0,0,186.7,220.2c-.091.026-.163.02-.19.053a5.381,5.381,0,0,1-3.721,1.573c-2.37.311-4.744.605-7.139.708-1.43.062-2.853.305-4.279.459a57.642,57.642,0,0,1-7.637.5,7.611,7.611,0,0,1-1.714-.285,2.292,2.292,0,0,1-1.326-1.088,2.357,2.357,0,0,1,1.044-3.6,33.616,33.616,0,0,1,3.736-1.377,22.118,22.118,0,0,1,3.423-.735c2.37-.311,4.747-.62,7.132-.763,1.96-.117,3.935-.02,5.9.026a4.6,4.6,0,0,1,3.246,1.11c.49.474.885,1.041,1.481,1.756a4.55,4.55,0,0,1,2.626,3.3c.686,2.235,1.3,4.491,1.944,6.741.132.459.225.931.369,1.386.258.819.485,1,1.386,1.011,1.117.016,2.235-.015,3.352-.02q4.551-.027,9.1-.053c.739,0,1.479-.029,2.277-.048a5.95,5.95,0,0,0,.236-.958c.232-3.5.441-7,.678-10.508.062-.894.207-1.787.3-2.549a1.455,1.455,0,0,1,1.346-.649c2.233-.1,4.462-.238,6.7-.313,4.2-.139,8.4-.23,12.6-.368,4.786-.155,9.568-.353,14.354-.512,4.733-.157,9.464-.285,14.2-.432,1.383-.044,2.765-.112,4.148-.163a1.341,1.341,0,0,1,1.322.468c-.121,1.384-.243,2.8-.373,4.3a3.511,3.511,0,0,0,.929.154c2.807-.353,5.633-.241,8.449-.344,1.222-.044,2.445-.09,3.668-.119a4.767,4.767,0,0,1,2.006.276.925.925,0,0,1,.368,1.009q-1.051,4.334-2.1,8.672c-.124.512-.287,1.013-.459,1.617a8.075,8.075,0,0,0,.993.13c1.543.005,3.087-.007,4.629-.015a1.021,1.021,0,0,1,1.112.583,9.155,9.155,0,0,1-.7,2.182q-8.452,18.417-16.887,36.836c-.263.574-.561,1.132-.852,1.712-.435.046-.8.108-1.163.115-2.447.042-4.894.066-7.341.11q-6.784.123-13.564.261-9.173.187-18.35.384-7.659.156-15.318.311c-1.383.029-2.765.09-4.146.146-.26.011-.516.071-.87.124a4.456,4.456,0,0,0,.241,1.554q1.432,5.889,2.873,11.775,1.882,7.746,3.758,15.5c.163.667.377,1.324.55,1.931a2.833,2.833,0,0,0,1.637.208c4.362-.086,8.721-.2,13.083-.282,2.235-.044,4.469-.044,6.7-.086q7.977-.148,15.956-.318t15.956-.318a6.537,6.537,0,0,1,1.271.042c.221.042.41.276.574.4-.02.53-.265.772-.684.827a8.773,8.773,0,0,1-.956.048q-7.5.154-15,.305c-2.074.04-4.149.049-6.225.09q-7.9.154-15.8.318t-15.795.316A3.063,3.063,0,0,1,210.2,305.436Zm-.75-74.567c.682,0,1.26,0,1.84,0q17.465-.071,34.933-.144c4.041-.016,8.081-.013,12.123-.038a2.971,2.971,0,0,0,1.761-.249c.062-.329.154-.688.19-1.052a44.238,44.238,0,0,1,.922-6.139c.549-2.227.633-4.522,1.052-6.768a2.519,2.519,0,0,0-.037-.547,6.718,6.718,0,0,0-.925-.077c-.955.042-1.907.143-2.864.17-4.091.123-8.182.219-12.271.338-3.3.093-6.587.214-9.881.309q-6.219.176-12.434.329c-3.614.082-7.229.132-10.843.216-.945.024-1.887.126-2.8.19C209.927,218.708,209.34,228.894,209.45,230.869Zm63.229,19.772c2.734-5.976,5.5-12.015,8.253-18.057a1.537,1.537,0,0,0,.059-.444c-.426-.4-.925-.26-1.381-.256-2.816.022-5.634.071-8.451.1-1.6.015-3.193,0-4.788.015a8.183,8.183,0,0,0-.971.135c-.271,6.031-.371,11.973-.441,17.918a2.542,2.542,0,0,0,.121.583A36,36,0,0,0,272.679,250.641Zm-28.611.026a77.545,77.545,0,0,0,8.7.144,3.917,3.917,0,0,0,.7-.2c.055-2.083.108-4.146.124-6.209.015-2.021.06-4.042.029-6.062-.029-2.056.152-4.115.007-6.291-1.2-.016-2.3,0-3.411.005-1.062,0-2.127-.018-3.189.017a14.518,14.518,0,0,0-3.268.139C243.51,234.076,243.764,249,244.068,250.667Zm-31.454,1.681a1.718,1.718,0,0,0-.4-.128q-4.065-.014-8.132-.006a2.318,2.318,0,0,0-.64.218c0,.567,0,1.094,0,1.62.016,3.242.04,6.485.051,9.727.007,2.235,0,4.468.007,6.7a1.6,1.6,0,0,0,.335,1.3c1.394.093,2.875-.031,4.354-.057a24.228,24.228,0,0,0,4.471-.159c.035-.426.086-.786.093-1.147C212.893,262.457,212.829,253.924,212.614,252.347Zm40.627,18.295c.018-.922.042-1.767.049-2.61.029-3.242.046-6.485.086-9.729.018-1.646.086-3.294.106-4.943a8.174,8.174,0,0,0-.157-1.161c-1.607,0-3.144-.031-4.682,0a30.982,30.982,0,0,0-4.627.124,8.165,8.165,0,0,0-.08.845q.129,8.528.274,17.06a2.976,2.976,0,0,0,.174.689A67.328,67.328,0,0,0,253.241,270.642Zm-10.556.307c.035-.441.088-.8.086-1.165q-.066-7.961-.15-15.923a2.778,2.778,0,0,0-.291-1.586,6.023,6.023,0,0,0-.753-.08q-3.742.008-7.483.04c-.09,0-.179.093-.269.144-.044.091-.123.183-.124.276q-.143,8.435-.271,16.874c-.007.424.022.849.04,1.273,0,.044.046.09.073.134s.066.084.1.124A74.7,74.7,0,0,0,242.686,270.949Zm-29.957-20.361c.011-.5.029-1.024.033-1.549.015-1.97.031-3.937.037-5.907q.016-4.949.011-9.9a6.4,6.4,0,0,0-.157-.971,22.369,22.369,0,0,0-3.074-.071c-1.011-.007-2.028-.048-3.032.04a21.058,21.058,0,0,0-2.97.177,2.275,2.275,0,0,0-.161.536q.014,8.619.046,17.238a1.9,1.9,0,0,0,.141.483,2.668,2.668,0,0,0,.605.143q3.991,0,7.979-.02A2.014,2.014,0,0,0,212.729,250.588ZM232.035,271c.024-.432.069-.9.075-1.368.016-1.383.016-2.765.027-4.148.029-4.095.066-8.189.088-12.284a6.211,6.211,0,0,0-.152-.971c-1.452-.068-2.829-.059-4.2-.027a21.365,21.365,0,0,0-4.3.146c-.031.377-.071.688-.077,1-.062,3.03-.135,6.06-.174,9.091-.031,2.553-.026,5.106-.026,7.659,0,.413-.09.86.26,1.2A34.177,34.177,0,0,0,232.035,271Zm-8.5-20.348a44.277,44.277,0,0,0,8.7-.04c.057-1.5.133-3.03.168-4.561s.027-3.078.037-4.618.011-3.08.02-4.618a25.927,25.927,0,0,0-.079-4.634,27.573,27.573,0,0,0-2.911-.064c-.956-.007-1.913-.018-2.867.007a12.52,12.52,0,0,0-2.889.134c-.21,2.293-.088,4.517-.124,6.732C223.517,242.854,223.445,246.722,223.531,250.648Zm31.323.024a12.955,12.955,0,0,0,3.028.161c.9.022,1.8.035,2.707,0a7.636,7.636,0,0,0,2.862-.218c.472-5.995.232-11.995.54-17.978a1.709,1.709,0,0,0-.159-.5,11.055,11.055,0,0,0-2.814-.123c-1.008-.026-2.017-.033-3.025.007a7.741,7.741,0,0,0-2.835.2C254.929,238.367,254.863,244.454,254.854,250.672Zm-20.828-18.514c-.3,1.657-.422,16.821-.174,18.5a2.3,2.3,0,0,0,.578.154q3.747.005,7.492-.02a1.266,1.266,0,0,0,.413-.154,1.158,1.158,0,0,0,.115-.327q-.069-8.608-.154-17.218a4.867,4.867,0,0,0-.194-.934Zm20.809,20.208c-.016.607-.038,1.134-.048,1.657q-.1,5.574-.185,11.148-.033,2.31-.015,4.619a5.523,5.523,0,0,0,.2.975c2.549,0,5.038.049,7.527-.13a3.429,3.429,0,0,0,.759-.24c.027-.583.064-1.11.077-1.637.051-2.441.091-4.883.146-7.324.064-2.761.144-5.519.2-8.279a4.07,4.07,0,0,0-.163-.858A61.1,61.1,0,0,0,254.836,252.366Zm-32.786-1.617c.06-.523.13-.885.141-1.249.022-.8.013-1.593.018-2.39q.052-6.7.1-13.388c0-.507.183-1.066-.344-1.589-2.366,0-4.8-.031-7.24.091-.133.007-.263.146-.377.212-.2,1.779-.21,16.91-.013,18.165.088.055.176.159.263.161,2.019.031,4.034.059,6.051.071C221.064,250.837,221.481,250.784,222.05,250.749Zm-.188,20.648c.049-.4.093-.607.1-.812q.066-8.767.117-17.534a5.242,5.242,0,0,0-.133-.816c-1.35-.09-2.617-.062-3.882-.037a15.662,15.662,0,0,0-3.758.152,3.228,3.228,0,0,0-.1.53q-.036,9.008-.053,18.011a2.8,2.8,0,0,0,.214.726C216.876,271.516,219.312,271.617,221.862,271.4Zm41.421-50.762a48.5,48.5,0,0,0-1.525,9.892,11.83,11.83,0,0,0,1.205.134c5.87.1,10.409-.02,11.475-.313.068-.166.154-.358.223-.556.989-2.816,1.483-5.759,2.218-8.639a.68.68,0,0,0-.256-.823C272.238,220.242,267.743,220.311,263.283,220.635Zm-70.857,11.854c.082.47.121.889.23,1.287q2.181,7.834,4.38,15.66c.126.446.324.872.466,1.255a9.7,9.7,0,0,0,4.532-.166c.024-.346.068-.713.071-1.081.009-1.064,0-2.127,0-3.191,0-4.1,0-8.191-.015-12.287,0-.514.148-1.07-.249-1.512-1.046-.157-6.86-.243-8.769-.123A4.12,4.12,0,0,0,192.426,232.489Zm-7.617-12.551a1.407,1.407,0,0,0-.249-1.889,3.119,3.119,0,0,0-2.28-.978c-1.962-.024-3.928-.091-5.892-.055-1.322.022-2.644.168-3.963.294-.9.088-1.787.271-2.685.342a24.955,24.955,0,0,0-7.326,2.048,1.975,1.975,0,0,0-.41.241.908.908,0,0,0-.315,1.128,1.286,1.286,0,0,0,.863.869,7.345,7.345,0,0,0,1.876.252c1.906-.106,3.809-.278,5.711-.454,2.165-.2,4.323-.5,6.492-.635a66.125,66.125,0,0,0,6.8-.781A12.859,12.859,0,0,0,184.809,219.938Zm79.73,47.626.3.038c.21-.415.435-.823.629-1.247q2.924-6.359,5.832-12.728c.187-.406.518-.8.366-1.3a32.761,32.761,0,0,0-6.649.037c-.049.093-.139.183-.141.276q-.2,7-.377,14C264.49,266.946,264.524,267.255,264.539,267.564Zm-66.586-15.254c.091.486.128.8.207,1.1.653,2.462,1.318,4.916,1.97,7.375.475,1.8.922,3.6,1.41,5.388.093.34.079.79.664.955-.04-4.808-.079-9.581-.126-14.352a1.725,1.725,0,0,0-.181-.486A15.414,15.414,0,0,0,197.953,252.311Z" transform="translate(-160.244 -214.395)" fill="#3c3372"/>
              <path id="Path_2369" data-name="Path 2369" d="M219.781,268.337a3.078,3.078,0,0,1-.057.406,1.127,1.127,0,0,1-1.319.841,1.172,1.172,0,0,1-.763-1.512,1.3,1.3,0,0,1,1.375-.83C219.483,267.3,219.787,267.706,219.781,268.337Z" transform="translate(-112.731 -170.606)" fill="#3c3372"/>
              <path id="Path_2370" data-name="Path 2370" d="M190.89,268.872a1.487,1.487,0,0,1-1.509,1.147,1.163,1.163,0,0,1-.958-1.267,1.259,1.259,0,0,1,1.355-1.244A1.433,1.433,0,0,1,190.89,268.872Z" transform="translate(-136.893 -170.388)" fill="#3c3372"/>
            </g>
          </g>
        </g>
        <path id="Path_2371" data-name="Path 2371" d="M148.693,132.572a1.36,1.36,0,0,0-.861.4,15.536,15.536,0,0,1-4.065,1.152,3.174,3.174,0,0,0-2.611,1.287,2.074,2.074,0,0,0,.093,2.253c.689.936,2.085.969,3.155.973,1.962,0,4.817-.494,6.1-2.173C151.654,134.958,150.822,132.4,148.693,132.572Z" transform="translate(29.091 9.435)" fill="#f5f5f5"/>
        <path id="Path_2372" data-name="Path 2372" d="M140.209,135.611a.767.767,0,0,0-1.075-.123,1.257,1.257,0,0,0-.947,2.2C139.56,138.844,141.246,136.953,140.209,135.611Z" transform="translate(26.479 11.723)" fill="#f5f5f5"/>
        <path id="Path_2373" data-name="Path 2373" d="M167.132,160.372a5.6,5.6,0,0,0-1.207-2.436,1.8,1.8,0,0,0-.889-.377.676.676,0,0,0-.836-.159,8.862,8.862,0,0,0-2.886,2.341.707.707,0,0,0,.492,1.189q2.326.159,4.656.322A.7.7,0,0,0,167.132,160.372Z" transform="translate(45.885 29.951)" fill="#f5f5f5"/>
        <path id="Path_2374" data-name="Path 2374" d="M118.012,189.374l-.176.347c-.406.8.794,1.5,1.2.7l.176-.346C119.619,189.281,118.42,188.575,118.012,189.374Z" transform="translate(9.935 56.225)" fill="#f5f5f5"/>
        <path id="Path_2375" data-name="Path 2375" d="M194.461,158.347c-.32-2.425-2.244-2.915-3.528-1.756a1.33,1.33,0,0,0-.711.973,4.183,4.183,0,0,0-.271.7,1.26,1.26,0,0,0,.106.98c-.232,2.86-.51,5.729-.613,8.591-.075,2.094.393,3.87,2.341,4.914a1.421,1.421,0,0,0,1.688-.219c1.233-1.448.993-3.094,1-4.928C194.475,164.6,194.85,161.319,194.461,158.347Z" transform="translate(69.343 28.851)" fill="#f5f5f5"/>
        <path id="Path_2376" data-name="Path 2376" d="M194.4,144.319a1.444,1.444,0,0,0-1.229-1.357,1.37,1.37,0,0,0-2.366.55,2.424,2.424,0,0,0,1.618,3.107,1.416,1.416,0,0,0,1.571-.64A2.614,2.614,0,0,0,194.4,144.319Z" transform="translate(70.343 17.659)" fill="#f5f5f5"/>
        <path id="Path_2377" data-name="Path 2377" d="M191.906,147.8a1.526,1.526,0,0,0-1.09.532,1.167,1.167,0,0,0-.527,1.09l.055,1.05a1.4,1.4,0,0,0,2.734.371,3.411,3.411,0,0,0,.221-1.65A1.436,1.436,0,0,0,191.906,147.8Z" transform="translate(70.047 22.062)" fill="#f5f5f5"/>
        <path id="Path_2378" data-name="Path 2378" d="M163.539,168.932a1.283,1.283,0,0,0-1.906-.43,1.27,1.27,0,0,0-1.673.931,8.674,8.674,0,0,0-.046,3.943,1.411,1.411,0,0,0,2.044.832A3.855,3.855,0,0,0,163.539,168.932Z" transform="translate(44.707 39.012)" fill="#f5f5f5"/>
        <path id="Path_2379" data-name="Path 2379" d="M116.5,166.731a1.287,1.287,0,0,0-.432-.057c-3.454.249-4.665,3.273-7.1,5.194a1.4,1.4,0,0,0,0,1.968c1.375,1.218,2.851.538,4.106-.507,1.8-1.5,3.542-3.056,5.311-4.583C119.712,167.6,117.843,165.71,116.5,166.731Z" transform="translate(2.316 37.508)" fill="#f5f5f5"/>
      </g>
    </g>
  </g>
</svg>
