<svg xmlns="http://www.w3.org/2000/svg" xmlns:xlink="http://www.w3.org/1999/xlink" width="334" height="282.78" viewBox="0 0 334 282.78">
  <defs>
    <clipPath id="clip-path">
      <path id="Path_2268" data-name="Path 2268" d="M618.721,230.743s0,13.52,1.2,15.979c0,0-8.811,4.717-9.6,0l.6-13.521Z" transform="translate(-610.32 -230.743)" fill="none"/>
    </clipPath>
    <clipPath id="clip-path-2">
      <path id="Path_2271" data-name="Path 2271" d="M599.6,226.179c0,6.627,2,12,7.729,12s13.018-5.373,13.018-12-3.661-12.814-13.018-12C601.626,214.674,599.6,219.55,599.6,226.179Z" transform="translate(-599.604 -214.105)" fill="none"/>
    </clipPath>
    <clipPath id="clip-path-3">
      <path id="Path_2291" data-name="Path 2291" d="M428.491,194.58H383.961l3.258-49.146H424.69Z" transform="translate(-383.961 -145.433)" fill="none"/>
    </clipPath>
    <clipPath id="clip-path-4">
      <path id="Path_2298" data-name="Path 2298" d="M510.065,216.141s-9.446-6.361-12.916-5.012-10.024,7.711-12.53,9.253-2.891,6.362,1.735,7.519,21.2,1.156,25.639-1.735,19.663-10.217,24.675-11.181,2.891-6.554,1.542-9.253a37.805,37.805,0,0,1-1.928-4.433S515.077,217.1,510.065,216.141Z" transform="translate(-482.787 -201.298)" fill="#ea4477"/>
    </clipPath>
  </defs>
  <g id="Group_52822" data-name="Group 52822" transform="translate(-21 -123.211)">
    <g id="on_boarding_image_one" transform="translate(-270.151 28.285)">
      <g id="Group_1799" data-name="Group 1799" transform="translate(291.151 94.926)">
        <path id="Path_2246" data-name="Path 2246" d="M535.241,130.075c-82.715-15.881-155.676-5.815-177.865,30.659-30.652,50.388-.237,66.606-4.548,95.151-3.418,22.624-43.212,72.685,9.913,99.747,54.931,27.982,197.864,7.34,200.527-40.542,4.365-78.468,24.961-44.911,44.779-83.785C632.84,182.672,599.945,142.5,535.241,130.075Z" transform="translate(-296.419 -98.251)" fill="#fff" opacity="0.3"/>
        <circle id="Ellipse_4" data-name="Ellipse 4" cx="70.306" cy="70.306" r="70.306" transform="translate(188.901 7.243)" fill="#fff"/>
        <path id="Path_2247" data-name="Path 2247" d="M628.09,214.419c9.662-40.711-21.94-73.086-77.611-84.007-10.256-2.012-20.357-3.606-30.226-4.784a70.293,70.293,0,1,0,107.836,88.79Z" transform="translate(-309.927 -98.589)" fill="#d8d8d8"/>
        <circle id="Ellipse_5" data-name="Ellipse 5" cx="41.073" cy="41.073" r="41.073" transform="translate(0 186.233)" fill="#ffd176"/>
        <path id="Path_2248" data-name="Path 2248" d="M342.306,306.715c-8.882,23.739-15.311,52.557,19.849,70.858.69.359,1.4.705,2.122,1.049a41.057,41.057,0,0,0-21.971-71.907Z" transform="translate(-296.42 -120.192)" fill="#eda021"/>
        <circle id="Ellipse_6" data-name="Ellipse 6" cx="8.103" cy="8.103" r="8.103" transform="translate(43.523 32.268)" fill="#ffd176"/>
        <circle id="Ellipse_7" data-name="Ellipse 7" cx="16.565" cy="16.565" r="16.565" transform="translate(141.416 23.427) rotate(-45)" fill="#ffd176"/>
        <path id="Path_2249" data-name="Path 2249" d="M489.229,123.132a285.347,285.347,0,0,0-32.961.314,16.559,16.559,0,0,0,32.961-.314Z" transform="translate(-307.892 -98.252)" fill="#eda021"/>
        <path id="Path_2250" data-name="Path 2250" d="M338.591,282.555a4.886,4.886,0,1,1-4.886-4.886A4.885,4.885,0,0,1,338.591,282.555Z" transform="translate(-295.645 -116.727)" fill="#ffd176"/>
        <circle id="Ellipse_8" data-name="Ellipse 8" cx="3.43" cy="3.43" r="3.43" transform="translate(30.8 81.649)" fill="#ffd176"/>
        <path id="Path_2251" data-name="Path 2251" d="M662.653,242.23a3.43,3.43,0,1,1-3.43-3.43A3.43,3.43,0,0,1,662.653,242.23Z" transform="translate(-328.653 -112.09)" fill="#ffd176"/>
        <path id="Path_2252" data-name="Path 2252" d="M654.307,280.154a4.886,4.886,0,1,1-4.886-4.886A4.885,4.885,0,0,1,654.307,280.154Z" transform="translate(-327.31 -116.441)" fill="#ffd176"/>
        <circle id="Ellipse_9" data-name="Ellipse 9" cx="4.886" cy="4.886" r="4.886" transform="translate(150.803 273.008)" fill="#ffd176"/>
      </g>
      <g id="Group_1812" data-name="Group 1812" transform="translate(524.859 191.307)">
        <g id="Group_1801" data-name="Group 1801" transform="translate(5.357 43.424)">
          <path id="Path_2253" data-name="Path 2253" d="M564.1,347.143h39.036l-2.892-42.217H566.7Z" transform="translate(-556.779 -259.784)" fill="#6873d8"/>
          <path id="Path_2254" data-name="Path 2254" d="M592.013,307.531V290.875c0-2.938-2.978-5.32-6.65-5.32h0c-3.673,0-6.651,2.382-6.651,5.32v16.656" transform="translate(-558.522 -257.473)" fill="none" stroke="#000" stroke-miterlimit="10" stroke-width="1.052"/>
          <path id="Path_2255" data-name="Path 2255" d="M596.679,253.669s-8.195,23.915-11.07,27.591-21.261,4.25-21.261,4.25v6.361s25.353,1.238,29.187-5.473C596.288,281.583,610.262,256.066,596.679,253.669Z" transform="translate(-556.808 -253.669)" fill="#ed815c"/>
          <g id="Group_1800" data-name="Group 1800" transform="translate(0 30.989)">
            <path id="Path_2256" data-name="Path 2256" d="M567.147,296.018c-.648.89-6.085,1.422-8.328,1.106-2.865-.405-3.909-7.721-2.221-7.209,1.854.563,3.282,1.083,3.282,1.083s-4.007.078-3.053-1.806c0,0,5.842-.947,9.122.338S567.8,295.128,567.147,296.018Z" transform="translate(-555.787 -288.856)" fill="#ed815c"/>
          </g>
          <path id="Path_2257" data-name="Path 2257" d="M556.708,290.054s2.824-.255,2.824.709-1.783.819-1.783.819,1.638-.144,2.024.626-1.88.868-1.88.868,2.265-.337,2.361.434-1.445,1.2-1.445,1.2,1.349-1.109,1.831-.193-1.4,1.735-1.4,1.735" transform="translate(-555.897 -258.006)" fill="none" stroke="#560e00" stroke-linecap="round" stroke-linejoin="round" stroke-width="0.588"/>
          <path id="Path_2258" data-name="Path 2258" d="M559.751,290.233c.434,1.278,3.76,1.518,3.76,1.518" transform="translate(-556.26 -258.031)" fill="none" stroke="#560e00" stroke-linecap="round" stroke-linejoin="round" stroke-width="0.588"/>
          <path id="Path_2259" data-name="Path 2259" d="M585.363,285.555h0c-3.673,0-6.651,2.382-6.651,5.32v16.656" transform="translate(-558.522 -257.473)" fill="none" stroke="#000" stroke-miterlimit="10" stroke-width="1.052"/>
        </g>
        <g id="Group_1805" data-name="Group 1805" transform="translate(10.694 71.732)">
          <g id="Group_1802" data-name="Group 1802" transform="translate(65.712 92.513)">
            <path id="Path_2260" data-name="Path 2260" d="M649,390.856s7.695,7.882,6.188,9.376-17.133,11.806-17.7,10.188,7.556-11.966,7.556-11.966l-.556-4.618Z" transform="translate(-636.579 -390.856)" fill="#ed815c"/>
            <path id="Path_2261" data-name="Path 2261" d="M641.166,403.754s-7.185,5.336-3.8,7.245,19.749-9.325,19.61-10.85-3.883-4.438-4.021-4.438c-1.316,0,.58,2.41-1.8,4.3C643.581,406.011,641.166,403.754,641.166,403.754Z" transform="translate(-636.46 -391.435)" fill="#ffd176"/>
          </g>
          <g id="Group_1803" data-name="Group 1803" transform="translate(0 98.176)">
            <path id="Path_2262" data-name="Path 2262" d="M582.352,397.286s2.08,10.817,0,11.233-20.8.416-20.386-1.249,12.9-5.824,12.9-5.824l2.08-4.16Z" transform="translate(-561.861 -397.286)" fill="#ed815c"/>
            <path id="Path_2263" data-name="Path 2263" d="M569.145,404.216s-8.916.767-7.039,4.169,21.7,2.438,22.387,1.067-.974-5.816-1.092-5.888c-1.119-.691-.757,2.5-3.792,2.711C569.907,406.936,569.145,404.216,569.145,404.216Z" transform="translate(-561.847 -398.023)" fill="#ffd176"/>
          </g>
          <g id="Group_1804" data-name="Group 1804" transform="translate(14.71)">
            <path id="Path_2264" data-name="Path 2264" d="M582.667,343.63c2.858-8.573,16.976-49.3,16.976-49.3s25.082-19.367,27.782.318a52.625,52.625,0,0,1,2.7,20.32c-.635,11.907-.858,29.5-.858,29.5l13.092,34.727-5.012,2.891s-20.283-26.911-21.394-32.626c-.8-4.1-3.526-19.051-5.01-27.2-5.325,9.788-12.447,22.733-13.712,24.29-2.064,2.54-12.9,38.622-12.9,38.622l-5.783-.579S581.419,347.375,582.667,343.63Z" transform="translate(-578.55 -285.811)" fill="#35a09a"/>
          </g>
        </g>
        <path id="Path_2265" data-name="Path 2265" d="M614.749,247.537c4.561-.442,15.518,4.722,15.518,6.915s-6.04,17.977-4.385,22.6c4.285,11.974,3.88,13.663,3.88,13.663a70.437,70.437,0,0,1-17.036,2.361c-8.771,0-10.795-2.868-10.795-2.868s-3.959-18.5-3.542-23.782a120.92,120.92,0,0,1,2.024-13.494S604.291,248.549,614.749,247.537Z" transform="translate(-555.508 -209.51)" fill="#fff"/>
        <g id="Group_1811" data-name="Group 1811" transform="translate(43.947 8.58)">
          <g id="Group_1808" data-name="Group 1808" transform="translate(9.438 14.653)">
            <path id="Path_2266" data-name="Path 2266" d="M618.721,230.743s0,13.52,1.2,15.979c0,0-9.044,5.182-9.6,0l.6-13.521Z" transform="translate(-610.32 -230.743)" fill="#ed815c"/>
            <g id="Group_1807" data-name="Group 1807">
              <g id="Group_1806" data-name="Group 1806" clip-path="url(#clip-path)">
                <path id="Path_2267" data-name="Path 2267" d="M617.978,235.131s-5.7,7.526-9.56,7.526-1.22-4.068-1.22-4.068l12.2-2.847" transform="translate(-609.842 -231.266)" fill="#560e00"/>
              </g>
            </g>
          </g>
          <path id="Path_2269" data-name="Path 2269" d="M599.6,226.179c0,6.627,2,12,7.729,12s13.018-5.373,13.018-12-3.661-12.814-13.018-12C601.626,214.674,599.6,219.55,599.6,226.179Z" transform="translate(-599.604 -214.105)" fill="#ed815c"/>
          <g id="Group_1810" data-name="Group 1810">
            <g id="Group_1809" data-name="Group 1809" clip-path="url(#clip-path-2)">
              <path id="Path_2270" data-name="Path 2270" d="M617.368,233.235s1.97-7.689.749-8.1-2.847,1.424-3.661.814-1.322-6.814-1.322-8.237-13.424-.1-14.035-.509.915-9.559.915-9.559l25.628,1.22L623,227.174Z" transform="translate(-599.527 -213.335)"/>
            </g>
          </g>
          <path id="Path_2272" data-name="Path 2272" d="M608.876,226.753c0,.558.259,1.011.579,1.011s.578-.453.578-1.011-.259-1.012-.578-1.012S608.876,226.194,608.876,226.753Z" transform="translate(-600.71 -215.493)" fill="#560e00"/>
          <path id="Path_2273" data-name="Path 2273" d="M601.544,226.753c0,.558.259,1.011.579,1.011s.578-.453.578-1.011-.259-1.012-.578-1.012S601.544,226.194,601.544,226.753Z" transform="translate(-599.835 -215.493)" fill="#560e00"/>
          <path id="Path_2274" data-name="Path 2274" d="M604.419,225.893s-1.423,3.865-2.644,4.068c0,0,1.83,1.017,2.847.814" transform="translate(-599.863 -215.511)" fill="none" stroke="#560e00" stroke-miterlimit="10" stroke-width="0.51"/>
          <path id="Path_2275" data-name="Path 2275" d="M603.853,232.544s.469,3.494,2.3,3.494,2.3-3.835,2.3-3.835Z" transform="translate(-600.111 -216.264)" fill="#fafafa"/>
          <path id="Path_2276" data-name="Path 2276" d="M617.018,228.231s3.385-6.461,4.475-1.017c.813,4.068-3.052,4.678-3.662,3.865" transform="translate(-601.681 -215.409)" fill="#ed815c"/>
          <path id="Path_2277" data-name="Path 2277" d="M611.441,224.275s-1.221-1.628-3.661-.407" transform="translate(-600.579 -215.216)" fill="none" stroke="#560e00" stroke-miterlimit="10" stroke-width="0.51"/>
          <path id="Path_2278" data-name="Path 2278" d="M604.176,223.777s-1.264-1.074-3.053.3" transform="translate(-599.785 -215.211)" fill="none" stroke="#560e00" stroke-miterlimit="10" stroke-width="0.51"/>
          <path id="Path_2279" data-name="Path 2279" d="M619.433,230.845s.3-3.189-1.215-1.063c0,0,.912-2.885,1.823-3.037s.759,2.43.3,2.885" transform="translate(-601.825 -215.612)" fill="none" stroke="#560e00" stroke-miterlimit="10" stroke-width="0.51"/>
        </g>
        <path id="Path_2280" data-name="Path 2280" d="M549.7,295.377" transform="translate(-549.704 -215.221)" fill="none" stroke="#000" stroke-miterlimit="10" stroke-width="1.052"/>
        <path id="Path_2281" data-name="Path 2281" d="M613.141,218.141s-14.363,2.5-14.131.06,8.485-10,14.413-5.7,10.345.465,9.415,7.438-3.952,10.345-3.952,10.345,1.162-5.695.465-7.555S613.141,218.141,613.141,218.141Z" transform="translate(-555.586 -205.179)"/>
        <path id="Path_2282" data-name="Path 2282" d="M617.446,214.594s-.161-.231-.412-.624c-1.438-2.25-5.8-9.8.528-9.6,7.439.232,8.95,3.254,6.393,6.392s-3.37,4.3-3.37,4.3" transform="translate(-557.401 -204.363)"/>
      </g>
      <g id="Group_1816" data-name="Group 1816" transform="translate(343.839 233.813)">
        <g id="Group_1814" data-name="Group 1814" transform="translate(0)">
          <rect id="Rectangle_89" data-name="Rectangle 89" width="80.964" height="80.964" rx="14.118" fill="#fff"/>
          <g id="Group_1813" data-name="Group 1813" transform="translate(10.983 75.647)">
            <rect id="Rectangle_90" data-name="Rectangle 90" width="58.999" height="20.064" rx="3.431" transform="translate(0 3.47)" fill="#fff"/>
            <rect id="Rectangle_91" data-name="Rectangle 91" width="58.999" height="20.064" rx="3.431" fill="#ffd176"/>
            <text id="BUY_NOW" data-name="BUY NOW" transform="translate(6.068 10.835)" fill="#fafafa" font-size="8" font-family="SegoeUI, Segoe UI"><tspan x="0" y="0">BUY NOW</tspan></text>
          </g>
        </g>
        <path id="Path_2283" data-name="Path 2283" d="M414.992,324.292s-4.013-14.293-4.013-19.309c0-4.063,1.48-15.364,2.043-19.512a3.055,3.055,0,0,0-.622-2.311,16.257,16.257,0,0,1-1.421-2.25c-4.514-8.275-2.507-14.043-2.507-14.043l-4.013-2.507s1.17,12.12-8.86,12.288c-9.032.151-8.693-12.036-8.693-12.036l-4.013,2.507s2.006,5.768-2.507,14.043a16.321,16.321,0,0,1-1.421,2.249,3.054,3.054,0,0,0-.623,2.312c.563,4.148,2.043,15.449,2.043,19.512,0,5.015-4.012,19.058-4.012,19.058Z" transform="translate(-352.757 -254.026)" fill="#e0e0e0"/>
        <g id="Group_1815" data-name="Group 1815" transform="translate(21.109 7.036)">
          <path id="Path_2284" data-name="Path 2284" d="M393.861,272.9c-9.032.151-8.693-12.037-8.693-12.037l-2.341,2.842,2.508,13.875,15.714.167,4.012-3.009-2.34-14.126S403.893,272.736,393.861,272.9Z" transform="translate(-374.637 -260.616)" fill="#5462ba"/>
          <path id="Path_2285" data-name="Path 2285" d="M412.144,320.548s-4.012-14.294-4.012-19.308c0-3.922,1.38-14.592,1.982-19.057a4.2,4.2,0,0,0-.765-3.038,18.262,18.262,0,0,1-1.216-1.978c-4.514-8.275-2.508-14.043-2.508-14.043l-4.012-2.507a67.921,67.921,0,0,1,.251,10.782c-.5,5.517-17.052,6.269-18.055.251-.747-4.48.251-10.783.251-10.783l-4.012,2.508s2.006,5.768-2.507,14.043a18.516,18.516,0,0,1-1.216,1.978,4.207,4.207,0,0,0-.766,3.038c.6,4.465,1.982,15.135,1.982,19.057,0,5.015-4.012,19.057-4.012,19.057Z" transform="translate(-373.527 -260.616)" fill="#6873d8"/>
        </g>
      </g>
      <g id="Group_1823" data-name="Group 1823" transform="translate(355.687 125.667)">
        <g id="Group_1818" data-name="Group 1818">
          <rect id="Rectangle_92" data-name="Rectangle 92" width="80.964" height="80.965" rx="14.118" fill="#fff"/>
          <g id="Group_1817" data-name="Group 1817" transform="translate(10.983 75.647)">
            <rect id="Rectangle_93" data-name="Rectangle 93" width="58.999" height="20.064" rx="3.431" transform="translate(0 3.47)" fill="#fff"/>
            <path id="Path_22703" data-name="Path 22703" d="M3.431,0H55.568A3.431,3.431,0,0,1,59,3.431v13.2a3.431,3.431,0,0,1-3.431,3.431H3.431A3.431,3.431,0,0,1,0,16.633V3.431A3.431,3.431,0,0,1,3.431,0Z" fill="#ffd176"/>
            <text id="BUY_NOW-2" data-name="BUY NOW" transform="translate(11.069 12.835)" fill="#fafafa" font-size="8" font-family="SegoeUI, Segoe UI"><tspan x="0" y="0">BUY NOW</tspan></text>
          </g>
        </g>
        <g id="Group_1822" data-name="Group 1822" transform="translate(18.732 13.74)">
          <path id="Path_2286" data-name="Path 2286" d="M431.118,197.535a101.858,101.858,0,0,1-44.531,0l3.259-49.147a136.046,136.046,0,0,0,37.471,0Z" transform="translate(-384.274 -145.786)" fill="#e0e0e0"/>
          <path id="Path_2287" data-name="Path 2287" d="M428.491,194.58a101.842,101.842,0,0,1-44.53,0l3.258-49.147a136.044,136.044,0,0,0,37.471,0Z" transform="translate(-383.961 -145.433)" fill="#35a09a"/>
          <g id="Group_1821" data-name="Group 1821" transform="translate(0 0)">
            <g id="Group_1820" data-name="Group 1820" clip-path="url(#clip-path-3)">
              <g id="Group_1819" data-name="Group 1819" transform="translate(0.867 5.055)">
                <line id="Line_15" data-name="Line 15" x2="44.82" transform="translate(0 0.289)" fill="none" stroke="#238780" stroke-miterlimit="10" stroke-width="0.588"/>
                <path id="Path_2288" data-name="Path 2288" d="M409.57,151.39v13.447h0a6.028,6.028,0,0,1-3.037-5.232v-8.431" transform="translate(-387.521 -151.173)" fill="none" stroke="#238780" stroke-miterlimit="10" stroke-width="0.588"/>
              </g>
              <path id="Path_2289" data-name="Path 2289" d="M392.714,151.5s-4.049,7.807-8.1,8.1" transform="translate(-384.039 -146.157)" fill="none" stroke="#238780" stroke-miterlimit="10" stroke-width="0.588"/>
              <path id="Path_2290" data-name="Path 2290" d="M423.688,151.5s3.181,6.94,7.23,7.519" transform="translate(-388.7 -146.157)" fill="none" stroke="#238780" stroke-miterlimit="10" stroke-width="0.588"/>
            </g>
          </g>
        </g>
      </g>
      <g id="Group_1829" data-name="Group 1829" transform="translate(452.835 158.632)">
        <g id="Group_1825" data-name="Group 1825" transform="translate(0)">
          <rect id="Rectangle_95" data-name="Rectangle 95" width="80.964" height="80.964" rx="14.118" fill="#fff"/>
          <g id="Group_1824" data-name="Group 1824" transform="translate(10.983 75.647)">
            <rect id="Rectangle_96" data-name="Rectangle 96" width="58.999" height="20.064" rx="3.431" transform="translate(0 3.47)" fill="#fff"/>
            <path id="Path_22704" data-name="Path 22704" d="M3.431,0H55.568A3.431,3.431,0,0,1,59,3.431v13.2a3.431,3.431,0,0,1-3.431,3.431H3.431A3.431,3.431,0,0,1,0,16.633V3.431A3.431,3.431,0,0,1,3.431,0Z" fill="#ffd176"/>
            <text id="BUY_NOW-3" data-name="BUY NOW" transform="translate(6.068 10.834)" fill="#fafafa" font-size="8" font-family="SegoeUI, Segoe UI"><tspan x="0" y="0">BUY NOW</tspan></text>
          </g>
        </g>
        <g id="Group_1828" data-name="Group 1828" transform="translate(10.925 28.057)">
          <path id="Path_2292" data-name="Path 2292" d="M540.475,214.394a13.35,13.35,0,0,0-1.608-5.639c-.647-1.293-1.112-2.357-1.426-3.123a2.241,2.241,0,0,0-.5-1.31c-5.012-6.361-16.771,4.819-30.458,8.482-2.461.659-4.079,1.177-5.14,1.581a5.83,5.83,0,0,0-3.535-.232c-3.47,1.349-10.024,7.711-12.53,9.253a4.131,4.131,0,0,0-1.462,5.124l-.081.081s-.578,4.048,6.555,4.433,18.506.193,22.747-2.506a143.968,143.968,0,0,1,16-8.289c2.891-1.156,9.638-1.542,10.988-3.277C541.149,217.525,540.666,215.146,540.475,214.394Z" transform="translate(-482.866 -199.51)" fill="#e0e0e0"/>
          <path id="Path_2293" data-name="Path 2293" d="M501.046,212.411s-1.671-.587,6.94-2.891c13.687-3.663,25.446-14.843,30.458-8.482s-28.53,19.277-28.53,19.277Z" transform="translate(-484.95 -199.118)"/>
          <path id="Path_2294" data-name="Path 2294" d="M484.657,225.376l-1.542,1.542s-.579,4.049,6.554,4.434,18.506.193,22.747-2.506a143.9,143.9,0,0,1,16-8.289c2.891-1.156,9.638-1.542,10.988-3.277s.386-4.819.386-4.819Z" transform="translate(-482.825 -200.71)"/>
          <path id="Path_2295" data-name="Path 2295" d="M510.065,216.141s-9.446-6.361-12.916-5.012-10.024,7.711-12.53,9.253-2.891,6.362,1.735,7.519,21.2,1.156,25.639-1.735,19.663-10.217,24.675-11.181,2.891-6.554,1.542-9.253a37.805,37.805,0,0,1-1.928-4.433S515.077,217.1,510.065,216.141Z" transform="translate(-482.787 -199.378)" fill="#6e000f"/>
          <g id="Group_1827" data-name="Group 1827" transform="translate(0 1.92)">
            <path id="Path_2296" data-name="Path 2296" d="M510.065,216.141s-9.446-6.361-12.916-5.012-10.024,7.711-12.53,9.253-2.891,6.362,1.735,7.519,21.2,1.156,25.639-1.735,19.663-10.217,24.675-11.181,2.891-6.554,1.542-9.253a37.805,37.805,0,0,1-1.928-4.433S515.077,217.1,510.065,216.141Z" transform="translate(-482.787 -201.298)" fill="#ffd176"/>
            <g id="Group_1826" data-name="Group 1826" clip-path="url(#clip-path-4)">
              <path id="Path_2297" data-name="Path 2297" d="M537.494,203.268s-13.411,9.272-22.555,14.65c-6.554,3.856-13.108,5.976-20.241,5.784s-9.831-.772-9.831-3.085,10.988-11.759,10.988-11.759" transform="translate(-483.035 -201.533)" fill="none" stroke="#b23d56" stroke-miterlimit="10" stroke-width="1.177"/>
            </g>
          </g>
        </g>
      </g>
      <g id="Group_1836" data-name="Group 1836" transform="translate(442.394 265.612)">
        <g id="Group_1830" data-name="Group 1830" transform="translate(9.918 0)">
          <path id="Path_2299" data-name="Path 2299" d="M521.253,360.769l-51.829-7.7,9.665-60.253,47.988,7.533Z" transform="translate(-469.425 -289.22)" fill="#35a09a"/>
          <path id="Path_2300" data-name="Path 2300" d="M499.269,301.141l1.333-8.973c.359-2.425,3.938-3.9,7.99-3.3h0c4.053.6,7.046,3.056,6.686,5.481l-1.332,8.973" transform="translate(-472.985 -288.733)" fill="none" stroke="#000" stroke-miterlimit="10" stroke-width="0.983"/>
        </g>
        <path id="Path_2301" data-name="Path 2301" d="M555.036,375.137,516.5,365.052l15.735-47.929,34.743,9.45Z" transform="translate(-465.123 -292.12)" fill="#ea4477"/>
        <path id="Path_2302" data-name="Path 2302" d="M545.968,325.728l2.425-8.741c.656-2.362,4.388-3.389,8.336-2.293h0c3.948,1.1,6.618,3.9,5.961,6.262l-2.425,8.741" transform="translate(-468.638 -291.777)" fill="none" stroke="#000" stroke-miterlimit="10" stroke-width="0.983"/>
        <path id="Path_2303" data-name="Path 2303" d="M542.807,374.438,486.123,361.22l8.465-32.138,52.855,12.787Z" transform="translate(-461.499 -293.546)" fill="#fcc239"/>
        <path id="Path_2304" data-name="Path 2304" d="M515.876,340.178l2.306-9.89c.624-2.673,4.75-3.995,9.217-2.953h0c4.467,1.041,7.583,4.052,6.959,6.725l-2.307,9.89" transform="translate(-465.048 -293.295)" fill="none" stroke="#000" stroke-miterlimit="10" stroke-width="0.983"/>
        <g id="Group_1835" data-name="Group 1835" transform="translate(0 2.74)">
          <path id="Path_2305" data-name="Path 2305" d="M551.881,376.5,466.4,357.89l-8.234-51.277,108.6,1.26,3.328-12.8-19.908-.364.053-2.862,23.54.431Zm-82.967-20.986,80.89,17.6,16.216-62.385-104.493-1.214Z" transform="translate(-458.163 -291.844)"/>
          <path id="Path_2306" data-name="Path 2306" d="M560.024,403.42H501.117v-2.862H556.7l-2.149-14.332,2.83-.425Z" transform="translate(-463.287 -303.053)"/>
          <g id="Group_1832" data-name="Group 1832" transform="translate(71.112 90.949)">
            <g id="Group_1831" data-name="Group 1831">
              <circle id="Ellipse_10" data-name="Ellipse 10" cx="7.988" cy="7.988" r="7.988"/>
            </g>
            <circle id="Ellipse_11" data-name="Ellipse 11" cx="4.197" cy="4.197" r="4.197" transform="translate(3.791 3.791)" fill="#e0e0e0"/>
          </g>
          <g id="Group_1834" data-name="Group 1834" transform="translate(31.972 90.949)">
            <g id="Group_1833" data-name="Group 1833">
              <circle id="Ellipse_12" data-name="Ellipse 12" cx="7.988" cy="7.988" r="7.988"/>
            </g>
            <circle id="Ellipse_13" data-name="Ellipse 13" cx="4.197" cy="4.197" r="4.197" transform="translate(3.791 3.791)" fill="#e0e0e0"/>
          </g>
        </g>
        <rect id="Rectangle_98" data-name="Rectangle 98" width="64.154" height="2.863" transform="translate(79.448 82.179) rotate(-76.873)"/>
        <rect id="Rectangle_99" data-name="Rectangle 99" width="60.503" height="2.863" transform="translate(65.604 79.736) rotate(-78.497)"/>
        <rect id="Rectangle_100" data-name="Rectangle 100" width="56.789" height="2.863" transform="translate(53.062 76.601) rotate(-80.998)"/>
        <rect id="Rectangle_101" data-name="Rectangle 101" width="53.775" height="2.861" transform="matrix(0.079, -0.997, 0.997, 0.079, 41.749, 73.872)"/>
        <rect id="Rectangle_102" data-name="Rectangle 102" width="51.487" height="2.862" transform="translate(29.368 71.472) rotate(-88.826)"/>
        <rect id="Rectangle_103" data-name="Rectangle 103" width="2.862" height="49.054" transform="translate(15.164 20.098) rotate(-2.905)"/>
        <rect id="Rectangle_104" data-name="Rectangle 104" width="100.467" height="2.862" transform="translate(4.168 39.184)"/>
        <rect id="Rectangle_105" data-name="Rectangle 105" width="89.816" height="2.862" transform="translate(8.783 59.419)"/>
      </g>
    </g>
  </g>
</svg>
