<svg xmlns="http://www.w3.org/2000/svg" xmlns:xlink="http://www.w3.org/1999/xlink" width="345.941" height="291.269" viewBox="0 0 345.941 291.269">
  <defs>
    <linearGradient id="linear-gradient" x1="-0.01" y1="0.5" x2="1.01" y2="0.5" gradientUnits="objectBoundingBox">
      <stop offset="0" stop-color="#e8f1f9"/>
      <stop offset="1" stop-color="#bcd1f0"/>
    </linearGradient>
    <linearGradient id="linear-gradient-2" x1="0.015" y1="0.663" x2="0.823" y2="0.867" gradientUnits="objectBoundingBox">
      <stop offset="0" stop-color="#fff"/>
      <stop offset="1" stop-color="#dee5e4"/>
    </linearGradient>
    <linearGradient id="linear-gradient-3" x1="1.102" y1="1.106" x2="0.151" y2="2.422" gradientUnits="objectBoundingBox">
      <stop offset="0" stop-color="#ffd96f"/>
      <stop offset="1" stop-color="#ebb700"/>
    </linearGradient>
    <linearGradient id="linear-gradient-4" x1="-0.351" y1="0.5" x2="0.649" y2="0.5" xlink:href="#linear-gradient"/>
  </defs>
  <g id="Group_52824" data-name="Group 52824" transform="translate(-15 -114.731)">
    <g id="on_boarding_image_tree" transform="translate(-291.022 103.523)">
      <path id="Path_2380" data-name="Path 2380" d="M344.986,239.694c46.708,69.477,121.426-1.441,162.777,16.586,42.481,18.52,73.562-22.194,56.607-87.729C547.862,104.75,507,65.029,476.336,52.373c-50.7-20.924-119.777,17.539-111.673,62.96C371.979,156.326,314.136,193.807,344.986,239.694Z" transform="translate(13.771 11.591)" fill="#b4a8e1"/>
      <path id="Path_2381" data-name="Path 2381" d="M398.532,275.437c-21.237,0-41.709-7.629-58.616-32.78-18.911-28.129-6.2-53.29,6.09-77.624,8.964-17.746,17.431-34.508,14.285-52.137-3.221-18.052,5.136-36.624,22.928-50.953,26.266-21.152,65.062-27.483,94.34-15.4,33.806,13.952,75.389,56.918,92.088,121.455,9.9,38.28,4.475,71.943-14.167,87.852-12.151,10.37-28.409,11.909-45.771,4.341-15.9-6.934-36.947-.946-59.227,5.393C433.668,270.365,415.846,275.437,398.532,275.437Zm-57.4-33.594c30.1,44.769,71.991,32.849,108.953,22.333,22.538-6.412,43.824-12.472,60.212-5.327,16.824,7.336,32.533,5.874,44.237-4.113,18.214-15.542,23.464-48.64,13.7-86.375C551.661,104.31,510.471,61.7,477,47.892c-28.812-11.891-67-5.643-92.867,15.189C366.772,77.065,358.6,95.128,361.73,112.639c3.233,18.109-5.741,35.873-14.418,53.052C335.209,189.65,322.7,214.423,341.129,241.842Z" transform="translate(11.2 8.796)" fill="#cfe9ff"/>
      <rect id="Rectangle_110" data-name="Rectangle 110" width="83.651" height="228.831" rx="5.246" transform="translate(505.652 51.116)" fill="#ebf3f9"/>
      <g id="Group_1857" data-name="Group 1857" transform="translate(306.022 93.034)">
        <path id="Path_2382" data-name="Path 2382" d="M351.116,127.507s2.757-13.438,3.41-21.188,1.462-11.545-2.312-13.989c-3.742-2.423-6.26,1.387-7.026,7.583S351.116,127.507,351.116,127.507Z" transform="translate(-287.973 -60.637)" fill="#d5e9fe"/>
        <path id="Path_2383" data-name="Path 2383" d="M360.237,122.1s-8.927-3.082-15.756-3.565-18.1,1.058-17.211-6.194c.761-6.218,13.159-2.245,18.182.538C348.793,114.726,360.237,122.1,360.237,122.1Z" transform="translate(-296.238 -52.585)" fill="#dde0f3"/>
        <path id="Path_2384" data-name="Path 2384" d="M339.086,104.385c-4.99-2.208-11.8-5.779-14.914-6.985s-10.3-3.848-13.093,2.821c-1.355,3.239,5.928,6.162,12.362,6.283C330.379,106.636,344.074,106.593,339.086,104.385Z" transform="translate(-303.764 -58.669)" fill="#d5e9fe"/>
        <path id="Path_2385" data-name="Path 2385" d="M328.838,99.266s-2.571-6.334-5.26-12.4-8.262-17.814-13.961-16.329c-6.006,1.565-3.287,8.851-.465,12.194S328.838,99.266,328.838,99.266Z" transform="translate(-306.023 -70.413)" fill="#d5e9fe"/>
        <g id="Group_1856" data-name="Group 1856" transform="translate(1.634 1.097)">
          <path id="Path_2386" data-name="Path 2386" d="M341.643,103.813c-.221-.058-22.137-5.949-30.119-5.3a.223.223,0,0,0,.037.444c7.9-.642,29.746,5.228,29.965,5.286a.217.217,0,0,0,.2-.045.222.222,0,0,0-.085-.384Z" transform="translate(-305.211 -58.563)" fill="#8892c4"/>
          <path id="Path_2387" data-name="Path 2387" d="M389.159,168.881a.367.367,0,0,1-.086.053.334.334,0,0,1-.437-.177,125.069,125.069,0,0,0-6.169-12.1c-3.587-6.228-9.337-15.009-16.361-21.472-5.665-5.215-10.862-9.174-15.447-12.669-6.612-5.038-12.323-9.391-17.54-15.876-6.938-8.625-25.727-34.683-25.915-34.946a.334.334,0,0,1,.542-.39c.189.263,18.965,26.307,25.893,34.918,5.167,6.422,10.848,10.751,17.425,15.763,4.6,3.5,9.806,7.473,15.494,12.708,7.089,6.523,12.881,15.367,16.492,21.639a125.645,125.645,0,0,1,6.2,12.165A.335.335,0,0,1,389.159,168.881Z" transform="translate(-307.14 -71.164)" fill="#8892c4"/>
          <path id="Path_2388" data-name="Path 2388" d="M374.093,137.169a5.807,5.807,0,0,0-1.1-.685,123.246,123.246,0,0,0-13.292-7.227c-.189-.08-.4-.172-.646-.278-4.944-2.131-19.99-8.617-25.25-5.172a4.288,4.288,0,0,0-1.865,3.828c-.019,4.315,7.179,6.726,11.47,7.78,5.876,1.443,16.795.934,21.748.463a15.159,15.159,0,0,1,6.391.62c.849.392,1.5.709,1.812.868.25.155.4.251.4.251a.277.277,0,0,0,.327-.023A.29.29,0,0,0,374.093,137.169Zm-14.611-7.4a97.169,97.169,0,0,1,9.724,5.1,37.487,37.487,0,0,0-5.589-1.877c-1.57-.361-5.906-1.378-10.845-2.54l-3.462-4.7c3.961,1.337,7.59,2.9,9.525,3.737Zm-25.732-5.23a3.552,3.552,0,0,1,.361-.267c2.116-1.386,6.283-1.187,12.382.593.64.187,1.28.384,1.913.59.031.054,3.53,4.8,3.53,4.8l-2.106-.5a.278.278,0,0,0-.323-.133l-.107.032c-8.042-1.894-16.381-3.863-16.529-3.9A2.976,2.976,0,0,1,333.749,124.538Zm-1.253,3.1a5.225,5.225,0,0,1,.171-1.369.268.268,0,0,0,.076.031c.142.034,7.849,1.853,15.586,3.676l-10.342,3.087a18.973,18.973,0,0,1-2.02-1.006C333.657,130.713,332.49,129.227,332.5,127.636Zm6.308,5.762,10.612-3.169,2.474.583-6.52,4.42c-.658-.1-1.27-.222-1.828-.36A38.138,38.138,0,0,1,338.805,133.4Zm7.384,1.953,6.44-4.366,4.434,1.044-6,3.705C349.327,135.666,347.668,135.543,346.189,135.351Zm18.917-.026a116.238,116.238,0,0,1-13.042.441l5.763-3.556c2.616.614,4.683,1.095,5.665,1.321a36.563,36.563,0,0,1,5.4,1.805A18.328,18.328,0,0,0,365.106,135.324Z" transform="translate(-295.693 -47.322)" fill="#8892c4"/>
          <path id="Path_2389" data-name="Path 2389" d="M335.469,78.283a4.492,4.492,0,0,0-3.631,1.351c-1.966,2.172-1.707,6.618-1.2,10.68.626,4.974,10.466,28.65,10.884,29.655a.217.217,0,0,0,.105.111c.031.105.05.168.05.168a.222.222,0,0,0,.278.146.206.206,0,0,0,.079-.042.221.221,0,0,0,.069-.235s-.044-.145-.118-.4c.351-1.921,2.761-15.4,2.828-22.837l.139-.265a.224.224,0,0,0-.095-.3,24.883,24.883,0,0,0-.215-2.505,46.263,46.263,0,0,0-.97-4.526l.1-.183a.222.222,0,0,0-.246-.326c-.183-.649-.389-1.315-.621-1.985a.235.235,0,0,0-.069-.319c-.367-.9-.726-1.786-1.134-2.635C339.963,80.212,337.863,78.343,335.469,78.283Zm-.607,23.682,3.812,5.7.023.123c.744,3.825,1.5,6.983,2.071,9.164C339.364,113.515,336.939,107.5,334.862,101.965Zm6.849,16.779c-.544-1.95-1.567-5.859-2.564-10.971l5.2-9.993C344.132,104.5,342.318,115.29,341.711,118.744Zm2.495-24.861a18.194,18.194,0,0,1,.165,2.894l-5.36,10.294c-.418-2.2-.852-4.733-1.244-7.514.016-.025,5.589-9.718,5.589-9.718C343.7,91.142,343.982,92.507,344.206,93.882Zm-1.011-4.654-5.526,9.611q-.2-1.456-.377-2.989a.223.223,0,0,0,.21-.041.227.227,0,0,0,.048-.057l5.06-8.454C342.816,87.919,343.012,88.565,343.195,89.229Zm-.773-2.482L337.24,95.4a127.252,127.252,0,0,1-.842-16.06.223.223,0,0,0-.446-.006,141.128,141.128,0,0,0,2.508,27.212l-4.135-6.188a.206.206,0,0,0-.088-.075,66.37,66.37,0,0,1-3.154-10.028c-.471-3.73-.772-8.275,1.085-10.326a3.423,3.423,0,0,1,.339-.329,4.221,4.221,0,0,1,2.949-.875c2.214.057,4.183,1.842,5.852,5.3A27.025,27.025,0,0,1,342.421,86.747Z" transform="translate(-296.461 -67.879)" fill="#8892c4"/>
          <path id="Path_2390" data-name="Path 2390" d="M361.107,121.975c-.061-.028-6.228-2.792-13.391-5.392q-3.85-1.4-7.084-2.384a.218.218,0,0,0-.063-.19l-4.734-4.632a.222.222,0,1,0-.31.317l4.379,4.285c-5.564-1.647-9.673-2.328-12.264-2.026a.223.223,0,0,0,.053.443c2.8-.327,7.26.6,12.01,2l-4.484,3.1a.225.225,0,0,0-.057.31.223.223,0,0,0,.31.056l4.779-3.3a202.621,202.621,0,0,1,20.675,7.819.222.222,0,0,0,.234-.032.231.231,0,0,0,.06-.079A.222.222,0,0,0,361.107,121.975Z" transform="translate(-297.769 -53.554)" fill="#8892c4"/>
          <path id="Path_2391" data-name="Path 2391" d="M349.516,91.679a.221.221,0,0,0-.241.2,184.076,184.076,0,0,0,.044,20.019l-3.262-4.879a.222.222,0,1,0-.37.247l3.46,5.193a.224.224,0,0,0,.2.1c.332,7.795.8,14.462.805,14.591a.222.222,0,1,0,.443-.031c-.007-.1-.3-4.361-.591-10.029.077-.072,3.53-5.349,3.53-5.349a.222.222,0,0,0-.373-.243l-3.194,4.882c-.069-1.389-.136-2.852-.2-4.351l4.405-6.58a.223.223,0,0,0-.37-.248l-4.066,6.074a178.489,178.489,0,0,1-.02-19.353A.224.224,0,0,0,349.516,91.679Z" transform="translate(-289.366 -61.695)" fill="#8892c4"/>
        </g>
      </g>
      <path id="Path_2394" data-name="Path 2394" d="M491.595,121.256a6.562,6.562,0,1,1-9.221,1.049A6.561,6.561,0,0,1,491.595,121.256Z" transform="translate(80.74 45.429)" fill="#8992c3"/>
      <path id="Path_2397" data-name="Path 2397" d="M498.3,137.2a6.563,6.563,0,1,1-9.256-.691A6.562,6.562,0,0,1,498.3,137.2Z" transform="translate(83.426 52.397)" fill="#8992c3"/>
      <g id="Group_1872" data-name="Group 1872" transform="translate(389.204 26.087) rotate(-8)">
        <rect id="Rectangle_113" data-name="Rectangle 113" width="141.077" height="58.695" transform="matrix(0.758, -0.652, 0.652, 0.758, 0, 92.049)" fill="#ebf3f9"/>
        <rect id="Rectangle_114" data-name="Rectangle 114" width="133.848" height="53.926" transform="matrix(0.758, -0.652, 0.652, 0.758, 4.295, 91.497)" fill="url(#linear-gradient)"/>
        <path id="Path_2395" data-name="Path 2395" d="M3.286,76.3,90.819,1.461a6.033,6.033,0,0,1,8.507.636l18.7,21.719a6.746,6.746,0,0,1-.712,9.513l-87.492,74.8a8.794,8.794,0,0,1-12.4-.926L2.291,89.632A9.457,9.457,0,0,1,3.286,76.3Z" transform="translate(12.962 12.616)" fill="#fff" style="isolation: isolate"/>
        <path id="Path_2396" data-name="Path 2396" d="M12.734,2.518A7.244,7.244,0,1,1,2.518,1.754,7.244,7.244,0,0,1,12.734,2.518Z" transform="translate(100.823 30.486)" fill="#dfedf9"/>
        <path id="Path_2398" data-name="Path 2398" d="M38.957,10.311c9.351,10.86,9.858,25.754,1.131,33.266s-23.38,4.8-32.731-6.061S-2.5,11.761,6.226,4.249,29.606-.551,38.957,10.311Z" transform="translate(52.183 41.858)" fill="#dfedf9"/>
      </g>
      <path id="Path_2399" data-name="Path 2399" d="M532.869,143.852c27.168-30.031-25.632-67.64-67.874-58.839-38.846,8.1-72.735,41.943-79.336,52.118-17.222,26.555-18.873,48.185-6.361,62.187,13.781,15.42,44.755,26.069,69.115,3.047,19.608-18.53,21.127-34.736,30.747-40.073C499.541,150.987,521.485,156.436,532.869,143.852Z" transform="translate(30.05 28.759)" fill="url(#linear-gradient-2)"/>
      <g id="Group_1859" data-name="Group 1859" transform="translate(461.01 191.157)">
        <path id="Path_2400" data-name="Path 2400" d="M413.979,168.041a21.641,21.641,0,1,1,28.6,10.715A21.6,21.6,0,0,1,413.979,168.041Z" transform="translate(-412.064 -137.548)" fill="url(#linear-gradient-3)"/>
        <g id="Group_1858" data-name="Group 1858" transform="translate(0.381 0.392)">
          <path id="Path_2401" data-name="Path 2401" d="M440.1,174.57a18.192,18.192,0,1,1,9.141-24.1A18.248,18.248,0,0,1,440.1,174.57Zm-14.4-31.836a16.75,16.75,0,1,0,22.23,8.328A16.806,16.806,0,0,0,425.7,142.734Z" transform="translate(-411.391 -136.906)" fill="#dca505"/>
          <path id="Path_2402" data-name="Path 2402" d="M433.813,165.576a21.616,21.616,0,0,1-4.228,1.39,1.442,1.442,0,0,1-.585-2.824c1.622-.338,6.076-1.717,7.182-4.012a2.666,2.666,0,0,0-.177-2.552c-.773-1.536-1.932-1.505-5.256-.617-2.811.753-7.058,1.888-8.891-2.739a4.586,4.586,0,0,1,.158-3.841c1.774-3.518,7.774-5.21,8.457-5.389a1.442,1.442,0,0,1,.744,2.786c-2.084.558-5.726,2.113-6.625,3.9a1.678,1.678,0,0,0-.051,1.479c.77,1.947,1.918,1.966,5.463,1.017,2.8-.75,6.625-1.774,8.577,2.1a5.557,5.557,0,0,1,.2,5.107C437.829,163.35,435.756,164.7,433.813,165.576Z" transform="translate(-408.085 -134.528)" fill="#dca505"/>
          <path id="Path_2403" data-name="Path 2403" d="M432.339,163.166a1.445,1.445,0,0,1-1.915-.735l-1.482-3.381a1.4,1.4,0,0,1,.741-1.9,1.444,1.444,0,0,1,1.9.742l1.482,3.381A1.443,1.443,0,0,1,432.339,163.166Z" transform="translate(-404.716 -128.949)" fill="#dca505"/>
          <path id="Path_2404" data-name="Path 2404" d="M426.606,150.059a1.447,1.447,0,0,1-1.918-.738l-1.676-3.845a1.477,1.477,0,0,1,.745-1.9,1.443,1.443,0,0,1,1.9.745l1.676,3.847A1.443,1.443,0,0,1,426.606,150.059Z" transform="translate(-407.445 -135.214)" fill="#dca505"/>
          <rect id="Rectangle_115" data-name="Rectangle 115" width="1.442" height="2.588" transform="translate(11.891 2.226) rotate(-24.701)" fill="#dca505"/>
          <rect id="Rectangle_116" data-name="Rectangle 116" width="1.442" height="2.589" transform="translate(17.809 0.17) rotate(-6.756)" fill="#dca505"/>
          <rect id="Rectangle_117" data-name="Rectangle 117" width="2.588" height="1.442" transform="translate(23.57 2.582) rotate(-78.763)" fill="#dca505"/>
          <rect id="Rectangle_118" data-name="Rectangle 118" width="2.589" height="1.442" transform="matrix(0.488, -0.873, 0.873, 0.488, 28.809, 4.117)" fill="#dca505"/>
          <rect id="Rectangle_119" data-name="Rectangle 119" width="2.588" height="1.442" transform="matrix(0.734, -0.679, 0.679, 0.734, 33.315, 7.194)" fill="#dca505"/>
          <path id="Path_2405" data-name="Path 2405" d="M438.452,147.379l-.606-1.309,2.352-1.084.6,1.31Z" transform="translate(-400.546 -134.508)" fill="#dca505"/>
          <rect id="Rectangle_120" data-name="Rectangle 120" width="2.588" height="1.442" transform="translate(39.057 16.587) rotate(-6.731)" fill="#dca505"/>
          <path id="Path_2406" data-name="Path 2406" d="M442.057,154.858l-2.58-.187.1-1.438,2.583.188Z" transform="translate(-399.793 -130.702)" fill="#dca505"/>
          <rect id="Rectangle_121" data-name="Rectangle 121" width="1.442" height="2.588" transform="matrix(0.393, -0.92, 0.92, 0.393, 37.709, 29.878)" fill="#dca505"/>
          <rect id="Rectangle_122" data-name="Rectangle 122" width="1.442" height="2.588" transform="translate(34.067 34.372) rotate(-42.713)" fill="#dca505"/>
          <rect id="Rectangle_123" data-name="Rectangle 123" width="1.442" height="2.588" transform="translate(29.323 37.834) rotate(-24.702)" fill="#dca505"/>
          <rect id="Rectangle_124" data-name="Rectangle 124" width="1.442" height="2.588" transform="translate(23.356 39.619) rotate(-6.63)" fill="#dca505"/>
          <rect id="Rectangle_125" data-name="Rectangle 125" width="2.588" height="1.442" transform="translate(16.941 41.733) rotate(-78.647)" fill="#dca505"/>
          <rect id="Rectangle_126" data-name="Rectangle 126" width="2.588" height="1.442" transform="translate(10.244 39.16) rotate(-60.689)" fill="#dca505"/>
          <rect id="Rectangle_127" data-name="Rectangle 127" width="2.588" height="1.442" transform="translate(5.028 34.783) rotate(-42.671)" fill="#dca505"/>
          <rect id="Rectangle_128" data-name="Rectangle 128" width="2.588" height="1.442" transform="translate(0 22.067) rotate(-6.71)" fill="#dca505"/>
          <rect id="Rectangle_129" data-name="Rectangle 129" width="1.442" height="2.588" transform="translate(0.431 16.942) rotate(-78.693)" fill="#dca505"/>
          <rect id="Rectangle_130" data-name="Rectangle 130" width="1.442" height="2.588" transform="translate(2.627 10.96) rotate(-60.707)" fill="#dca505"/>
          <rect id="Rectangle_131" data-name="Rectangle 131" width="1.442" height="2.589" transform="matrix(0.735, -0.678, 0.678, 0.735, 6.648, 5.713)" fill="#dca505"/>
          <rect id="Rectangle_132" data-name="Rectangle 132" width="2.588" height="1.442" transform="translate(1.544 29.308) rotate(-24.51)" fill="#dca505"/>
        </g>
      </g>
      <path id="Rectangle_133" data-name="Rectangle 133" d="M7.709,0H85.793A7.709,7.709,0,0,1,93.5,7.709V229.9a7.709,7.709,0,0,1-7.709,7.709H7.71A7.71,7.71,0,0,1,0,229.9V7.709A7.709,7.709,0,0,1,7.709,0Z" transform="translate(502.419 46.478)" fill="#a3addc"/>
      <rect id="Rectangle_134" data-name="Rectangle 134" width="83.651" height="228.78" rx="4.682" transform="translate(505.652 51.167)" fill="#ebf3f9"/>
      <rect id="Rectangle_135" data-name="Rectangle 135" width="64.232" height="100.793" rx="4.36" transform="translate(515.361 99.034)" fill="#daeaff"/>
      <g id="Group_1863" data-name="Group 1863" transform="translate(505.652 51.11)">
        <path id="Path_2407" data-name="Path 2407" d="M526.258,48.248h-83.65c.3-4.043,2.613-6.462,7.929-6.507L519,41.729C523.11,41.729,526.552,44.714,526.258,48.248Z" transform="translate(-442.608 -41.729)" fill="url(#linear-gradient-4)"/>
        <g id="Group_1860" data-name="Group 1860" transform="translate(69.401 1.424)">
          <path id="Path_2408" data-name="Path 2408" d="M496.653,46.373h-5.759a.8.8,0,0,1-.8-.8V43.505a.8.8,0,0,1,.8-.8h5.759a.8.8,0,0,1,.8.8v2.065A.8.8,0,0,1,496.653,46.373Zm-5.759-3.265a.4.4,0,0,0-.4.4v2.065a.4.4,0,0,0,.4.4h5.759a.4.4,0,0,0,.4-.4V43.505a.4.4,0,0,0-.4-.4Z" transform="translate(-490.092 -42.703)" fill="#fff"/>
          <path id="Path_2409" data-name="Path 2409" d="M495.094,45.477h-4.107a.473.473,0,0,1-.468-.482V43.65a.475.475,0,0,1,.468-.482h2.645Z" transform="translate(-489.895 -42.488)" fill="#fff"/>
          <path id="Path_2410" data-name="Path 2410" d="M495.62,43.809v.462a.142.142,0,0,1-.142.148h-.485v-.757h.485A.146.146,0,0,1,495.62,43.809Z" transform="translate(-487.83 -42.261)" fill="#fff"/>
        </g>
        <g id="Group_1861" data-name="Group 1861" transform="translate(6.652 1.657)">
          <path id="Path_2411" data-name="Path 2411" d="M452.291,43.879l-.563.593a2.879,2.879,0,0,0-4,.029l-.572-.586a3.7,3.7,0,0,1,5.132-.037Z" transform="translate(-447.159 -42.863)" fill="#fff"/>
          <path id="Path_2412" data-name="Path 2412" d="M451.182,44.378l-.567.6a1.65,1.65,0,0,0-2.3.018l-.579-.593a2.486,2.486,0,0,1,3.442-.025Z" transform="translate(-446.891 -42.478)" fill="#fff"/>
          <path id="Path_2413" data-name="Path 2413" d="M450.048,44.89l-.849.9-.862-.884a1.234,1.234,0,0,1,1.711-.012Z" transform="translate(-446.615 -42.084)" fill="#fff"/>
        </g>
        <g id="Group_1862" data-name="Group 1862" transform="translate(13.753 1.372)">
          <rect id="Rectangle_136" data-name="Rectangle 136" width="1.127" height="3.987" transform="translate(4.758)" fill="#fff"/>
          <rect id="Rectangle_137" data-name="Rectangle 137" width="1.127" height="3.104" transform="translate(3.083 0.883)" fill="#fff"/>
          <rect id="Rectangle_138" data-name="Rectangle 138" width="1.127" height="2.358" transform="translate(1.53 1.629)" fill="#fff"/>
          <rect id="Rectangle_139" data-name="Rectangle 139" width="1.127" height="1.179" transform="translate(0 2.808)" fill="#fff"/>
        </g>
      </g>
      <path id="Path_2414" data-name="Path 2414" d="M470.454,155.031a.367.367,0,0,1-.37-.357c0-.14-.36-14-5.572-14.686a2.6,2.6,0,0,0-2.135.666c-3.369,2.89-3.641,13.48-3.644,13.587a.344.344,0,0,1-.374.357.365.365,0,0,1-.357-.373c.01-.449.284-11.025,3.9-14.125a3.355,3.355,0,0,1,2.7-.837c5.832.769,6.2,14.8,6.209,15.395A.365.365,0,0,1,470.454,155.031Z" transform="translate(70.15 54.386)" fill="#080070"/>
      <path id="Path_2415" data-name="Path 2415" d="M478.963,145.963l.786,52.926L448.407,194.3l.9-48.049Z" transform="translate(65.721 57.492)" fill="#405ff0"/>
      <path id="Path_2416" data-name="Path 2416" d="M474.188,145.977l-3.056.053.992,47.127,3.574,1.364Z" transform="translate(76.21 57.499)" fill="#405ff0"/>
      <path id="Path_2417" data-name="Path 2417" d="M472.129,146.067l-2.881,0,.829,52.387,3.065-5.547Z" transform="translate(75.34 57.54)" fill="#3830c4"/>
      <path id="Path_2418" data-name="Path 2418" d="M476.282,179.716l-3.689-1.589-2.827,5.627Z" transform="translate(75.579 72.338)" fill="#b6a9ff"/>
      <path id="Path_2419" data-name="Path 2419" d="M467.025,154.371a.368.368,0,0,1-.368-.358c0-.139-.358-14-5.572-14.686a2.6,2.6,0,0,0-2.134.666c-3.37,2.891-3.642,13.48-3.645,13.587a.348.348,0,0,1-.374.357.364.364,0,0,1-.357-.373c.01-.449.284-11.025,3.9-14.125a3.359,3.359,0,0,1,2.705-.837c5.83.769,6.194,14.8,6.207,15.4A.367.367,0,0,1,467.025,154.371Z" transform="translate(68.568 54.081)" fill="#080070"/>
      <path id="Path_2420" data-name="Path 2420" d="M396.43,181.143a.367.367,0,0,1-.36-.376c.018-.677.545-16.6,8.882-17.461a5.583,5.583,0,0,1,4.414,1.424c4.607,4.038,4.969,15.076,4.982,15.545a.367.367,0,0,1-.355.376.408.408,0,0,1-.376-.357c0-.111-.367-11.188-4.734-15.015a4.889,4.889,0,0,0-3.856-1.247c-7.7.8-8.223,16.595-8.227,16.755A.368.368,0,0,1,396.43,181.143Z" transform="translate(41.563 65.481)" fill="#080070"/>
      <path id="Path_2421" data-name="Path 2421" d="M412.936,192.117a.367.367,0,0,1-.36-.374c.012-.481.349-11.757,5.763-12.375a3.452,3.452,0,0,1,2.748.874c3.129,2.721,3.372,10.811,3.379,11.155a.366.366,0,0,1-.731.018c0-.08-.241-8.11-3.129-10.621a2.716,2.716,0,0,0-2.184-.7c-4.785.547-5.113,11.555-5.115,11.666A.369.369,0,0,1,412.936,192.117Z" transform="translate(49.182 72.9)" fill="#080070"/>
      <rect id="Rectangle_140" data-name="Rectangle 140" width="45.813" height="55.234" rx="3.42" transform="translate(522.564 121.813)" fill="#fff"/>
      <g id="Group_1864" data-name="Group 1864" transform="translate(421.575 227.653)">
        <path id="Path_2422" data-name="Path 2422" d="M396.43,181.143a.367.367,0,0,1-.36-.376c.018-.677.545-16.6,8.882-17.461a5.583,5.583,0,0,1,4.414,1.424c4.607,4.038,4.969,15.076,4.982,15.545a.367.367,0,0,1-.355.376.408.408,0,0,1-.376-.357c0-.111-.367-11.188-4.734-15.015a4.889,4.889,0,0,0-3.856-1.247c-7.7.8-8.223,16.595-8.227,16.755A.368.368,0,0,1,396.43,181.143Z" transform="translate(-380.012 -162.172)" fill="#080070"/>
        <path id="Path_2423" data-name="Path 2423" d="M392.622,170.892l-1.141,60.2L437,225.873,435.7,171.218Z" transform="translate(-382.13 -158.654)" fill="#7a58f0"/>
        <path id="Path_2424" data-name="Path 2424" d="M387.277,170.908l4.437.06-1.44,53.606-5.191,1.551Z" transform="translate(-385.083 -158.647)" fill="#7a58f0"/>
        <path id="Path_2425" data-name="Path 2425" d="M389.96,171.011l4.183.006-1.2,59.587-4.45-6.308Z" transform="translate(-383.511 -158.599)" fill="#3830c4"/>
        <path id="Path_2426" data-name="Path 2426" d="M385.131,209.286l5.357-1.808,4.1,6.4Z" transform="translate(-385.061 -141.767)" fill="#b6a9ff"/>
        <path id="Path_2427" data-name="Path 2427" d="M401.409,180.391a.367.367,0,0,1-.36-.376c.018-.677.545-16.6,8.881-17.461a5.574,5.574,0,0,1,4.414,1.425c4.607,4.038,4.969,15.076,4.982,15.544a.366.366,0,0,1-.731.02c0-.113-.367-11.188-4.733-15.016a4.888,4.888,0,0,0-3.857-1.245c-7.7.8-8.221,16.595-8.226,16.754A.368.368,0,0,1,401.409,180.391Z" transform="translate(-377.714 -162.519)" fill="#080070"/>
      </g>
      <g id="Group_1865" data-name="Group 1865" transform="translate(492.543 195.248)">
        <path id="Path_2428" data-name="Path 2428" d="M455.687,156.806a.366.366,0,0,1-.368-.357c0-.14-.36-14-5.573-14.686a2.607,2.607,0,0,0-2.135.666c-3.369,2.89-3.642,13.48-3.645,13.585a.359.359,0,0,1-.374.358.366.366,0,0,1-.357-.373c.01-.45.285-11.025,3.9-14.125a3.359,3.359,0,0,1,2.705-.837c5.83.769,6.2,14.8,6.209,15.395A.366.366,0,0,1,455.687,156.806Z" transform="translate(-429.21 -140.042)" fill="#080070"/>
        <path id="Path_2429" data-name="Path 2429" d="M464.195,147.738l.786,52.925-31.342-4.589.9-48.049Z" transform="translate(-433.639 -136.936)" fill="#7a58f0"/>
        <path id="Path_2430" data-name="Path 2430" d="M459.42,147.752l-3.055.053.991,47.127,3.575,1.364Z" transform="translate(-423.149 -136.929)" fill="#7a58f0"/>
        <path id="Path_2431" data-name="Path 2431" d="M457.361,147.842l-2.881,0,.829,52.387,3.065-5.547Z" transform="translate(-424.019 -136.888)" fill="#3830c4"/>
        <path id="Path_2432" data-name="Path 2432" d="M461.513,181.491l-3.689-1.589L455,185.529Z" transform="translate(-423.78 -122.09)" fill="#b6a9ff"/>
        <path id="Path_2433" data-name="Path 2433" d="M452.258,156.147a.369.369,0,0,1-.37-.358c0-.14-.358-14-5.57-14.686a2.589,2.589,0,0,0-2.135.666c-3.372,2.891-3.642,13.48-3.645,13.587a.365.365,0,0,1-.731-.016c.009-.449.284-11.023,3.9-14.125a3.361,3.361,0,0,1,2.7-.837c5.83.769,6.194,14.8,6.207,15.395A.368.368,0,0,1,452.258,156.147Z" transform="translate(-430.792 -140.347)" fill="#080070"/>
      </g>
      <g id="Group_1866" data-name="Group 1866" transform="translate(451.678 251.47)">
        <path id="Path_2434" data-name="Path 2434" d="M412.936,192.117a.367.367,0,0,1-.36-.374c.012-.481.349-11.757,5.763-12.375a3.452,3.452,0,0,1,2.748.874c3.129,2.721,3.372,10.811,3.379,11.155a.366.366,0,0,1-.731.018c0-.08-.241-8.11-3.129-10.621a2.716,2.716,0,0,0-2.184-.7c-4.785.547-5.113,11.555-5.115,11.666A.369.369,0,0,1,412.936,192.117Z" transform="translate(-402.496 -178.571)" fill="#080070"/>
        <path id="Path_2435" data-name="Path 2435" d="M410.474,184.772l-.725,42.3L438.7,223.4l-.83-38.4Z" transform="translate(-403.8 -176.065)" fill="#ffd970"/>
        <path id="Path_2436" data-name="Path 2436" d="M407.075,184.784l2.822.041-.916,37.666-3.3,1.089Z" transform="translate(-405.679 -176.059)" fill="#ffd970"/>
        <path id="Path_2437" data-name="Path 2437" d="M408.782,184.856l2.659,0-.766,41.867-2.83-4.433Z" transform="translate(-404.679 -176.026)" fill="#c88e06"/>
        <path id="Path_2438" data-name="Path 2438" d="M405.71,211.748l3.407-1.27,2.61,4.5Z" transform="translate(-405.665 -164.2)" fill="#ffe7ae"/>
        <path id="Path_2439" data-name="Path 2439" d="M416.1,191.589a.366.366,0,0,1-.36-.374c.012-.479.349-11.758,5.764-12.375a3.437,3.437,0,0,1,2.745.874c3.131,2.721,3.372,10.811,3.381,11.155a.366.366,0,0,1-.357.374.38.38,0,0,1-.374-.355c0-.08-.243-8.112-3.129-10.623a2.711,2.711,0,0,0-2.182-.7c-4.787.545-5.114,11.555-5.117,11.666A.369.369,0,0,1,416.1,191.589Z" transform="translate(-401.034 -178.815)" fill="#080070"/>
      </g>
      <g id="Group_1867" data-name="Group 1867" transform="translate(523.665 209.721)">
        <path id="Path_2440" data-name="Path 2440" d="M462.189,163.553a.367.367,0,0,1-.361-.374c.012-.479.349-11.757,5.764-12.377a3.448,3.448,0,0,1,2.746.875c3.129,2.721,3.372,10.811,3.381,11.155a.366.366,0,0,1-.731.019c0-.082-.241-8.112-3.129-10.623a2.707,2.707,0,0,0-2.184-.7c-4.787.547-5.114,11.555-5.117,11.666A.368.368,0,0,1,462.189,163.553Z" transform="translate(-451.749 -150.006)" fill="#080070"/>
        <path id="Path_2441" data-name="Path 2441" d="M459.727,156.207l-.726,42.3,28.949-3.669-.83-38.4Z" transform="translate(-453.054 -147.5)" fill="#ffd970"/>
        <path id="Path_2442" data-name="Path 2442" d="M456.328,156.218l2.822.042-.916,37.665-3.3,1.09Z" transform="translate(-454.932 -147.495)" fill="#ffd970"/>
        <path id="Path_2443" data-name="Path 2443" d="M458.035,156.291l2.659,0-.766,41.868-2.831-4.433Z" transform="translate(-453.933 -147.461)" fill="#c88e06"/>
        <path id="Path_2444" data-name="Path 2444" d="M454.963,183.183l3.407-1.27,2.609,4.5Z" transform="translate(-454.918 -135.635)" fill="#fde37a"/>
        <path id="Path_2445" data-name="Path 2445" d="M465.355,163.024a.367.367,0,0,1-.361-.374c.012-.479.351-11.757,5.766-12.375a3.437,3.437,0,0,1,2.745.874c3.129,2.721,3.372,10.811,3.381,11.155a.366.366,0,0,1-.731.019c0-.08-.241-8.113-3.129-10.623a2.7,2.7,0,0,0-2.182-.7c-4.787.545-5.115,11.555-5.118,11.668A.367.367,0,0,1,465.355,163.024Z" transform="translate(-450.288 -150.25)" fill="#080070"/>
      </g>
      <path id="Path_2446" data-name="Path 2446" d="M360.357,123.364,476.47,54.795a3.078,3.078,0,0,1,4.2,1.15l42.46,71.9a3.076,3.076,0,0,1-1.019,4.23L406,200.646a3.08,3.08,0,0,1-4.2-1.15l-42.46-71.9A3.077,3.077,0,0,1,360.357,123.364Z" transform="translate(24.403 15.222)" fill="#ffd176"/>
      <path id="Path_2447" data-name="Path 2447" d="M360.142,130.381,482.924,57.872l9.364,15.861L369.509,146.24Z" transform="translate(24.98 16.832)" fill="#262626"/>
      <g id="Group_1868" data-name="Group 1868" transform="translate(401.069 99.811)">
        <path id="Path_2448" data-name="Path 2448" d="M371.053,146.236,491.6,75.05l7.635,12.928L378.688,159.165Z" transform="translate(-371.053 -75.05)" fill="#fffeed"/>
        <path id="Path_2449" data-name="Path 2449" d="M371.989,147.029,492.532,75.842l.949,1.606L372.936,148.634Z" transform="translate(-370.621 -74.684)" fill="#dee5da"/>
        <path id="Path_2450" data-name="Path 2450" d="M373.373,149.075,493.916,77.888l.949,1.606L374.32,150.68Z" transform="translate(-369.982 -73.74)" fill="#dee5da"/>
        <path id="Path_2451" data-name="Path 2451" d="M374.532,151.137,495.075,79.95l.949,1.606L375.481,152.742Z" transform="translate(-369.447 -72.788)" fill="#dee5da"/>
        <path id="Path_2452" data-name="Path 2452" d="M375.527,153.12,496.072,81.934l.947,1.606L376.476,154.726Z" transform="translate(-368.988 -71.873)" fill="#dee5da"/>
      </g>
      <path id="Path_2453" data-name="Path 2453" d="M488.152,109.265l-.279,24.245-19.236.422s-8.875-.9-13.606.155-31.567,9.746-33.007,6.3,22.863-11.26,22.863-11.26-32.672,4.354-32.466-.44,28.474-6.731,28.474-6.731-34.948-.415-34.249-5.273,32.6-2.872,32.6-2.872-28.043-9.151-26.661-12.774,28.295,5.545,28.295,5.545l13.774-.418s-10.911-9.8-11.628-12.393a15.452,15.452,0,0,1,.069-6.158l13.179,9.62s8.372,3.274,11.02,5.876a42.525,42.525,0,0,0,7.9,5.57Z" transform="translate(46.441 30.562)" fill="#feb49c"/>
      <path id="Path_2454" data-name="Path 2454" d="M355.47,89.57l-1.326,3.012-.3,4.7a10.825,10.825,0,0,0,4.759,1.386,8.878,8.878,0,0,0,4.449-1.388l-1.345-4.316Z" transform="translate(22.073 31.463)" fill="#feb49c"/>
      <path id="Path_2455" data-name="Path 2455" d="M356.367,89.76s-2.764-2.795-3.657-.558,7.413,10.485,10.633,9.144,4.291-8.227,4.2-11.178-.091-6.237-3.666-7.065C356.545,78.4,356.367,89.76,356.367,89.76Z" transform="translate(21.519 27.013)" fill="#feb49c"/>
      <path id="Path_2456" data-name="Path 2456" d="M366.8,119.306l9.392-4.1s2.233-2.844,4.793-5.914,4.5-5.118,4.971-4.534-3.069,6.872-3.069,6.872,11.02-6.6,11.989-6.286c1.182,1.054-8.115,7.529-8.115,7.529s12.163-4.977,12.574-4.312c.827,1.34-10.893,6.945-10.893,6.945s10.474-2.815,10.455-2.122c.346,1.516-10.528,4.9-10.528,4.9s7.359-.832,7.311.658c-.456.712-9.138,2.192-9.138,2.192l-9.717,3.917-9,4.345Z" transform="translate(28.055 38.427)" fill="#feb49c"/>
      <path id="Path_2457" data-name="Path 2457" d="M353.462,133.07s2.09,5.145,3.87,10.189,8.72,20.012,8.642,24.962-9.442,19.252-11.938,23.372a15.37,15.37,0,0,1-2.47,3.188c-1,1.108-.186,1.54-1.168,2.393-1.438,1.25-2.359.406-3.49,1.793s1.581,1.812.8,2.979-2.061.528-2.812,1.805.587,3.628.587,3.628l11.551,5s15.485-24.964,18.493-29.411,4.331-6.118,5.669-10.887.278-41.137.278-41.137Z" transform="translate(17.836 50.559)" fill="#161e65"/>
      <path id="Path_2458" data-name="Path 2458" d="M355.367,96.025s-8.329,4.54-11.321,9.079-1.349,14.695.852,21.368c1.742,5.287,3.411,12.787,4.956,18.962s5.58,14.79,5.58,14.79c5.422-.01,5.811-.221,5.811-.221l24.883-9.61,2.838-2.828s-5.884-10.368-7.1-12c-.326-.434,3.3-.892,1.5-3.92-.873-1.467-2.2-7.84-3.183-8.509s-5.69.81-5.69.81-8-14.236-8.255-14.738c-.849-1.656.878-3.24.878-3.24l10.355-6.051,3.172-2.071-13.24-4.6.8,1.728a6.164,6.164,0,0,1-4.753,1.638,10.751,10.751,0,0,1-4.328-1.473c.455-1.789-.041-2.083-.041-2.083Z" transform="translate(16.799 33.076)" fill="#405ff0"/>
      <path id="Path_2459" data-name="Path 2459" d="M354.663,142.734s3.587,4.24,6.847,8.479,14.512,16.307,15.979,21.035-2.984,21.234-4.076,25.927a15.308,15.308,0,0,1-1.356,3.8c-.605,1.362.3,1.52-.365,2.638-.978,1.633-2.113,1.118-2.757,2.787s2.065,1.232,1.682,2.584-1.795,1.143-2.109,2.59,1.685,3.267,1.685,3.267L382.727,217s6.951-28.543,8.426-33.7,2.211-7.162,2-12.112S380.619,132,380.619,132Z" transform="translate(22.451 51.047)" fill="#1f298c"/>
      <path id="Path_2460" data-name="Path 2460" d="M356.26,99.6l1.313-2.458s-4.253-4.763-2.854-5.927,3.35.946,3.35.946.436-9.366,6.187-9.654c4.145-.208,4.671,4.03,4.671,4.03s3.249-7.552-.133-10.056-2.77-2.69-4.266-2.87-.211.053-4.437,1.043c-4.012.938-2.965,4.981-4.683,6.052s-2.466.3-3.43,1.083c-2.026,1.643-3.1,2.334-3.066,7.721S356.26,99.6,356.26,99.6Z" transform="translate(19.796 24.505)" fill="#1f298c"/>
      <path id="Path_2461" data-name="Path 2461" d="M366.486,189.226l-2.011,10.137s.362,1.714,5.776,1.444,6.139.091,8.755.722,7.581.091,7.581.091l-.991-2.347s-5.105-1.774-6.909-3.53c-1.489-1.451-3.559-5.592-3.559-5.592Z" transform="translate(26.98 77.461)" fill="#ff4500"/>
      <path id="Path_2462" data-name="Path 2462" d="M347.314,183.229l-4.445,8.781s-.215,1.739,4.994,3.242,5.776,2.078,8.046,3.525,5.605,2.789,7.141,2.546.2-1.652-.992-3.518-4.224-3.253-4.778-5.257a43.931,43.931,0,0,1-.927-5.07Z" transform="translate(17.007 74.693)" fill="#ff4500"/>
      <path id="Path_2463" data-name="Path 2463" d="M461.342,101.935l1.222,25.838,21.191-.022-1.583-27.494Z" transform="translate(71.691 36.396)" fill="#1f298c"/>
      <path id="Path_2464" data-name="Path 2464" d="M359.461,145.393c-.877,0-4.329-.11-6.723-1.733a.365.365,0,1,1,.409-.605c2.284,1.551,5.731,1.6,6.4,1.606l17.214-10.855a.369.369,0,0,1,.108-.045,16.638,16.638,0,0,0,3.876-1.47,1.837,1.837,0,0,0,.949-1.887l-5.826-10.572a13.3,13.3,0,0,0-4.183,1.3c-.8.63,0,1.935.006,1.948a.366.366,0,0,1-.132.513l-6.34,3.522c-.246.767-1.288,3.765-2.7,4.307a.655.655,0,0,1-.735-.086c-.392-.374-.167-1.124.3-2.529a8.743,8.743,0,0,0,.494-1.883,6.127,6.127,0,0,0-.943.782c-.713.668-1.329,1.242-1.9,1.061a.885.885,0,0,1-.548-.756c-.332-1.71,1.827-3.195,2.61-3.673-.783-2.223-5.93-16.757-7.913-20.672a4.949,4.949,0,0,0-6.19-2.461.366.366,0,0,1-.254-.685c.048-.019,4.8-1.716,7.1,2.816,2.159,4.265,7.811,20.363,8.05,21.047a.368.368,0,0,1-.171.443c-.782.422-2.757,1.792-2.512,3.046a.458.458,0,0,0,.075.212c.181,0,.814-.592,1.155-.911.725-.678,1.408-1.317,1.934-.858.452.4.2,1.25-.294,2.723a10.516,10.516,0,0,0-.462,1.662c.934-.509,1.856-2.645,2.249-3.94a.368.368,0,0,1,.172-.213l6.153-3.419a2.065,2.065,0,0,1,.344-2.571c1.131-.892,4.623-1.462,4.772-1.486a.361.361,0,0,1,.377.184l5.976,10.846a.369.369,0,0,1,.035.086,2.565,2.565,0,0,1-1.263,2.727,16.808,16.808,0,0,1-4.031,1.545l-17.251,10.878a.353.353,0,0,1-.184.056C359.644,145.392,359.574,145.393,359.461,145.393Z" transform="translate(19.008 36.365)" fill="#130514"/>
      <path id="Path_2465" data-name="Path 2465" d="M373.554,194.9a.379.379,0,0,1-.361-.431l3.753-20.357a.362.362,0,0,1,.251-.282l2.789-.867-1.368-.474a.366.366,0,0,1,.025-.7l2.162-.59-2.705-.9a.365.365,0,0,1-.194-.155c-4.259-6.883-13.005-20.2-15.631-21.365-5.338-2.356-6.909-9.24-6.973-9.532a.365.365,0,0,1,.713-.158c.015.069,1.559,6.817,6.555,9.022,3.389,1.5,14.781,19.755,15.887,21.536l3.724,1.238a.365.365,0,0,1-.019.7l-2.188.6,1.3.452a.365.365,0,0,1-.012.694l-3.639,1.13L373.914,194.6A.367.367,0,0,1,373.554,194.9Z" transform="translate(22.741 54.191)" fill="#130514"/>
      <g id="Group_1869" data-name="Group 1869" transform="translate(483.922 193.663)">
        <path id="Path_2466" data-name="Path 2466" d="M502.2,200.479a8.233,8.233,0,0,0-6.463-5.893l-38.191-6.13a.721.721,0,1,0-.228,1.424l38.191,6.13a6.809,6.809,0,0,1,5.314,4.893l2.824,9.186h-63.4a.721.721,0,0,0,0,1.443h6.051a6.072,6.072,0,0,0-1.916,4.459,5.458,5.458,0,1,0,10.88,0,6.074,6.074,0,0,0-1.918-4.459H480.69a6.072,6.072,0,0,0-1.916,4.459,5.458,5.458,0,1,0,10.88,0,6.074,6.074,0,0,0-1.918-4.459h16.886a.719.719,0,0,0,.688-.932Zm-48.385,15.512a4.022,4.022,0,1,1-4-4.459A4.252,4.252,0,0,1,453.813,215.991Zm34.4,0a4.023,4.023,0,1,1-4-4.459A4.253,4.253,0,0,1,488.212,215.991Z" transform="translate(-422.303 -116.561)" fill="#161e65"/>
        <path id="Path_2467" data-name="Path 2467" d="M527.621,139.263a3.194,3.194,0,0,0-3.055,2.644h-1.4a6.1,6.1,0,0,0-5.861,5.335l-1.545,9.464H432.369a4.421,4.421,0,0,0-3.386,1.595,5.249,5.249,0,0,0-1.179,4.227l4.2,27.6a.71.71,0,0,0-.187.361.719.719,0,0,0,.354.732l1.134,7.453a4.9,4.9,0,0,0,3.936,4.208l65.4,10.759a4.829,4.829,0,0,0,.805.067,5.041,5.041,0,0,0,2.945-.963,5.781,5.781,0,0,0,2.308-3.816l10.032-61.452a4.671,4.671,0,0,1,4.439-4.125h1.4a3.194,3.194,0,0,0,3.055,2.644,3.374,3.374,0,0,0,0-6.731Zm-16.812,47.779-6.042-.588,1.774-12.358,6.321.362Zm-2.4,14.683-5.71-.893,1.859-12.95,6.014.585Zm-76.364-20.9,5.488.533.767,9.408-4.857-.759Zm38.409,2.287L460.051,182.1V171.428l10.591.608Zm1.625-11,10.137.582-.71,11.491-9.613-.935Zm-13.474,9.844-9.376-.912-.5-10.272,9.876.567Zm0,1.45v10.531l-8.818-1.378-.488-10.059Zm1.443.139,10.383,1.011-.187,11.2-10.2-1.593Zm11.823,1.15,9.547.93-.729,11.761-9.006-1.406Zm10.982,1.068,10.126.985L491.633,199.1l-9.51-1.486Zm.089-1.44.715-11.546,10.782.618-1.3,11.921Zm.8-12.986.817-13.2h11.544L494.6,171.967Zm-1.44-.082-10.2-.586.207-12.53H483.12Zm-11.643-.669-10.615-.608V158.147h10.823Zm-12.058-.691-9.946-.571-.542-11.184h10.488Zm-11.391-.653-9.266-.532-.862-10.57h9.589Zm.07,1.447.5,10.215-8.908-.867-.805-9.877Zm-9.87,9.206-5.592-.544-1.467-9.635,6.258.36Zm1.577,1.6,8.86.862.484,9.972L439.769,191Zm9.415,12.3.462,9.522-8.207-1.35-.776-9.5Zm1.453.227,8.746,1.367v9.531l-8.283-1.362Zm10.189,1.592,10.173,1.59-.161,9.6-10.012-1.647Zm11.611,1.815,8.94,1.4-.595,9.616-8.506-1.4Zm10.371,1.619,9.442,1.476-1.052,9.63-8.986-1.479Zm10.868,1.7,8.17,1.277-1.386,9.655-7.838-1.291Zm.156-1.435,1.359-12.429,8.708.846-1.847,12.868Zm10.272-13.011-8.756-.852,1.31-11.976,9.212.528Zm-7.29-14.263,1.52-13.9h9.814L505.3,172.582ZM430.074,159.24a3.01,3.01,0,0,1,2.295-1.093h3.274l.855,10.487-6.362-.365-.908-5.957A3.826,3.826,0,0,1,430.074,159.24Zm4.658,39.215-1.058-6.948,4.75.743.775,9.49-1.722-.282A3.465,3.465,0,0,1,434.732,198.455Zm70.815,13.116a3.574,3.574,0,0,1-2.675.645l-1.763-.289,1.388-9.667,5.683.889-.906,5.544A4.416,4.416,0,0,1,505.547,211.571ZM513.1,173.03l-6.349-.365,2.084-14.518h6.694Zm14.525-28.477a1.94,1.94,0,1,1,1.69-1.925A1.82,1.82,0,0,1,527.621,144.552Z" transform="translate(-427.74 -139.263)" fill="#161e65"/>
      </g>
      <g id="Group_1870" data-name="Group 1870" transform="translate(511.938 67.68)">
        <path id="Path_2468" data-name="Path 2468" d="M451.4,53.316h61.746a4.73,4.73,0,0,1,0,9.408H451.4a4.73,4.73,0,0,1,0-9.408Z" transform="translate(-446.794 -52.951)" fill="#fff"/>
        <path id="Path_2469" data-name="Path 2469" d="M513.257,63.2H451.512a5.093,5.093,0,0,1,0-10.139h61.746a5.093,5.093,0,0,1,0,10.139ZM451.512,53.8a4.367,4.367,0,0,0,0,8.677h61.746a4.367,4.367,0,0,0,0-8.677Z" transform="translate(-446.909 -53.066)" fill="#004def"/>
      </g>
      <path id="Path_2470" data-name="Path 2470" d="M359.384,57.149a8.742,8.742,0,1,1-8.739-8.746A8.743,8.743,0,0,1,359.384,57.149Z" transform="translate(16.561 12.461)" fill="#daeaff"/>
      <path id="Path_2471" data-name="Path 2471" d="M353.934,159.07a3.62,3.62,0,1,1-3.619-3.622A3.621,3.621,0,0,1,353.934,159.07Z" transform="translate(18.772 61.87)" fill="#fff"/>
      <path id="Path_2473" data-name="Path 2473" d="M334.806,137.823a3.8,3.8,0,1,1-3.8-3.8A3.8,3.8,0,0,1,334.806,137.823Z" transform="translate(9.778 51.981)" fill="#daeaff"/>
      <path id="Path_2474" data-name="Path 2474" d="M440.331,32.725a6.532,6.532,0,0,0-11.16,4.629,6.43,6.43,0,0,0,1.9,4.614,6.541,6.541,0,0,0,9.258-9.243Zm-1.025,8.235a5.152,5.152,0,0,1-3.6,1.485,5.07,5.07,0,0,1-5.089-5.091,5.01,5.01,0,0,1,1.485-3.6,5.088,5.088,0,0,1,8.695,3.6A5.153,5.153,0,0,1,439.306,40.96Z" transform="translate(56.841 4.341)" fill="#b1c7f0"/>
      <path id="Path_2475" data-name="Path 2475" d="M348.164,69.651A6.532,6.532,0,0,0,337,74.279a6.435,6.435,0,0,0,1.9,4.614,6.541,6.541,0,0,0,9.258-9.243Zm-1.025,8.233a5.116,5.116,0,0,1-7.208,0,5.1,5.1,0,1,1,8.695-3.6A5.147,5.147,0,0,1,347.139,77.884Z" transform="translate(14.3 21.384)" fill="#b1c7f0"/>
      <path id="Path_2476" data-name="Path 2476" d="M414.575,58.88a4.646,4.646,0,0,0-7.938,3.291,4.573,4.573,0,0,0,1.353,3.281,4.652,4.652,0,0,0,6.584-6.573Zm-.728,5.855a3.666,3.666,0,0,1-2.564,1.057,3.606,3.606,0,0,1-3.62-3.62,3.562,3.562,0,0,1,1.055-2.564,3.618,3.618,0,0,1,6.184,2.564A3.662,3.662,0,0,1,413.847,64.735Z" transform="translate(46.441 16.667)" fill="#fff"/>
      <path id="Path_2477" data-name="Path 2477" d="M486.379,223.485s.761.01,1.206.01c7.011-.009,42.408-.7,44.246-13.328a4.718,4.718,0,0,0,.015-1.264,3.016,3.016,0,0,0-.132-.636c-1.732-5.222-14.617-2.827-15.425-2.667.661-.262,9.056-3.517,15.655-5.323,5.039-1.384,12.265-2.168,16.815-5.053a8.2,8.2,0,0,0,.738-.5,8.469,8.469,0,0,0,2.944-3.613c2.666-6.5-12.733-6.823-12.733-6.823s12.346-2.406,20.933-7.2a6.791,6.791,0,0,0,.637-.354c5.152-3.011,8.731-6.907,6.995-11.7a5.308,5.308,0,0,0-.24-.6c-.054-.114-.1-.216-.159-.329-4.793-9.623-32.172,11.365-32.877,11.9.158-.422,4.106-10.522.063-12.315a3.087,3.087,0,0,0-1.821-.191,3.253,3.253,0,0,0-.716.172c-3.938,1.291-8.81,7.944-11.615,13.878-2.315,4.931-6.391,12.106-6.687,12.619.181-.558,2.469-7.749-.592-8.445a2.649,2.649,0,0,0-.307-.045,1.534,1.534,0,0,0-.387.023c-3.7.529-9.306,11.416-14.11,19.777C493.851,210.124,486.379,223.485,486.379,223.485Z" transform="translate(83.248 64.703)" fill="#829de0"/>
      <path id="Path_2478" data-name="Path 2478" d="M486.534,222.879c.206,0,.535.01.979.01,2.172-1.847,5.674-4.857,9.869-8.527l34.392-6.066a2.751,2.751,0,0,0-.132-.636l-33.328,5.881c6.253-5.494,13.881-12.311,20.94-18.967a.276.276,0,0,0,.193.08l29.24-.038a8.186,8.186,0,0,0,.738-.5.259.259,0,0,0-.25-.137l-29.331.038c.626-.592,1.24-1.185,1.853-1.766l30.443-1.849a.32.32,0,0,0,.3-.342.364.364,0,0,0-.342-.3l-29.68,1.792c.183-.171.376-.342.557-.525,7.559-7.293,18.615-13.863,28.248-18.77l9.35,4.221a6.8,6.8,0,0,0,.637-.354.566.566,0,0,0-.149-.136l-9.1-4.108c6.79-3.435,12.8-6.038,16.242-7.453a6.441,6.441,0,0,0-.24-.6c-3.549,1.462-9.806,4.167-16.858,7.761l-.067.035c-9.7,4.952-20.87,11.567-28.521,18.941-.852.833-1.728,1.665-2.615,2.508l13.245-30a.259.259,0,0,0,.022-.183,3.252,3.252,0,0,0-.716.172L518.81,193.952a.244.244,0,0,0,0,.158c-7.026,6.622-14.63,13.416-20.873,18.9l15.6-31.8a.249.249,0,0,0,.022-.091,2.362,2.362,0,0,0-.307-.045,1.534,1.534,0,0,0-.387.023l-16.1,32.846c-.023.034-.012.067-.012.1C492.265,217.977,488.592,221.124,486.534,222.879Z" transform="translate(83.319 65.308)" fill="#fff"/>
      <path id="Path_2479" data-name="Path 2479" d="M361.1,94.066a7.756,7.756,0,0,1-5.77-3.205.365.365,0,1,1,.6-.419c.02.028,2.033,2.837,5.183,2.894a.365.365,0,0,1-.01.731Z" transform="translate(22.728 31.793)" fill="#130514"/>
      <path id="Path_2480" data-name="Path 2480" d="M390.833,101.914H389.8V101.4s0-.761.063-2.115l.025-.517,1.035.048-.025.517c-.061,1.321-.061,2.067-.061,2.067Zm.3-6.194-1.032-.094.31-3.107,1.029.113Zm.7-6.161-1.025-.149.474-3.082,1.023.167Zm1.025-6.112-1.016-.2.64-3.053,1.011.222Zm1.352-6.045-1-.259.811-3.012,1,.279Zm1.7-5.953-.985-.319.991-2.957.979.339Zm2.064-5.83L397,65.234l1.19-2.884.953.406Zm2.46-5.668L399.5,59.5l.227-.466q.454-.934.938-1.864l.24-.46.918.479-.238.459C401.262,58.257,400.427,59.951,400.427,59.951Zm2.888-5.456-.892-.529.266-.446q.531-.894,1.092-1.779l.278-.437.874.555-.278.437q-.552.87-1.076,1.754Zm3.344-5.178-.838-.608.3-.419q.612-.844,1.254-1.671l.319-.408.817.636-.317.409q-.631.811-1.235,1.641Zm3.822-4.828-.772-.691.345-.386q.695-.776,1.421-1.532l.36-.373.747.718-.359.374q-.713.741-1.4,1.5Zm4.3-4.393-.691-.773.386-.345q.776-.693,1.583-1.364l.4-.33.661.8-.4.33q-.794.658-1.552,1.337Zm4.769-3.875-.6-.846.424-.3q.851-.6,1.732-1.171l.434-.281.563.87-.434.281q-.866.559-1.7,1.147Zm73.317-2.891-.459-.238c-.541-.281-1.156-.589-1.842-.918l-.466-.224.447-.934.468.225c.7.333,1.32.646,1.869.931l.459.238Zm-68.128-.4-.488-.913.811-.436c.5-.265,1.96-1,1.96-1l.463.927s-1.444.729-1.935.989ZM487.29,30.7s-1.726-.7-2.393-.96l-.484-.186.371-.966.484.184c.675.259,2.416.97,2.416.97Zm-57.012-.487-.409-.95.477-.206q.965-.414,1.929-.8l.481-.189.38.963-.481.19q-.951.375-1.9.783Zm51.23-1.69-2.954-.922.3-.992s1.84.558,2.488.77l.493.161Zm-45.478-.531L435.708,27l.493-.161q1-.327,1.994-.618l.5-.145.291.994-.5.145q-.978.287-1.963.609Zm39.552-1.2-3.018-.691.218-1.011,3.043.7ZM441.958,26.3l-.228-1.01.5-.114c.684-.155,1.364-.3,2.043-.431l.509-.1.2,1.016-.51.1q-1,.2-2.011.425Zm27.575-.769s-1.859-.288-2.547-.38l-.513-.067.137-1.027s1.9.262,2.575.371l.513.082Zm-21.514-.364-.136-1.026.515-.067c.693-.092,1.386-.172,2.074-.241l.514-.053.1,1.032-.514.051q-1.015.1-2.043.237Zm15.392-.4-.516-.038q-1.015-.079-2.053-.127l-.517-.025.05-1.035.516.025q1.055.048,2.084.129l.516.039Zm-9.255-.17-.041-1.035.516-.02c.7-.028,1.4-.045,2.087-.054l.517-.006.012,1.036-.517.006c-.68.009-1.367.025-2.056.053Z" transform="translate(38.668 0.956)" fill="#004def"/>
    </g>
  </g>
</svg>
