<svg xmlns="http://www.w3.org/2000/svg" width="203.053" height="197.299" viewBox="0 0 203.053 197.299">
  <g id="verification_code_image" transform="translate(-160.315 -103.671)">
    <g id="Group_52723" data-name="Group 52723" transform="translate(162.005 102.301)">
      <g id="Group_52712" data-name="Group 52712" transform="translate(1.699)">
        <path id="Path_23171" data-name="Path 23171" d="M69.749-.975A67.44,67.44,0,0,1,138.523,67.8c-.539,38.521-32.2,70.185-70.724,70.724A67.44,67.44,0,0,1-.975,69.749C-.437,31.228,31.228-.437,69.749-.975Z" transform="translate(0 100.019) rotate(-45)" opacity="0.12"/>
        <path id="Path_23134" data-name="Path 23134" d="M303.043,205.636V227.41a65.147,65.147,0,0,1-8.037,9.348V205.636h-.012v-.074c-.036-.161-3.944-3.4-6.949-5.861v-1.36l3.636-.94a6.915,6.915,0,0,1,4.464.346c.63.273,1.286.532,1.941.742v2.844a63.283,63.283,0,0,1,4.945,4.229v.074Z" transform="translate(-149.826 -86.892)" fill="#7fd6cb" opacity="0.73"/>
      </g>
      <g id="Group_52722" data-name="Group 52722" transform="translate(0 8.497)">
        <g id="Group_52713" data-name="Group 52713" transform="translate(1.114)">
          <path id="Path_23135" data-name="Path 23135" d="M163.011,110.469l19,44.591,13.89-9.5,8.05,11.7,1.453-19.731,16.811-10.244Z" transform="translate(-163.011 -110.469)" fill="#ffd176"/>
          <path id="Path_23136" data-name="Path 23136" d="M198.38,143.018l-16.969,11.613,13.89-9.5,8.05,11.7,1.453-19.731-26.787-15.953Z" transform="translate(-162.406 -110.04)" fill="#e6b24b"/>
          <path id="Path_23137" data-name="Path 23137" d="M204.448,141.93l-26.431-20.789L204.8,137.094Z" transform="translate(-162.406 -110.04)" fill="#b28429"/>
        </g>
        <g id="Group_52714" data-name="Group 52714" transform="translate(16.327 56.589)">
          <path id="Path_23138" data-name="Path 23138" d="M202.72,160.9c-.15-.869-.34-1.735-.565-2.577l1.3-.348c.235.88.434,1.787.591,2.7Z" transform="translate(-176.648 -157.978)" fill="#00c8b7"/>
          <path id="Path_23139" data-name="Path 23139" d="M187.97,190.874a11.148,11.148,0,0,1-5.418-1.808l.746-1.123a9.807,9.807,0,0,0,4.761,1.585Zm5.6-1.1-.6-1.21a13.578,13.578,0,0,0,4.035-3.178l1,.9A14.87,14.87,0,0,1,193.574,189.773ZM178.8,184.758a11.124,11.124,0,0,1-1.163-4.9c0-.136,0-.274.008-.41l.017-.292,1.345.1-.014.245c0,.122-.007.24-.007.358a9.757,9.757,0,0,0,1.024,4.3Zm52.195-.308-.006-1.349c1.757-.008,3.565-.08,5.374-.213l.1,1.345C234.62,184.369,232.781,184.442,230.993,184.45Zm-5.472-.177-.861-.067c-1.658-.138-3.161-.325-4.594-.573l.229-1.329c1.394.241,2.859.423,4.476.559l.844.063Zm16.374-.614-.182-1.337c1.735-.236,3.523-.532,5.316-.877l.255,1.324C245.468,183.121,243.655,183.42,241.895,183.66ZM214.706,182.3a26.128,26.128,0,0,1-4.419-1.958c-.211-.119-.422-.242-.63-.368l.7-1.156c.2.119.394.235.6.347a24.786,24.786,0,0,0,4.192,1.858Zm-13.463-.537-1.17-.672a30.3,30.3,0,0,0,2.225-4.811l1.269.458A31.765,31.765,0,0,1,201.243,181.759Zm51.373-.15L252.3,180.3c1.687-.41,3.443-.875,5.218-1.383l.371,1.3C256.094,180.726,254.322,181.2,252.616,181.609Zm10.483-2.988-.416-1.284q2.572-.833,5.118-1.74l.451,1.272Q265.69,177.779,263.1,178.622Zm-57.946-1.778a37.337,37.337,0,0,0-4.016-2.642l-.451-.239.618-1.2c.161.082.321.169.481.255a39.073,39.073,0,0,1,4.164,2.736ZM180.9,174.815l-.944-.964a11.524,11.524,0,0,1,4.965-2.664l.454,1.272A10.506,10.506,0,0,0,180.9,174.815Zm14.861-2.634a21.433,21.433,0,0,0-4.675-.517l-.547.006-.033-1.348a22.821,22.821,0,0,1,5.551.543Zm9.235-.795-1.328-.236a31.319,31.319,0,0,0,.479-5.282l1.349.006A32.628,32.628,0,0,1,204.992,171.387Z" transform="translate(-177.635 -157.66)" fill="#00c8b7"/>
          <path id="Path_23140" data-name="Path 23140" d="M269.728,174.7l-.48-1.261q1.259-.481,2.515-.973l.49,1.258Q270.994,174.217,269.728,174.7Z" transform="translate(-173.947 -157.395)" fill="#00c8b7"/>
        </g>
        <path id="Path_23141" data-name="Path 23141" d="M310.588,206.767a1.349,1.349,0,0,1-.13-2.691,32.046,32.046,0,0,0,21.12-10.959,1.349,1.349,0,0,1,2.034,1.772,34.718,34.718,0,0,1-22.893,11.872Q310.652,206.767,310.588,206.767Z" transform="translate(-144.664 -96.51)" fill="#00c8b7"/>
        <g id="Group_52718" data-name="Group 52718" transform="translate(50.051 54.73)">
          <g id="Group_52717" data-name="Group 52717">
            <path id="Path_23142" data-name="Path 23142" d="M298.368,206.774l-47,27.716-47-27.716a.269.269,0,0,1,.007-.076c.038-.176,2.633-2.342,6.589-5.556.037-.03.069-.06.107-.092,12.977-10.537,40.294-32.115,40.294-32.115s27.318,21.578,40.3,32.115c4.017,3.26,6.658,5.463,6.7,5.648A.268.268,0,0,1,298.368,206.774Z" transform="translate(-204.371 -145.983)" fill="#7a4c08"/>
            <g id="Group_52715" data-name="Group 52715" transform="translate(7.743)">
              <path id="Path_23143" data-name="Path 23143" d="M270.4,146.871H219.69a7.876,7.876,0,0,0-7.876,7.876v76.67a7.875,7.875,0,0,0,7.876,7.875h63.539a7.875,7.875,0,0,0,7.876-7.875v-63.84Z" transform="translate(-211.814 -146.871)" fill="#fff"/>
              <path id="Path_23144" data-name="Path 23144" d="M268.131,159.7a7.875,7.875,0,0,0,7.876,7.875h12.831l-20.706-20.706Z" transform="translate(-209.547 -146.871)" fill="#e6e8e8"/>
              <rect id="Rectangle_1627" data-name="Rectangle 1627" width="23.105" height="23.105" rx="2.697" transform="translate(11.995 12.96)" fill="#634bbf"/>
              <path id="Path_23145" data-name="Path 23145" d="M267.609,187.713H225.631a2.261,2.261,0,0,0-2.26,2.26h0a2.261,2.261,0,0,0,2.26,2.26h41.977a2.261,2.261,0,0,0,2.26-2.26h0A2.261,2.261,0,0,0,267.609,187.713Z" transform="translate(-211.349 -145.227)" fill="#d9dbdb"/>
              <path id="Path_23146" data-name="Path 23146" d="M267.609,198.537H225.631a2.261,2.261,0,0,0-2.26,2.26h0a2.261,2.261,0,0,0,2.26,2.26h41.977a2.261,2.261,0,0,0,2.26-2.26h0A2.261,2.261,0,0,0,267.609,198.537Z" transform="translate(-211.349 -144.791)" fill="#d9dbdb"/>
              <path id="Path_23147" data-name="Path 23147" d="M248.545,209.037H225.631a2.261,2.261,0,0,0-2.26,2.26h0a2.261,2.261,0,0,0,2.26,2.26h22.914a2.261,2.261,0,0,0,2.26-2.26h0A2.261,2.261,0,0,0,248.545,209.037Z" transform="translate(-211.349 -144.368)" fill="#d9dbdb"/>
            </g>
            <g id="Group_52716" data-name="Group 52716" transform="translate(0.005 60.791)">
              <path id="Path_23148" data-name="Path 23148" d="M298.373,205.309V250.4a5.742,5.742,0,0,1-5.728,5.727H210.088a5.729,5.729,0,0,1-5.712-5.727V205.309l47,27.71Z" transform="translate(-204.376 -205.309)" fill="#f9c660"/>
              <path id="Path_23149" data-name="Path 23149" d="M296.723,253.6l-30.25-30.25-15.161,8.939-15.166-8.942L205.9,253.6a5.676,5.676,0,0,0,4.132,1.8h82.557A5.7,5.7,0,0,0,296.723,253.6Z" transform="translate(-204.315 -204.583)" fill="#ffd176"/>
            </g>
          </g>
        </g>
        <g id="Group_52721" data-name="Group 52721" transform="translate(133.601 43.261)">
          <g id="Group_52720" data-name="Group 52720">
            <path id="Path_23150" data-name="Path 23150" d="M304.842,145.813a28.352,28.352,0,0,0-25.305,26.04,28.035,28.035,0,0,0,4.953,18.088,6.847,6.847,0,0,1,.652,6.527l-2.231,5.372,9.12-2.365a6.874,6.874,0,0,1,4.465.345,28.235,28.235,0,1,0,8.347-54.007Z" transform="translate(-279.463 -145.673)" fill="#53409b"/>
            <g id="Group_52719" data-name="Group 52719" transform="translate(13.459 16.324)">
              <path id="Path_23151" data-name="Path 23151" d="M307.875,187.479l1.552-1.551s-1.233-2.905,3.935-7.8c3.075-2.916,3.764-5.739,3.513-8.046a8.066,8.066,0,0,0-7.072-7.073c-2.308-.25-5.132.438-8.046,3.514-4.9,5.167-7.8,3.934-7.8,3.934l-1.552,1.552Z" transform="translate(-292.402 -161.301)" fill="#fff"/>
              <path id="Path_23152" data-name="Path 23152" d="M295.8,177.42a4.276,4.276,0,0,0,5.977,5.976Z" transform="translate(-292.298 -160.719)" fill="#fff"/>
              <path id="Path_23153" data-name="Path 23153" d="M317.124,164.954l-.966.966a9.343,9.343,0,0,0-2.978-2.963l.974-.975a2.1,2.1,0,1,1,2.971,2.971Z" transform="translate(-291.566 -161.365)" fill="#fff"/>
            </g>
          </g>
          <path id="Path_23154" data-name="Path 23154" d="M306.839,145.692a24.387,24.387,0,1,1-24.929,39.869,28.211,28.211,0,0,0,2.481,4.379,6.847,6.847,0,0,1,.652,6.527l-2.231,5.372,9.12-2.365a6.874,6.874,0,0,1,4.465.345,28.23,28.23,0,1,0,10.442-54.128Z" transform="translate(-279.365 -145.673)" fill="#634bbf" opacity="0.67"/>
        </g>
        <path id="Path_23155" data-name="Path 23155" d="M164.664,123.213l6.165,14.145a1.422,1.422,0,0,1-.741,1.871l-.219.095a1.422,1.422,0,0,1-1.874-.752l-5.944-14.241a1.421,1.421,0,0,1,.818-1.885h0A1.421,1.421,0,0,1,164.664,123.213Z" transform="translate(-161.939 -109.991)" fill="#ffb031"/>
      </g>
    </g>
    <g id="Group_52724" data-name="Group 52724" transform="translate(160.315 106.435)">
      <path id="Path_23156" data-name="Path 23156" d="M187.949,218.877a4.532,4.532,0,1,0,4.531,4.532A4.531,4.531,0,0,0,187.949,218.877Zm0,6.366a1.834,1.834,0,1,1,1.834-1.834A1.834,1.834,0,0,1,187.949,225.243Z" transform="translate(-159.385 -89.094)" fill="#baf4ee"/>
      <path id="Path_23157" data-name="Path 23157" d="M304.7,236.507a4.532,4.532,0,1,0,4.531,4.531A4.531,4.531,0,0,0,304.7,236.507Zm0,6.366a1.834,1.834,0,1,1,1.834-1.835A1.835,1.835,0,0,1,304.7,242.873Z" transform="translate(-145.648 -84.169)" fill="#baf4ee"/>
      <path id="Path_23158" data-name="Path 23158" d="M340.3,168.839a3.47,3.47,0,1,0,3.47,3.47A3.47,3.47,0,0,0,340.3,168.839Zm0,4.875a1.4,1.4,0,1,1,1.4-1.4A1.4,1.4,0,0,1,340.3,173.714Z" transform="translate(-141.863 -96.823)" fill="#baf4ee"/>
      <path id="Path_23159" data-name="Path 23159" d="M281.569,115.477a3.669,3.669,0,1,0,3.669,3.669A3.669,3.669,0,0,0,281.569,115.477Zm0,5.154a1.485,1.485,0,1,1,1.484-1.485A1.485,1.485,0,0,1,281.569,120.631Z" transform="translate(-148.054 -105.904)" fill="#baf4ee"/>
      <path id="Path_23160" data-name="Path 23160" d="M168.757,197.656a3.857,3.857,0,1,0,3.858,3.857A3.857,3.857,0,0,0,168.757,197.656Z" transform="translate(-160.13 -92.42)" fill="#baf4ee"/>
      <path id="Path_23161" data-name="Path 23161" d="M317.493,209.931a2.806,2.806,0,1,0,2.806,2.806A2.806,2.806,0,0,0,317.493,209.931Z" transform="translate(-142.754 -90.711)" fill="#baf4ee"/>
      <path id="Path_23162" data-name="Path 23162" d="M228.227,116.586a4.1,4.1,0,1,0,4.1,4.1A4.1,4.1,0,0,0,228.227,116.586Z" transform="translate(-153.642 -105.86)" fill="#baf4ee"/>
      <path id="Path_23163" data-name="Path 23163" d="M249.287,259.374a2.988,2.988,0,1,0,2.988,2.989A2.988,2.988,0,0,0,249.287,259.374Z" transform="translate(-151.389 -83.249)" fill="#baf4ee"/>
      <path id="Path_23164" data-name="Path 23164" d="M304.908,131.79a3.507,3.507,0,1,0,3.508,3.508A3.507,3.507,0,0,0,304.908,131.79Z" transform="translate(-145.619 -102.419)" fill="#baf4ee"/>
      <circle id="Ellipse_48" data-name="Ellipse 48" cx="1.996" cy="1.996" r="1.996" transform="translate(24.051 59.436)" fill="#baf4ee"/>
      <path id="Path_23165" data-name="Path 23165" d="M341.461,152.026a3.406,3.406,0,1,0,3.406,3.407A3.406,3.406,0,0,0,341.461,152.026Z" transform="translate(-141.813 -99.367)" fill="#baf4ee"/>
      <circle id="Ellipse_49" data-name="Ellipse 49" cx="2.173" cy="2.173" r="2.173" transform="translate(4.541 72.493)" fill="#baf4ee"/>
      <path id="Path_23166" data-name="Path 23166" d="M254.788,109.715l1.365-1.365a1.216,1.216,0,0,0-1.72-1.721l-1.365,1.365L251.7,106.63a1.217,1.217,0,0,0-1.721,1.721l1.365,1.365-1.365,1.365A1.217,1.217,0,0,0,251.7,112.8l1.365-1.365,1.365,1.365a1.216,1.216,0,0,0,1.72-1.721Z" transform="translate(-151.016 -106.275)" fill="#baf4ee"/>
      <path id="Path_23167" data-name="Path 23167" d="M165.476,149.365,166.841,148a1.217,1.217,0,0,0-1.721-1.721l-1.365,1.365-1.365-1.365A1.217,1.217,0,1,0,160.67,148l1.365,1.365-1.365,1.365a1.217,1.217,0,0,0,1.721,1.721l1.365-1.365,1.365,1.365a1.217,1.217,0,0,0,1.721-1.721Z" transform="translate(-160.315 -100.287)" fill="#baf4ee"/>
      <path id="Path_23168" data-name="Path 23168" d="M320.192,229.462l1.157-1.156a1.031,1.031,0,0,0-1.457-1.457L318.736,228l-1.156-1.156a1.031,1.031,0,0,0-1.457,1.457l1.156,1.156-1.156,1.156a1.031,1.031,0,1,0,1.457,1.457l1.156-1.156,1.156,1.156a1.031,1.031,0,1,0,1.457-1.457Z" transform="translate(-142.709 -88.198)" fill="#baf4ee"/>
    </g>
  </g>
</svg>
