<svg xmlns="http://www.w3.org/2000/svg" width="237.889" height="294" viewBox="0 0 237.889 294">
  <g id="welcome_image" transform="translate(-313.243 -127.266)">
    <g id="Group_1785" data-name="Group 1785" transform="translate(313.243 134.369)">
      <ellipse id="Ellipse_3" data-name="Ellipse 3" cx="103.335" cy="13.614" rx="103.335" ry="13.614" transform="translate(31.218 259.669)" opacity="0.1"/>
      <rect id="Rectangle_87" data-name="Rectangle 87" width="111.203" height="215.56" rx="11.235" transform="translate(40.154)" fill="#fff"/>
      <path id="Path_2186" data-name="Path 2186" d="M430.1,161.832c0,23.117-17.8,41.857-39.752,41.857s-39.753-18.741-39.753-41.857,17.8-41.859,39.753-41.859S430.1,138.714,430.1,161.832Z" transform="translate(-283.664 -119.509)" fill="#baedb2" opacity="0.05"/>
      <path id="Path_2187" data-name="Path 2187" d="M430.331,163.02c0,22.6-17.4,40.918-38.86,40.918s-38.86-18.321-38.86-40.918,17.4-40.92,38.86-40.92S430.331,140.419,430.331,163.02Z" transform="translate(-293.063 -117.825)" fill="#baedb2" opacity="0.3"/>
      <path id="Path_2188" data-name="Path 2188" d="M424.837,160.245a35.151,35.151,0,1,1-35.15-35.152A35.15,35.15,0,0,1,424.837,160.245Z" transform="translate(-291.279 -115.049)" fill="#baedb2" opacity="0.5"/>
      <path id="Path_2189" data-name="Path 2189" d="M417.036,157.71a29.883,29.883,0,1,1-29.883-29.884A29.884,29.884,0,0,1,417.036,157.71Z" transform="translate(-288.745 -112.515)" fill="#baedb2"/>
      <g id="Group_1778" data-name="Group 1778" transform="translate(86.52 24.376)">
        <path id="Path_2190" data-name="Path 2190" d="M389.2,137.639a1.754,1.754,0,0,1,.019.574q-.726,1.9-1.5,3.781a2.833,2.833,0,0,1-.451.574,7.445,7.445,0,0,1-.977-.089c-.825-.183-1.646-.393-2.465-.6a7.993,7.993,0,0,0-3.7.129,5.281,5.281,0,0,0-3.4,2.854A1.448,1.448,0,0,0,377,146.6a9.406,9.406,0,0,0,1.611,1.488c1.124.755,2.307,1.426,3.483,2.1.784.447,1.607.825,2.4,1.259.447.241.871.524,1.3.8,3.972,2.557,5.084,6.341,4.4,10.752a7.447,7.447,0,0,1-4.469,5.99c-1.339.594-2.69,1.162-4.209,1.815a4.947,4.947,0,0,0-.173.754c-.037.335.013.678,0,1.016-.044,1.041-.511,1.509-1.582,1.578a8.687,8.687,0,0,1-1.185,0c-1.289-.092-2.579-.2-3.81-.306-.836-.879-.289-1.935-.632-2.951l-1.139-.482a24.715,24.715,0,0,1-5.381-3.19,2.3,2.3,0,0,1-1-1.166,2.98,2.98,0,0,1,.761-1.8c.366-.571.736-1.141,1.141-1.684s.638-1.214,1.3-1.492a1.452,1.452,0,0,1,1.237.49,20.858,20.858,0,0,0,4.543,2.61,6.336,6.336,0,0,0,6.007-.414,4.662,4.662,0,0,0,1.066-.829,3.064,3.064,0,0,0,.482-4.024,6.15,6.15,0,0,0-2.721-2.469c-.719-.33-1.455-.623-2.193-.9a23.761,23.761,0,0,1-6.451-3.681c-.089-.069-.175-.143-.26-.216A7.537,7.537,0,0,1,370.1,141.55a10.72,10.72,0,0,1,2.623-2.858l.881-.657c.019-1.5.037-3.018.056-4.573.308-.206.567-.518.854-.549,1.573-.168,3.151-.272,4.728-.382a1.671,1.671,0,0,1,.524.173c.6,1.018-.085,2.22.4,3.361.763.158,1.526-.208,2.3-.125s1.578.129,2.359.247a15.972,15.972,0,0,1,2.153.445A4.4,4.4,0,0,1,389.2,137.639Zm-9.488,34.88a1.5,1.5,0,0,0,.185-.368c.037-.279.046-.563.058-.844.019-.4.008-.8.054-1.187a.907.907,0,0,1,.842-.917c1.7-.133,3.1-1.025,4.577-1.7a5.549,5.549,0,0,0,2.752-2.874,8.792,8.792,0,0,0,.754-3.783,8.064,8.064,0,0,0-3.828-7.308c-1-.636-2.062-1.17-3.089-1.762-1.37-.788-2.775-1.528-4.086-2.407a10.559,10.559,0,0,1-2.109-1.945,2.812,2.812,0,0,1-.378-3.2,6.5,6.5,0,0,1,4.105-3.565,9.817,9.817,0,0,1,5.034-.114c.64.164,1.3.251,2.026.387.335-.867.638-1.644.913-2.351-.162-.177-.224-.295-.316-.333a8.56,8.56,0,0,0-.96-.332,14.941,14.941,0,0,0-6.225-.278c-1.309.2-1.588-.066-1.507-1.428.027-.451.068-.9.062-1.353a2.776,2.776,0,0,0-.139-.611,6.8,6.8,0,0,0-3.261.173c-.424,1.5.112,3.126-.4,4.651-.254.17-.482.335-.723.478a8.582,8.582,0,0,0-2.989,3.182,5.948,5.948,0,0,0,1.278,7.674,20.168,20.168,0,0,0,3.49,2.384c1.644.863,3.4,1.524,5.1,2.28a7.79,7.79,0,0,1,3.477,3.122,4.589,4.589,0,0,1,.686,2.076,4.48,4.48,0,0,1-1.646,3.914,7.767,7.767,0,0,1-7.933,1.509,19.041,19.041,0,0,1-4.5-2.342,7.889,7.889,0,0,0-.885-.447,10.548,10.548,0,0,0-1.9,2.974c.208.158.385.3.569.428a21.178,21.178,0,0,0,5.472,3.024c.478.162,1,.264,1.251.784.358.721-.094,1.59.478,2.411C377.2,172.448,378.466,172.907,379.707,172.519Z" transform="translate(-366.607 -132.53)" fill="#3c3372"/>
        <path id="Path_2191" data-name="Path 2191" d="M378.928,171.75c-1.241.387-2.505-.071-3.712,0-.572-.821-.12-1.69-.478-2.411-.254-.52-.773-.623-1.251-.784a21.18,21.18,0,0,1-5.472-3.024c-.183-.129-.36-.27-.569-.428a10.549,10.549,0,0,1,1.9-2.974,7.894,7.894,0,0,1,.885.447,19.042,19.042,0,0,0,4.5,2.342,7.767,7.767,0,0,0,7.933-1.509,4.48,4.48,0,0,0,1.646-3.914,4.589,4.589,0,0,0-.686-2.076,7.791,7.791,0,0,0-3.477-3.122c-1.7-.756-3.454-1.417-5.1-2.28a20.167,20.167,0,0,1-3.49-2.384,5.948,5.948,0,0,1-1.278-7.674,8.581,8.581,0,0,1,2.989-3.182c.241-.143.468-.308.723-.478.511-1.525-.025-3.155.4-4.651a6.8,6.8,0,0,1,3.261-.173,2.779,2.779,0,0,1,.139.611c.006.449-.035.9-.062,1.353-.081,1.363.2,1.627,1.507,1.428a14.941,14.941,0,0,1,6.225.278,8.554,8.554,0,0,1,.96.331c.092.039.154.156.316.333-.276.707-.578,1.484-.913,2.351-.727-.137-1.386-.224-2.026-.387a9.817,9.817,0,0,0-5.034.114,6.5,6.5,0,0,0-4.105,3.565,2.812,2.812,0,0,0,.378,3.2,10.561,10.561,0,0,0,2.108,1.945c1.311.879,2.716,1.619,4.086,2.407,1.027.592,2.091,1.126,3.089,1.762a8.064,8.064,0,0,1,3.828,7.308,8.791,8.791,0,0,1-.754,3.783,5.549,5.549,0,0,1-2.752,2.874c-1.482.678-2.881,1.571-4.577,1.7a.907.907,0,0,0-.842.917c-.046.391-.035.792-.054,1.187-.012.281-.021.565-.058.844A1.5,1.5,0,0,1,378.928,171.75Z" transform="translate(-365.827 -131.76)" fill="#f5f5f5"/>
      </g>
      <g id="Group_1780" data-name="Group 1780" transform="translate(101.156 158.986)">
        <path id="Path_2193" data-name="Path 2193" d="M375.215,218.194a5.523,5.523,0,1,1,5.525-5.521A5.53,5.53,0,0,1,375.215,218.194Zm0-9.677a4.154,4.154,0,1,0,4.156,4.156A4.16,4.16,0,0,0,375.215,208.517Z" transform="translate(-369.692 -207.148)" fill="#3c3372"/>
      </g>
      <path id="Path_2194" data-name="Path 2194" d="M373.323,231.066c-2.258,0-4.518.043-6.774-.011-3.783-.088-7.555.192-11.334.271-1.242.027-2.482.038-3.724.081-.957.032-1.912.106-2.869.159-.281.018-.563.047-.844.047-4.285.011-8.571.052-12.856.014-3.1-.029-6.2-.133-9.3-.262-1.632-.066-3.263-.226-4.888-.409a16.508,16.508,0,0,1-2.14-.478,4.487,4.487,0,0,1-3.14-2.84,13.9,13.9,0,0,1-.9-4.8c-.106-2.478-.163-4.958-.238-7.439-.068-2.2-.2-4.4-.181-6.6a74.987,74.987,0,0,0-.654-9.616,27.682,27.682,0,0,1-.233-3.374q.011-5.5.124-11a10.23,10.23,0,0,1,1.2-4.715,7.368,7.368,0,0,1,6.293-4.22c3.6-.228,7.209-.452,10.809-.713,2.926-.213,5.844-.514,8.772-.706,2.645-.174,5.3-.263,7.946-.367,4.116-.163,8.231-.333,12.349-.444,2.482-.068,4.967-.018,7.449-.043,4.064-.043,8.127-.113,12.191-.154,1.523-.016,3.05-.039,4.57.045a12.774,12.774,0,0,1,3,.473,6.581,6.581,0,0,1,4.233,3.867,17.822,17.822,0,0,1,1.412,6.747c.034,1.244.066,2.484.061,3.726-.022,4.518.357,9.019.541,13.526.1,2.367.1,4.74.1,7.111q0,4.064-.077,8.123c-.034,1.634-.159,3.265-.235,4.9-.032.676-.02,1.353-.063,2.027q-.07,1.094-.2,2.184a5.249,5.249,0,0,1-3.446,4.252,11.21,11.21,0,0,1-4.932.995c-4.005-.1-8.008-.161-12.013-.238Zm18.959-37.223c-.848-.023-1.46-.056-2.073-.052q-25.143.1-50.287.2c-5.08.02-10.161.007-15.241.011-2.878,0-5.758,0-8.636.009-.432,0-.862.084-1.357.136a12.179,12.179,0,0,0,.016,3.111c.134,1.457.348,2.91.5,4.367a41,41,0,0,1,.369,4.381c-.023,5.421.142,10.834.412,16.246a27.047,27.047,0,0,0,.308,3.021c.5,3.046,1.67,3.853,4.268,4.172,2.238.274,4.491.464,6.741.584s4.514.147,6.77.143q7.365-.016,14.728-.109c2.65-.036,5.3-.174,7.949-.258,7.279-.235,14.56-.084,21.841-.011,1.3.013,2.593.068,3.89.115.957.036,1.914.118,2.871.131a10.394,10.394,0,0,0,4.582-1.05,3.719,3.719,0,0,0,2.272-2.57,21.263,21.263,0,0,0,.3-2.683c.054-.67.038-1.348.073-2.02.081-1.464.229-2.926.254-4.39.048-2.991.072-5.982.038-8.971-.038-3.328-.129-6.654-.244-9.98C392.58,196.923,392.409,195.47,392.282,193.843Zm-.321-9.969c-.8,0-1.529-.02-2.254,0-3.046.091-6.091.2-9.135.3-4.005.122-8.01.228-12.014.339q-6.26.172-12.522.342c-5.132.131-10.266.244-15.4.382-3.215.084-6.428.208-9.643.3-4.964.134-9.928.253-14.891.383-.387.011-.772.081-1.133.118a16.059,16.059,0,0,0-.108,6.44c.414.023.857.07,1.3.068,9.2-.027,18.4-.073,27.6-.088q18.966-.03,37.934-.021,4.489,0,8.974-.039c.493,0,1.021.134,1.455-.235A44.222,44.222,0,0,0,391.961,183.874Zm-.052-1.616a11.38,11.38,0,0,0-1.572-4.783,4.918,4.918,0,0,0-3.575-2.321,23.593,23.593,0,0,0-3.519-.319c-1.523-.047-3.048-.009-4.571.027-2.763.065-5.526.206-8.29.22-5.867.032-11.734-.064-17.6.272-3.659.21-7.327.263-10.988.435-2.084.1-4.163.285-6.243.444q-6.072.462-12.141.937c-1.012.079-2.021.167-3.034.237a4.969,4.969,0,0,0-2.887,1.283,7.4,7.4,0,0,0-2.539,5,2.866,2.866,0,0,0,.131.72c.952,0,1.846.029,2.736,0,3.272-.09,6.543-.2,9.815-.3q6-.175,12.013-.337,7.024-.188,14.046-.358c2.933-.073,5.869-.122,8.8-.2,5.132-.147,10.264-.319,15.4-.47,4.286-.125,8.575-.231,12.861-.353C391.081,182.389,391.406,182.32,391.909,182.258Z" transform="translate(-313.243 -75.461)" fill="#f6f5ff"/>
      <path id="Path_2195" data-name="Path 2195" d="M391.685,184.843c.127,1.627.3,3.08.348,4.539.115,3.326.206,6.652.244,9.98.034,2.989.011,5.98-.038,8.971-.025,1.464-.174,2.926-.254,4.39-.036.672-.02,1.349-.073,2.02a21.258,21.258,0,0,1-.3,2.683,3.719,3.719,0,0,1-2.272,2.57,10.394,10.394,0,0,1-4.582,1.05c-.957-.013-1.914-.1-2.871-.131-1.3-.047-2.595-.1-3.89-.115-7.281-.073-14.562-.224-21.841.011-2.65.084-5.3.222-7.949.258q-7.362.1-14.728.109c-2.256,0-4.516-.021-6.77-.143s-4.5-.31-6.741-.584c-2.6-.319-3.77-1.125-4.268-4.172a27.047,27.047,0,0,1-.308-3.021c-.271-5.412-.435-10.825-.412-16.246a41,41,0,0,0-.369-4.381c-.151-1.457-.364-2.91-.5-4.367a12.181,12.181,0,0,1-.016-3.111c.495-.052.925-.134,1.357-.136,2.878-.013,5.758-.007,8.636-.009,5.08,0,10.161.009,15.241-.011q25.143-.094,50.287-.2C390.225,184.788,390.838,184.82,391.685,184.843Zm-6.541,23.934c-.711-.047-1.265-.115-1.819-.115q-10.064-.005-20.126.011a7.45,7.45,0,0,0-1.34.115c-.355.068-.595.308-.579.849a2.455,2.455,0,0,0,.711.462,4.847,4.847,0,0,0,1.177.056q4.228,0,8.456-.014c3.89-.011,7.781-.018,11.669-.043a2.433,2.433,0,0,0,1.849-.373Zm-.063,5.573c-1.518,0-3.037-.032-4.555.009-2.086.057-4.17.185-6.256.258-3.835.134-7.668.251-11.5.378a2.251,2.251,0,0,0-.831.091,3.218,3.218,0,0,0-.681.579c.229.824.8.86,1.38.835,1.86-.073,3.718-.165,5.577-.242,2.31-.1,4.62-.21,6.931-.285,1.973-.065,3.95-.065,5.923-.143,1.348-.052,2.693-.19,3.978-.287C385.445,215.192,385.574,214.868,385.082,214.35Zm-.3-11.221a2.894,2.894,0,0,0-1.891-.281c-3.6.057-7.209.14-10.813.188-2.93.041-5.86.043-8.79.072a14.257,14.257,0,0,0-1.514.088.7.7,0,0,0-.595.71.768.768,0,0,0,.67.656,3.592,3.592,0,0,0,.5.014q10.308-.121,20.618-.249a5.418,5.418,0,0,0,1.011-.034,5.807,5.807,0,0,0,.952-.384C384.867,203.58,384.816,203.322,384.781,203.128ZM373.928,198.4c-.219-.736-.749-.722-1.26-.715q-5.078.07-10.155.156a1.539,1.539,0,0,0-1.314.5l.231.851c.468.039.857.1,1.244.1,2.539-.014,5.078-.029,7.616-.068.9-.014,1.8-.1,2.7-.158A.874.874,0,0,0,373.928,198.4Z" transform="translate(-312.646 -66.282)" fill="#634bbf"/>
      <path id="Path_2196" data-name="Path 2196" d="M391.368,179.26a44.227,44.227,0,0,1,.165,8.284c-.434.369-.962.231-1.455.235q-4.486.038-8.974.039-18.966.013-37.934.021c-9.2.014-18.4.061-27.6.088-.441,0-.883-.045-1.3-.068a16.06,16.06,0,0,1,.108-6.44c.36-.038.745-.108,1.133-.118,4.964-.131,9.928-.249,14.891-.383,3.215-.088,6.428-.211,9.643-.3,5.134-.138,10.268-.251,15.4-.382q6.263-.161,12.522-.342c4-.111,8.008-.217,12.014-.339,3.045-.091,6.089-.2,9.135-.3C389.84,179.241,390.569,179.26,391.368,179.26Z" transform="translate(-312.65 -71.004)" fill="#f5f5f5"/>
      <path id="Path_2197" data-name="Path 2197" d="M391.155,181.645c-.5.063-.828.131-1.156.142-4.286.122-8.575.228-12.861.353-5.132.151-10.264.323-15.4.47-2.934.082-5.869.131-8.8.2q-7.024.175-14.046.358-6.008.159-12.013.337c-3.272.095-6.543.206-9.815.3-.891.025-1.785,0-2.736,0a2.867,2.867,0,0,1-.131-.72,7.4,7.4,0,0,1,2.539-5,4.969,4.969,0,0,1,2.887-1.283c1.013-.07,2.021-.158,3.034-.237q6.069-.468,12.141-.937c2.08-.16,4.159-.348,6.243-.444,3.661-.172,7.329-.226,10.988-.435,5.863-.337,11.73-.24,17.6-.272,2.763-.014,5.527-.156,8.29-.22,1.523-.036,3.048-.073,4.571-.027a23.593,23.593,0,0,1,3.519.319,4.918,4.918,0,0,1,3.575,2.321A11.38,11.38,0,0,1,391.155,181.645Z" transform="translate(-312.489 -75.132)" fill="#634bbf"/>
      <path id="Path_2198" data-name="Path 2198" d="M364.247,198.227v.948a2.433,2.433,0,0,1-1.849.373c-3.889.025-7.779.032-11.669.043q-4.228.011-8.456.014a4.848,4.848,0,0,1-1.177-.056,2.454,2.454,0,0,1-.711-.462c-.016-.541.224-.781.579-.849a7.45,7.45,0,0,1,1.34-.115q10.064-.016,20.126-.011C362.982,198.113,363.536,198.181,364.247,198.227Z" transform="translate(-291.749 -55.628)" fill="#f5f5f5"/>
      <path id="Path_2199" data-name="Path 2199" d="M364.2,201.291c.493.518.364.842-.038,1.193-1.285.1-2.631.235-3.978.287-1.973.079-3.95.079-5.923.143-2.312.075-4.621.186-6.931.285-1.858.077-3.717.168-5.577.242-.579.025-1.15-.011-1.38-.835a3.218,3.218,0,0,1,.681-.579,2.251,2.251,0,0,1,.831-.091c3.835-.127,7.668-.244,11.5-.378,2.086-.073,4.17-.2,6.256-.258C361.158,201.259,362.677,201.291,364.2,201.291Z" transform="translate(-291.76 -53.033)" fill="#f5f5f5"/>
      <path id="Path_2200" data-name="Path 2200" d="M363.929,195.161c.036.194.086.452.15.779a5.8,5.8,0,0,1-.951.383,5.417,5.417,0,0,1-1.011.034q-10.311.126-20.618.249a3.592,3.592,0,0,1-.5-.014.768.768,0,0,1-.67-.656.7.7,0,0,1,.595-.71,14.257,14.257,0,0,1,1.514-.088c2.93-.029,5.86-.03,8.79-.072,3.6-.048,7.209-.131,10.813-.188A2.894,2.894,0,0,1,363.929,195.161Z" transform="translate(-291.794 -58.292)" fill="#f5f5f5"/>
      <path id="Path_2201" data-name="Path 2201" d="M353.066,192.7a.874.874,0,0,1-.935.668c-.9.059-1.8.143-2.7.158-2.538.039-5.077.054-7.616.068-.387,0-.776-.061-1.244-.1l-.231-.851a1.539,1.539,0,0,1,1.314-.5q5.077-.083,10.155-.156C352.317,191.982,352.848,191.967,353.066,192.7Z" transform="translate(-291.784 -60.633)" fill="#f5f5f5"/>
      <g id="Group_1781" data-name="Group 1781" transform="translate(88.741 92.23)">
        <path id="Path_2202" data-name="Path 2202" d="M368.221,204.658h-5.457v-1.367h5.457a7.384,7.384,0,0,0,7.376-7.376V170.367h1.369v25.548A8.753,8.753,0,0,1,368.221,204.658Z" transform="translate(-362.764 -170.367)" fill="#3c3372"/>
      </g>
      <g id="Group_1782" data-name="Group 1782" transform="translate(99.59 87.355)">
        <path id="Path_2203" data-name="Path 2203" d="M371.486,173.109a2.67,2.67,0,1,1,2.67-2.67A2.672,2.672,0,0,1,371.486,173.109Zm0-3.971a1.3,1.3,0,1,0,1.3,1.3A1.3,1.3,0,0,0,371.486,169.138Z" transform="translate(-368.818 -167.769)" fill="#3c3372"/>
      </g>
      <g id="Group_1783" data-name="Group 1783" transform="translate(84.089 123.462)">
        <path id="Path_2204" data-name="Path 2204" d="M362.836,192.97A2.669,2.669,0,1,1,365.5,190.3,2.671,2.671,0,0,1,362.836,192.97Zm0-3.969a1.3,1.3,0,1,0,1.3,1.3A1.3,1.3,0,0,0,362.836,189Z" transform="translate(-360.168 -187.632)" fill="#3c3372"/>
      </g>
      <g id="Group_1784" data-name="Group 1784" transform="translate(90.411 180.358)">
        <path id="Path_2205" data-name="Path 2205" d="M449.79,227.546q-.468,2.656-.982,5.311a6.969,6.969,0,0,1-.4,1.475,2.3,2.3,0,0,1-2.306,1.638c-2.442-.016-4.867,0-7.293.043q-11,.156-22.011.328l.09,14.658c.194,2.471.373,4.91.566,7.381.281,3.484.595,6.965.892,10.447.134,1.459.267,2.932.358,4.39.043.729.013,1.459.013,2.351-3.6.358-7.084.715-10.549,1.043a2.734,2.734,0,0,1-.67-.075,3.574,3.574,0,0,1-.238-.654c-1.369-9.376-2.738-18.751-4.122-28.218L401.6,236.608c-1.711.045-3.408.059-5.12,0-5.073-.149-10.134.387-15.209.387a2.326,2.326,0,0,0-.342.016c-1.116.1-1.518.55-1.428,1.636.1,1.116.238,2.247.342,3.364.446,4.315.878,8.646,1.324,12.963.387,3.765.788,7.514,1.176,11.281.283,2.632.536,5.267.788,7.9a15.665,15.665,0,0,1,.014,1.665,1.5,1.5,0,0,1-1.265.4c-1.353.061-2.708.091-4.062.151q-5.156.266-10.313.536c-.208,0-.432-.045-.713-.061a4.021,4.021,0,0,1-.269-.788c-.224-2.023-.491-4.034-.64-6.057-.283-3.824-.536-7.648-.729-11.488-.179-3.72-.224-7.44-.417-11.162-.149-3.154-.446-6.293-.788-9.433a33.6,33.6,0,0,1,.163-9.451,7.789,7.789,0,0,1,1.027-2.665,11.519,11.519,0,0,1,8.2-5.433,22.539,22.539,0,0,1,3.871-.355c3.154-.059,6.31-.179,9.48-.269,2.023-.059,4.062-.075,6.087-.134q7.61-.177,15.225-.387c4.061-.118,8.125-.222,12.187-.357,1.742-.059,3.482-.179,5.179-.269a72.955,72.955,0,0,0,11.861,5.12,66.763,66.763,0,0,0,12.56,2.919A6.074,6.074,0,0,1,449.79,227.546Z" transform="translate(-363.696 -218.6)" fill="#634bbf"/>
      </g>
      <path id="Path_2206" data-name="Path 2206" d="M433.737,173.05l-.961-.075c-.156-.518-.308-.991-.443-1.473-.24-.867-.437-1.749-.713-2.607a3.894,3.894,0,0,0-2.383-2.679,7.76,7.76,0,0,1-.959-.529,4.067,4.067,0,0,1,.2-.937,1.154,1.154,0,0,1,.529-.4,11.1,11.1,0,0,0,3.31-3.1,3.854,3.854,0,0,0,1.014-2.792,1.539,1.539,0,0,1,.1-.462.918.918,0,0,1,1.267-.251,8.5,8.5,0,0,1,.9,1.939c.342.708.672,1.428,1.07,2.1a4.518,4.518,0,0,0,2.849,2.235.917.917,0,0,1,.8.858,3.375,3.375,0,0,1-.477.582c-.353.28-.749.5-1.125.753a10.526,10.526,0,0,0-4.406,5.611A10.69,10.69,0,0,1,433.737,173.05Zm.688-12.16c-.525.674-.889,1.165-1.28,1.631s-.828.916-1.227,1.385c-.382.448-.935.749-1.236,1.281.4.373.754.654,1.05.986a5.3,5.3,0,0,1,.668.966c.215.391.371.814.561,1.219a3.76,3.76,0,0,0,.566,1.206c.681-.876,1.253-1.706,1.925-2.446s1.443-1.376,2.258-2.141A12.379,12.379,0,0,1,434.426,160.889Z" transform="translate(-222.136 -88.702)" fill="#3c3372"/>
      <path id="Path_2207" data-name="Path 2207" d="M426.594,163.818h-.724c-.117-.177-.31-.344-.349-.545a9.9,9.9,0,0,0-3.853-6.344,1.419,1.419,0,0,1-.383-.717c-.041-.133.073-.314.138-.545,1.177-.4,2.462-.606,3.383-1.663a6.572,6.572,0,0,0,1.382-3.464l1.185-.129c.233.525.43.986.64,1.439.287.611.547,1.238.883,1.821a5.58,5.58,0,0,0,2.584,2.351c.4.179.778.4,1.265.656a3.388,3.388,0,0,1-.473.921,5.271,5.271,0,0,1-.995.633,9.273,9.273,0,0,0-4.231,4.878,3.786,3.786,0,0,1-.219.455A1.934,1.934,0,0,1,426.594,163.818Zm.439-10.252c-.624.717-1.059,1.306-1.584,1.8a19.305,19.305,0,0,1-1.607,1.251c.9,1.387,1.756,2.693,2.643,4.057.48-.55.927-1.116,1.435-1.622s1.1-.955,1.641-1.443a6.881,6.881,0,0,0,.556-.65A10.776,10.776,0,0,1,427.033,153.566Z" transform="translate(-227.683 -94.585)" fill="#3c3372"/>
      <path id="Path_2208" data-name="Path 2208" d="M411.134,162.98a.973.973,0,0,1-.409,1.26c-.382.24-.781.448-1.183.656a4.155,4.155,0,0,0-2.48,3.012.966.966,0,0,1-.74.842.821.821,0,0,1-.808-.711c-.1-.437-.183-.883-.294-1.319a6.166,6.166,0,0,0-2.387-3.962.8.8,0,0,1,.391-1.136c.573-.358,1.156-.7,1.726-1.066A4.351,4.351,0,0,0,407,157.579c.081-.441.088-.925.781-1.1.165.183.471.383.561.654a15.954,15.954,0,0,1,.412,1.8A6.393,6.393,0,0,0,411.134,162.98Zm-3.772-2.776c-.688,1.163-1.835,1.455-2.457,2.339l1.575,2.706,2.684-1.916C408.6,162.347,408.068,161.431,407.362,160.2Z" transform="translate(-242.372 -89.621)" fill="#3c3372"/>
      <path id="Path_2209" data-name="Path 2209" d="M433.363,159.431a12.378,12.378,0,0,0,3.285,4.086c-.815.765-1.588,1.407-2.258,2.141s-1.244,1.57-1.924,2.446a3.76,3.76,0,0,1-.566-1.206c-.19-.4-.346-.828-.561-1.219a5.3,5.3,0,0,0-.668-.966c-.3-.332-.647-.613-1.05-.986.3-.532.855-.833,1.237-1.281.4-.469.831-.912,1.227-1.385S432.838,160.1,433.363,159.431Z" transform="translate(-221.074 -87.221)" fill="#ffd176"/>
      <path id="Path_2210" data-name="Path 2210" d="M425.9,152.172a10.776,10.776,0,0,0,3.084,3.4,6.879,6.879,0,0,1-.556.65c-.541.487-1.125.93-1.641,1.443s-.955,1.072-1.435,1.622c-.887-1.364-1.74-2.67-2.643-4.057a19.3,19.3,0,0,0,1.607-1.251C424.839,153.478,425.275,152.889,425.9,152.172Z" transform="translate(-226.549 -93.164)" fill="#ffd176"/>
      <path id="Path_2211" data-name="Path 2211" d="M406.4,158.559c.706,1.228,1.235,2.143,1.8,3.129l-2.684,1.916-1.575-2.706C404.565,160.014,405.712,159.722,406.4,158.559Z" transform="translate(-241.41 -87.948)" fill="#ffd176"/>
    </g>
    <g id="Group_1791" data-name="Group 1791" transform="translate(395.726 177.815)">
      <g id="Group_1787" data-name="Group 1787" transform="translate(1.9 1.564)">
        <path id="Path_2212" data-name="Path 2212" d="M468.015,218.083a1.645,1.645,0,0,1-.439.176c-6.89.557-13.773,1.208-20.588,1.736v.072l-2.7.31q.011,7.233.022,14.458a8.111,8.111,0,0,1-.1.883,7.469,7.469,0,0,1-1.025.154c-1.468-.013-2.928-.056-4.4-.084-.848-.022-1.7-.063-2.541-.041a5.516,5.516,0,0,0-3.537,1.426,10.3,10.3,0,0,0-2.889,4.116,54.532,54.532,0,0,0-2.039,6.982q-.753,3.209-1.5,6.424a6.138,6.138,0,0,1-.274.747,3,3,0,0,1-1.724.036,69.415,69.415,0,0,1-24.066-8.655,7.77,7.77,0,0,1-.713-.452,1.624,1.624,0,0,1-.247-.367c3.516-13.519,7.68-26.925,11.585-40.4.091-.041.176-.077.26-.106.03-.048.072-.091.108-.142a4.68,4.68,0,0,1,.211-1.376v-.056c-2.02-.192-4.039-.375-6.051-.586-3.636-.4-7.284-.643-10.858-1.129-.507-1.88-.262-8.064.444-12.051,1.047-5.946,1.744-8.352,2.917-10.019,1.038.091,2.1.176,3.163.269,2.138.177,4.27.346,6.41.529,2.356.2,4.716.4,7.08.6l4.548.4c3.656.324,7.3.719,10.954.952a76.71,76.71,0,0,1,9.066,1.124,12.392,12.392,0,0,1,3.8,1.362,35.083,35.083,0,0,1,5.826,4.068,40.289,40.289,0,0,1,7.433,8.069c1.794,2.675,3.631,5.315,5.408,8a93.5,93.5,0,0,1,6.129,11.119C467.907,217.065,468.246,217.5,468.015,218.083Z" transform="translate(-333.474 -112.87)" fill="#fff"/>
        <path id="Path_2213" data-name="Path 2213" d="M405.043,197.891c-.346,1.321-.7,2.555-.987,3.806-.3,1.321-.55,2.654-.79,3.989-.233,1.263-.283,2.555-.634,3.86a7.177,7.177,0,0,1-1.039-.2c-2.068-.735-4.15-1.462-6.206-2.238a24.02,24.02,0,0,1-5.569-3.184,10.118,10.118,0,0,1-3.96-7.207c-.5-3.749-.848-7.512-1.4-11.254-.622-4.258-.7-8.55-1.039-12.82-.106-1.292-.224-2.584-.38-3.876-.312-2.543-.65-5.084-.96-7.625l6.48-1.568q3.285,14.1,6.582,28.175.793,3.379,1.588,6.75c.4,1.722.819,2.1,2.6,2.385,1.611.254,3.234.495,4.844.749A7.594,7.594,0,0,1,405.043,197.891Z" transform="translate(-343.109 -129.157)" fill="#ffd176"/>
        <path id="Path_2214" data-name="Path 2214" d="M393.077,162.006c-.9,2.964-1.887,5.91-2.917,9.107.043.247.1.749.213,1.236.048.219.106.444.154.663l-6.48,1.568c-.02-.142-.036-.29-.057-.432-.118-.953-.211-1.9-.324-2.959-.3-.366-.651-.8-1-1.242a17.547,17.547,0,0,1-2.132-3.446,11.743,11.743,0,0,1-.869-6.12,3.532,3.532,0,0,1,1.676-2.8,8,8,0,0,1,4.763-1.5,3.735,3.735,0,0,0,1.011-.007c.231-.057.43-.3.692-.5a6.286,6.286,0,0,0-.367-.968c-.946-1.609-1.926-3.192-2.867-4.8-.79-1.362-1.581-2.731-2.287-4.143a9.6,9.6,0,0,1-.593-2.1,1.338,1.338,0,0,1,.091-.656c.021-.093.149-.149.332-.312a2.628,2.628,0,0,1,.785.367,22.541,22.541,0,0,1,1.756,1.828,77.835,77.835,0,0,1,6.3,8.6,16.13,16.13,0,0,1,2.111,4.6A7.4,7.4,0,0,1,393.077,162.006Z" transform="translate(-345.077 -142.599)" fill="#ead6c1"/>
        <path id="Path_2215" data-name="Path 2215" d="M438.523,177.417a19.25,19.25,0,0,0-1.665-1.907c-.3-.324-.658-.6-.961-.88,0-.849-.054-1.638.013-2.421a3.558,3.558,0,0,0-1.226-3.021c-.744-.69-1.532-1.337-2.339-1.948-.943-.717-1.941-1.36-2.894-2.061a21.382,21.382,0,0,1-6.861-8.232c-.407-.869-.762-1.762-1.177-2.623a19.428,19.428,0,0,0-1.054-1.925,2,2,0,0,0-1.353-1.073,4.047,4.047,0,0,0-.559.729c-.17.351-.2.771-.378,1.115a3.541,3.541,0,0,1-.62.692c-1.321-.19-1.351-1.914-2.749-2.021a2.392,2.392,0,0,0-.477.765,14.119,14.119,0,0,0-.045,1.512c-.025.373-.109.742-.185,1.228-.375-.111-.685-.113-.866-.269-.466-.4-.867-.883-1.31-1.317a1.651,1.651,0,0,0-1.466-.667,1.33,1.33,0,0,0-.652,1.455,12.648,12.648,0,0,0,.552,2.288,41.379,41.379,0,0,0,3.81,7.727,37.064,37.064,0,0,0,8.331,9.72,4.755,4.755,0,0,1,.507.52,1.351,1.351,0,0,1-.538,1.281c-.238.245-.455.507-.672.771-.814.349-1.548,1.2-1.987,2.932a.511.511,0,0,0-.106.478c-.977,4.577.848,8.338,2.883,11.619.009.014.02.021.029.038a15.758,15.758,0,0,0,2.373,3.093c.324-.615.625-1.206.944-1.788a.988.988,0,0,1,1.339-.552c.108.156.271.376.418.606.134.21.066.586.575.577,1.928-2.744,4.6-4.858,6.955-7.272.591-.606,1.19-1.206,1.733-1.853a11.729,11.729,0,0,0,2.113-3.446A3.968,3.968,0,0,0,438.523,177.417Z" transform="translate(-321.251 -135.687)" fill="#634bbf"/>
        <g id="Group_1786" data-name="Group 1786" transform="translate(32.867 124.097)">
          <path id="Path_2216" data-name="Path 2216" d="M475.234,217.28c-.29,2.231-.629,4.467-1.018,6.684-.973,5.557-1.982,11.1-2.971,16.662a11.422,11.422,0,0,1-1.708,4.729,10.77,10.77,0,0,1-3.17,3.016c-.912.557-1.885,1.016-2.826,1.532a3.774,3.774,0,0,1-1.806.346c-4,.072-8.012.149-12.022.2-3.437.057-6.883.091-10.329.129a3.916,3.916,0,0,1-.658.047c-2.073,0-4.82.038-7.376.079-3.883.065-7.327.142-7.327.142q-3.951.043-7.894.091c-5.923.086-11.847.2-17.769.288q-8.631.14-17.262.269a2.624,2.624,0,0,1-.3-.07,4.492,4.492,0,0,1-2.012-2.851,4.646,4.646,0,0,1,1.491-4.442,2.13,2.13,0,0,1,1.552-.564c2.027-.07,4.053-.2,6.086-.219,5.528-.07,11.062-.077,16.592-.156,6.148-.077,12.3-.2,18.445-.315,1.532-.03,3.057-.066,4.589-.1l5.987-.056,4.037-.038c.812-4.261,1.575-8.533,2.459-12.784.692-3.312,1.539-6.586,2.38-9.863.323-1.256.812-2.464,1.247-3.684a7.742,7.742,0,0,1,2.38-3.24,3.946,3.946,0,0,1,2.788-1.03c1.181.034,2.365.077,3.552.068q7.784-.04,15.581-.113c.9-.005,1.8-.077,2.7-.154a9.015,9.015,0,0,1,2.7.163,2.245,2.245,0,0,1,1.977,2.188A16.28,16.28,0,0,1,475.234,217.28Z" transform="translate(-378.673 -211.85)" fill="#ffd176"/>
          <path id="Path_2217" data-name="Path 2217" d="M403.98,233.676s3.444-.077,7.327-.142a5.866,5.866,0,0,1-1,.091C408.195,233.64,406.091,233.654,403.98,233.676Z" transform="translate(-358.631 -194.677)" fill="#ffd176"/>
          <path id="Path_2218" data-name="Path 2218" d="M411.932,229.107l-5.987.056c1.236-.036,2.471-.065,3.708-.093.613-.013,1.242-.041,1.857-.013A2.627,2.627,0,0,1,411.932,229.107Z" transform="translate(-357.075 -198.233)" fill="#ffd176"/>
        </g>
        <path id="Path_2219" data-name="Path 2219" d="M421.461,181.534a6.254,6.254,0,0,0,1.081,2.629c.8,1.226,1.613,2.448,2.478,3.631.806,1.1,1.186,1.2,2.641.912a4.261,4.261,0,0,1,.19.783c.131,2.523.245,5.048.371,7.684a3.034,3.034,0,0,1-.837.1,80.24,80.24,0,0,0-9.067-1.011,3.066,3.066,0,0,1-.554-.159,4.794,4.794,0,0,1-.2-.937c-.061-2.761-.1-5.525-.147-8.288,0-.271-.038-.543-.059-.837a6.108,6.108,0,0,0-2.319-.543,8.627,8.627,0,0,1-5.872-3.919,10.174,10.174,0,0,1-1.548-4.948,13.85,13.85,0,0,1,.871-5.645,17.568,17.568,0,0,1,7.037-8.843c.462-.3.966-.545,1.518-.853.937,1.07,1.8,2.106,2.718,3.084s1.914,1.9,2.93,2.9c-.745,1.1-1.491,2.154-2.172,3.243a19.981,19.981,0,0,0-1.9,3.322c.489.892.647,1.047,1.253.871a19.081,19.081,0,0,0,3.812-1.321,4.1,4.1,0,0,1,2.265-.557,1.415,1.415,0,0,1,1.4,1.224,5.527,5.527,0,0,1-3.2,5.939,2.676,2.676,0,0,1-1.649.186,1.951,1.951,0,0,1-1.59-1.342,3.88,3.88,0,0,0-.3-.785.638.638,0,0,0-.867-.308.781.781,0,0,0-.357.858,3.437,3.437,0,0,0,1.667,2.615A3.567,3.567,0,0,1,421.461,181.534Z" transform="translate(-322.903 -127.796)" fill="#ead6c1"/>
        <path id="Path_2220" data-name="Path 2220" d="M423.181,218.132c-.084-.468-.174-.788-.2-1.115a60.161,60.161,0,0,1,.163-7.826c2.1-.5,4.317-.378,6.385-.823a.977.977,0,0,0,.333-1.12c-.2-.588-.391-1.177-.575-1.769s-.355-1.174-.557-1.844a2.471,2.471,0,0,1,.629-.256c3.756-.328,7.51-.642,11.3-.96a3.881,3.881,0,0,1,.392.57c.823,1.851,1.656,3.7,2.446,5.568a11.388,11.388,0,0,1,.857,5.29,3.381,3.381,0,0,1-1.5,2.69,6.417,6.417,0,0,1-3.462,1.208c-2.251.129-4.5.253-6.756.321-2.645.081-5.3.1-7.942.14C424.25,218.213,423.806,218.164,423.181,218.132Z" transform="translate(-310.757 -95.222)" fill="#ffd176"/>
        <path id="Path_2221" data-name="Path 2221" d="M377.375,263.576c.43.215.737.355,1.03.518a10.41,10.41,0,0,0,5.186,1.3c1.127,0,2.254-.007,3.382,0,.441.005.883.045,1.292.066a32.392,32.392,0,0,1,.858,7.65,4.484,4.484,0,0,1-.9.21c-4.055.129-8.111.235-12.166.355-4.844.145-9.686.306-14.528.446a9.416,9.416,0,0,1-1.2-.124,3.318,3.318,0,0,1,.921-1.865,20.137,20.137,0,0,1,2.444-2.315,22.536,22.536,0,0,1,3.143-1.977A61.985,61.985,0,0,1,377.375,263.576Z" transform="translate(-360.332 -46.787)" fill="#4f9ba3"/>
        <path id="Path_2222" data-name="Path 2222" d="M381.417,273.444a19.662,19.662,0,0,1-8.046-.584c-.147-.47-.333-.934-.437-1.417q-1.984-9.077-3.942-18.158a10.966,10.966,0,0,1-.124-1.143,1.889,1.889,0,0,1,.534-.206c3.258-.041,6.5-.419,9.82-.4a33.4,33.4,0,0,1,.711,5.392c.253,1.839.348,3.7.532,5.55.179,1.794.437,3.579.566,5.376A33.44,33.44,0,0,1,381.417,273.444Z" transform="translate(-353.572 -56.324)" fill="#ead6c1"/>
        <path id="Path_2223" data-name="Path 2223" d="M397.258,263.648c2.55,1.851,5.519,2.02,8.553,2.012.595,1.125.317,2.348.5,3.494a12.973,12.973,0,0,1,.165,3.441,2.308,2.308,0,0,1-.208.181.357.357,0,0,1-.15.063c-2.136.1-4.272.233-6.408.3q-8.362.247-16.723.443c-.1,0-.2-.088-.308-.14-.233-.405.022-.753.183-1.086a11.871,11.871,0,0,1,2.71-3.428,19.952,19.952,0,0,1,10.327-5.034Z" transform="translate(-342.705 -46.73)" fill="#4f9ba3"/>
        <path id="Path_2224" data-name="Path 2224" d="M389.522,252.024a18.435,18.435,0,0,1,1.835-.278c2.344-.1,4.672-.615,7.032-.391a2.055,2.055,0,0,1,.212.52q.873,10.679,1.722,21.364a2.165,2.165,0,0,1-.154.575,12.328,12.328,0,0,1-5.989-.638c-.724-2.281-1.018-4.629-1.566-6.914-.564-2.351-1.029-4.727-1.539-7.093C390.576,256.866,390.074,254.563,389.522,252.024Z" transform="translate(-337.214 -56.51)" fill="#ead6c1"/>
      </g>
      <g id="Group_1788" data-name="Group 1788" transform="translate(25.316 25.658)">
        <path id="Path_2225" data-name="Path 2225" d="M385.549,220.964c-.71-.973-1.141-.8-2.2-.943a1.4,1.4,0,0,0-.72.1c-1.14-.057-2.281-.113-3.423-.154a19.953,19.953,0,0,0-4.134-.068,1.825,1.825,0,0,0-1.132,3.1c1.394,1.495,4.761.887,6.569.928,1.693.038,4.166.3,5.041-1.579A1.383,1.383,0,0,0,385.549,220.964Z" transform="translate(-373.399 -105.554)" fill="#f5f5f5"/>
        <path id="Path_2226" data-name="Path 2226" d="M385.113,219.671a1.279,1.279,0,0,0-.647.151,1.855,1.855,0,0,0,.206,3.672,2.081,2.081,0,0,0,2.272-1.53A1.866,1.866,0,0,0,385.113,219.671Z" transform="translate(-365.831 -105.653)" fill="#f5f5f5"/>
        <path id="Path_2227" data-name="Path 2227" d="M387.222,166.239c-.163-1.034-.29-3.217-1.419-3.81a.712.712,0,0,0-1.34.267c-.1,1.054-.315,9.872,2.432,7.981C388.09,169.855,387.4,167.379,387.222,166.239Z" transform="translate(-364.677 -151.293)" fill="#f5f5f5"/>
        <path id="Path_2228" data-name="Path 2228" d="M387.575,169.519a.7.7,0,0,0-.659-.5l-.484-.027a.569.569,0,0,0-.554.288.531.531,0,0,0-.082.579l.328.823a.7.7,0,0,0,1.253.163A1.542,1.542,0,0,0,387.575,169.519Z" transform="translate(-363.619 -145.792)" fill="#f5f5f5"/>
        <path id="Path_2229" data-name="Path 2229" d="M395.269,183.207a2.394,2.394,0,0,0-2.261-1.821.644.644,0,0,0-.317.064c-.9-.258-1.864-.237-1.844.8.014.724.771,1.011,1.339,1.244a8.674,8.674,0,0,0,2.425.577A.692.692,0,0,0,395.269,183.207Z" transform="translate(-359.581 -136.032)" fill="#f5f5f5"/>
        <path id="Path_2230" data-name="Path 2230" d="M421.922,161.927a7.183,7.183,0,0,0-1.064-2.14,16.456,16.456,0,0,0-1.6-2.365,3.11,3.11,0,0,0-1.279-.849c-.7-.518-1.948-.91-2.351.1-.559,1.4.8,3.2,1.539,4.227.726,1.016,1.837,2.546,3.127,2.849A1.435,1.435,0,0,0,421.922,161.927Z" transform="translate(-340.059 -156.044)" fill="#f5f5f5"/>
        <path id="Path_2231" data-name="Path 2231" d="M419.788,161.253a.653.653,0,0,0-.09.342.714.714,0,0,0-.013.31,1.8,1.8,0,0,0,1.061,1.561,1.164,1.164,0,0,0,1.543-.8C422.6,161.36,420.629,159.817,419.788,161.253Z" transform="translate(-336.749 -152.376)" fill="#f5f5f5"/>
      </g>
      <g id="Group_1789" data-name="Group 1789" transform="translate(16.304 40.4)">
        <path id="Path_2232" data-name="Path 2232" d="M437.246,211.253l13.359-.64s9.053,15.354-1.984,17.536c0,0,2.111.468.8,6.772s-2.541,16.99-2.541,16.99.814,12.745-9.639,15.239l-25.83.649s2.6-.758,4.464-5.967,5.582-25.8,6.7-28.647c.841-2.149,13.01-2.046,18.965-1.865a3.08,3.08,0,0,0,3.179-3.134h0l-.814-1.145-16.122,1.109,3.473-36.883.247,26.385,6.822-1.283Z" transform="translate(-334.278 -142.891)" opacity="0.1"/>
        <path id="Path_2233" data-name="Path 2233" d="M400.113,242.468s10.046.869,12.65-7.193c0,0-9.227-3.618-13.852-10.8,0,0,10.752,5.243,19.309,6.534,0,0,1.05-19.626,7.689-19.735s12.427,0,12.427,0-9.824-1.421-12.178,6.639S420.7,242.5,420.7,242.5Z" transform="translate(-344.182 -127.123)" opacity="0.1"/>
        <path id="Path_2234" data-name="Path 2234" d="M417.506,194.923V184.762s16.5-14.332,13.271-20.491c0,0,7.939,5.679-.935,11.915s-9.32,10.157-9.472,12.775l-.152,2.615.885,4.08Z" transform="translate(-329.455 -164.271)" opacity="0.1"/>
        <path id="Path_2235" data-name="Path 2235" d="M377.226,228.871l-2.923.233a2.435,2.435,0,0,0-2.231,2.654l3.485,37.015-7.188.29.892,3.6,12.589,6.139-6.043-48.294Z" transform="translate(-368.37 -113.109)" opacity="0.1"/>
        <path id="Path_2236" data-name="Path 2236" d="M386.052,237.557l10.242.869,2.007,26.017h3.507l-2.026-30.467-14.526,1.079Z" transform="translate(-354.997 -109.066)" opacity="0.1"/>
      </g>
      <g id="Group_1790" data-name="Group 1790">
        <path id="Path_2237" data-name="Path 2237" d="M393.72,223.659c-.158-.215-.254-.351-.416-.573.2-.228.36-.584.615-.674a20.281,20.281,0,0,1,2.127-.534q2.959-.683,5.924-1.355a2.852,2.852,0,0,1,.824-.115.561.561,0,0,1,.556.536.851.851,0,0,1-.2.6,1.732,1.732,0,0,1-.749.351c-2.464.577-4.931,1.149-7.406,1.7A7.631,7.631,0,0,1,393.72,223.659Z" transform="translate(-332.318 -79.414)" fill="#3c3372"/>
        <path id="Path_2238" data-name="Path 2238" d="M496.873,246.84a92.254,92.254,0,0,0-6.419-11.725c-1.584-2.4-3.263-4.747-4.829-7.163a40,40,0,0,0-7.347-8.381c-2.984-2.6-6.059-5.086-9.922-6.313a1.856,1.856,0,0,1-.371-.26c-.127-2.792-.446-5.645-.4-8.562a3.441,3.441,0,0,0,1.448-1.616,6.65,6.65,0,0,1,1.03-1.547c.935-1.052,1.908-2.077,2.9-3.077,1.351-1.362,2.749-2.679,4.105-4.037a15.53,15.53,0,0,0,2.761-3.835,6.008,6.008,0,0,0-.9-7.066c-.579-.611-1.165-1.219-1.769-1.849.039-.342.09-.676.118-1.007a5.323,5.323,0,0,0-1.754-4.733c-.846-.745-1.722-1.457-2.618-2.143-.851-.651-1.753-1.236-2.62-1.865a20.25,20.25,0,0,1-6.758-8.313c-.344-.774-.633-1.575-1.021-2.324a18.748,18.748,0,0,0-1.407-2.3,3.929,3.929,0,0,0-1.131-1,1.685,1.685,0,0,0-2.179.219c-.326.29-.6.643-.916.991-.326-.222-.593-.426-.88-.6a1.984,1.984,0,0,0-3.016.744c-.17.267-.306.55-.473.849a10.144,10.144,0,0,0-1-.5,2.25,2.25,0,0,0-3.251,1.873,5.6,5.6,0,0,0,.244,2.675,23.606,23.606,0,0,0,1,2.693,51.165,51.165,0,0,0,4.38,8.014c.183.263.484.5.306.978l-1.07.686a19.259,19.259,0,0,0-7.2,8.345,15.771,15.771,0,0,0-1.33,8.593,10.276,10.276,0,0,0,7.985,9.023c.439.1.876.215,1.532.376.115,2.937.333,5.781.238,8.725-.652,0-1.206.041-1.753-.007-3.428-.3-6.856-.611-10.284-.925-1.181-.108-2.356-.263-3.537-.339-4.168-.263-8.343-.426-12.485-1.005a2.887,2.887,0,0,0-1.731.143c-.263.348-.565.745-.918,1.217-2.394-.337-4.781-.654-7.207-1.17q-4.381-18.733-8.718-37.27c.846-2.647,1.654-5.231,2.5-7.8a11.128,11.128,0,0,0,.573-2.975,10.933,10.933,0,0,0-1.428-6.016c-.8-1.426-1.649-2.828-2.566-4.182a64.068,64.068,0,0,0-6.05-7.731,8.143,8.143,0,0,0-1.389-1.229,1.835,1.835,0,0,0-2.962,1.43,6.394,6.394,0,0,0,.606,3.292c.693,1.353,1.419,2.693,2.184,4.01.71,1.219,1.491,2.4,2.233,3.6.143.229.337.466.081.814-.337.073-.717.176-1.1.231a9.284,9.284,0,0,0-4.387,2.077,4.153,4.153,0,0,0-1.536,2.557,12.287,12.287,0,0,0,.4,6.512,15.088,15.088,0,0,0,2.835,4.971,3.3,3.3,0,0,1,.83,2.152c.023.618.125,1.233.2,1.849.375,3.023.822,6.041,1.113,9.073.31,3.258.471,6.528.7,9.793.065.9.131,1.8.238,2.7.375,3.138.767,6.272,1.158,9.408.21,1.681.385,3.365.652,5.037a11.189,11.189,0,0,0,4.378,7.566,26,26,0,0,0,6.964,3.785c1.758.611,3.5,1.258,5.252,1.9.466.172.919.378,1.351.557,0,1.448-.009,2.8,0,4.141a18.924,18.924,0,0,0,.118,3.987c1.047.62,1.048.6,5.315.941,1.855.147,3.7.4,5.555.564,1.787.16,3.573.31,5.344.581-.138,1.57-.925,4.484-2.733,10.361q-1.57,5.1-3.071,10.213c-1.012,3.467-1.991,6.942-2.962,10.42-.953,3.421-1.878,6.845-2.812,10.254.258.432.48.8.711,1.181a1.7,1.7,0,0,1-.376.124c-3.442.122-6.885.254-10.327.351-5.419.152-10.838.272-16.257.421q-6.688.18-13.375.394c-2.088.065-4.175.174-6.263.2a15.1,15.1,0,0,0-7.308,1.844,11.05,11.05,0,0,0-6.069,8.84,41.491,41.491,0,0,0,.05,9.3c.437,3.423.6,6.858.808,10.291.172,2.874.258,5.754.333,8.63.116,4.518.448,9.019.833,13.517.158,1.856.4,3.7.613,5.553a2.115,2.115,0,0,0,.76,1.629c.762,0,1.656-.007,2.552.005a7.417,7.417,0,0,1,2.835.109c.1.308.208.568.269.84q1.865,8.516,3.708,17.036a1.75,1.75,0,0,1,.045,1.3,6.648,6.648,0,0,0-1,.172,80.756,80.756,0,0,0-9.44,3.717,33.782,33.782,0,0,0-4.371,2.573,17.429,17.429,0,0,0-2.661,2.339,8.76,8.76,0,0,0-2.048,3.663.9.9,0,0,0,.486,1.125c.869,0,1.882.023,2.892-.007,2.935-.088,5.867-.213,8.8-.294,5.247-.143,10.5-.263,15.744-.392,1.018-.027,2.034-.03,3.05-.084s1.407-.5,1.31-1.532c-.115-1.236-.258-2.469-.387-3.7q-.454-4.379-.9-8.757c-.267-2.64-.513-5.283-.781-7.921-.4-3.93-.824-7.86-1.222-11.789-.385-3.819-.738-7.639-1.125-11.458-.4-3.932-.824-7.858-1.229-11.789q-.65-6.314-1.279-12.632a4.849,4.849,0,0,1-.005-2.188,1.527,1.527,0,0,1,.461-.2q4.228-.159,8.458-.285c.088,0,.177.109.389.245a7.014,7.014,0,0,0-1.333,3.546,6.42,6.42,0,0,0,.864,3.57,6.147,6.147,0,0,0,3.009,2.374c.018.4.05.729.045,1.063-.124,9.2-.265,18.407-.371,27.611-.075,6.381-.1,12.763-.154,19.144-.007.96-.065,1.919-.079,2.88q-.07,5.419-.116,10.84a5.038,5.038,0,0,0,.208,1H397a8.064,8.064,0,0,0,.2-1.154c.066-2.088.122-4.177.149-6.265.045-3.276.052-6.552.091-9.825q.153-12.62.319-25.24c.052-4.181.077-8.358.14-12.537.034-2.26.12-4.516.19-6.774.009-.326-.07-.69.262-.926a24.5,24.5,0,0,1,6.768.047c.061.285.149.606.2.93q.433,2.847.851,5.693.922,6.282,1.837,12.564c.48,3.3.943,6.593,1.437,9.885a7.715,7.715,0,0,0,.448,1.314c.726.029,1.378.057,2.066.084.143.48.3.9.392,1.337q1.86,8.516,3.7,17.038a7.031,7.031,0,0,1,.065,1.041c-.844.211-1.593.448-2.362.584a22.48,22.48,0,0,0-5.9,2.021,19.313,19.313,0,0,0-6.88,5.641,10.746,10.746,0,0,0-1.631,3.329,1.046,1.046,0,0,0,.643,1.378,3.231,3.231,0,0,0,1.658.213q4.653-.142,9.308-.3c4.514-.143,9.028-.281,13.542-.437.663-.022,1.324-.122,2.07-.194,0-.452.027-.842,0-1.228-.125-1.633-.267-3.263-.4-4.894-.31-3.656-.631-7.31-.93-10.965-.262-3.208-.491-6.417-.754-9.621-.292-3.545-.616-7.086-.907-10.63-.272-3.319-.5-6.639-.776-9.958-.382-4.613-.79-9.222-1.179-13.834-.036-.439,0-.882,0-1.3a14.978,14.978,0,0,1,5.611-.041,5.849,5.849,0,0,1,.113,1.8c-.023,4.743-.061,9.487-.081,14.23q-.091,21.265-.17,42.526c0,.848-.056,1.7-.036,2.541.016.693.384,1.1.842,1.038.4-.057.62-.364.642-1.05.038-1.186.05-2.373.054-3.557q.067-27.958.131-55.91a7.871,7.871,0,0,1,.009-.848c.038-.323.125-.638.206-1.036,1.523-.027,2.987-.061,4.451-.075,1.977-.022,3.953-.011,5.93-.047,2.313-.045,4.627-.131,6.94-.183a7.015,7.015,0,0,1,1.029.133c.1.482.228.916.274,1.357q.4,3.787.776,7.58c.262,2.638.5,5.279.774,7.917.412,3.985.851,7.969,1.262,11.954.382,3.7.729,7.413,1.111,11.117.4,3.93.831,7.856,1.244,11.784.353,3.369.692,6.736,1.05,10.1a6.867,6.867,0,0,0,.274,1h.815a2.111,2.111,0,0,0,.235-1.672c-.229-2.36-.477-4.716-.715-7.075-.265-2.641-.522-5.281-.79-7.919-.3-2.977-.62-5.951-.926-8.926-.26-2.527-.507-5.055-.767-7.582q-.46-4.462-.93-8.924c-.26-2.527-.505-5.055-.769-7.582-.4-3.815-.81-7.63-1.2-11.449a3.011,3.011,0,0,1,.1-1.718,12.213,12.213,0,0,1,2.505-.154c3.724-.077,7.449-.154,11.173-.212q6.862-.1,13.723-.172a9.3,9.3,0,0,1,1.181.133c.158.607.314,1.145.435,1.69q1.787,8.013,3.57,16.026,4.86,21.722,9.732,43.441a8.214,8.214,0,0,0,.387,1.471c.113.267.432.448.607.62.525-.122.683-.423.656-.781a10.607,10.607,0,0,0-.222-1.5c-.835-3.745-1.686-7.487-2.525-11.23q-5.22-23.289-10.438-46.577c-.244-1.093-.455-2.193-.683-3.3,1.086-.654,2.125-1.219,3.1-1.878a12.306,12.306,0,0,0,5.648-8.464c.9-5.455,1.977-10.879,2.912-16.33.5-2.946.878-5.915,1.292-8.876a6.132,6.132,0,0,0-.629-3.941,1.939,1.939,0,0,1-.108-.521,13.059,13.059,0,0,0,1.219-.6,24.545,24.545,0,0,0,2.113-1.389,3.584,3.584,0,0,0,1.371-2.62,13.091,13.091,0,0,0-.961-6.8q-.93-2.089-1.821-4.193c-.151-.348-.244-.719-.383-1.145a5.243,5.243,0,0,1,.713-.192c.9-.1,1.794-.183,2.693-.267.514-.048,1.023-.1,1.315-.711A4.921,4.921,0,0,0,496.873,246.84Zm-42.889-74.674a41.382,41.382,0,0,1-3.81-7.727,12.65,12.65,0,0,1-.552-2.288,1.33,1.33,0,0,1,.652-1.455,1.652,1.652,0,0,1,1.466.667c.443.434.844.914,1.31,1.317.181.156.491.158.866.269.075-.486.159-.855.185-1.228a14.12,14.12,0,0,1,.045-1.512,2.392,2.392,0,0,1,.477-.765c1.4.108,1.428,1.831,2.749,2.021a3.543,3.543,0,0,0,.62-.692c.179-.344.208-.763.378-1.115a4.048,4.048,0,0,1,.559-.729A2,2,0,0,1,460.281,160a19.434,19.434,0,0,1,1.054,1.925c.416.862.771,1.754,1.177,2.623a21.382,21.382,0,0,0,6.861,8.232c.953.7,1.952,1.344,2.894,2.061.806.611,1.595,1.258,2.339,1.948a3.558,3.558,0,0,1,1.226,3.021c-.066.783-.013,1.572-.013,2.421.3.276.658.556.961.88a19.25,19.25,0,0,1,1.665,1.907,3.968,3.968,0,0,1,.435,3.869,11.729,11.729,0,0,1-2.113,3.446c-.543.647-1.141,1.247-1.733,1.853-2.358,2.414-5.027,4.528-6.955,7.272-.509.009-.441-.367-.575-.577-.147-.229-.31-.45-.418-.606a.988.988,0,0,0-1.339.552c-.319.582-.62,1.174-.944,1.788a13.259,13.259,0,0,1-3.339-5.3c.366-.116.738-.228,1.106-.355a6.977,6.977,0,0,0,4.613-6.478,4.772,4.772,0,0,0-.321-1.819,2.564,2.564,0,0,0-1.946-1.706,5.134,5.134,0,0,0-2.978.332c-.582.213-1.145.478-1.726.7a2.278,2.278,0,0,1-.552.082.464.464,0,0,1-.036-.681,19.964,19.964,0,0,1,2.659-3.7,1.351,1.351,0,0,0,.538-1.281,4.758,4.758,0,0,0-.507-.52A37.064,37.064,0,0,1,453.984,172.166Zm-.679,28.826a8.628,8.628,0,0,1-5.872-3.919,10.174,10.174,0,0,1-1.548-4.948,13.851,13.851,0,0,1,.871-5.645,17.568,17.568,0,0,1,7.037-8.843c.462-.3.966-.545,1.518-.853.937,1.07,1.8,2.106,2.718,3.084s1.914,1.9,2.93,2.9c-.745,1.1-1.491,2.154-2.172,3.243a19.981,19.981,0,0,0-1.9,3.322c.489.892.647,1.047,1.253.871a19.081,19.081,0,0,0,3.812-1.321,4.1,4.1,0,0,1,2.265-.557,1.415,1.415,0,0,1,1.4,1.224,5.527,5.527,0,0,1-3.2,5.939,2.676,2.676,0,0,1-1.649.186,1.951,1.951,0,0,1-1.59-1.342,3.881,3.881,0,0,0-.3-.785.638.638,0,0,0-.867-.308.781.781,0,0,0-.357.858,3.437,3.437,0,0,0,1.667,2.615,3.567,3.567,0,0,1,.412.315,6.254,6.254,0,0,0,1.081,2.629c.8,1.226,1.613,2.448,2.478,3.631.806,1.1,1.186,1.2,2.641.912a4.261,4.261,0,0,1,.19.783c.131,2.523.245,5.048.371,7.684a3.034,3.034,0,0,1-.837.1,80.24,80.24,0,0,0-9.067-1.011,3.066,3.066,0,0,1-.554-.159,4.8,4.8,0,0,1-.2-.937c-.061-2.761-.1-5.525-.147-8.288,0-.271-.038-.543-.059-.837A6.108,6.108,0,0,0,453.3,200.992Zm-56.677-33.8a11.766,11.766,0,0,1-.873-6.125,3.524,3.524,0,0,1,1.679-2.794,8.019,8.019,0,0,1,4.761-1.5,3.724,3.724,0,0,0,1.009-.005c.237-.057.43-.3.693-.5a6.179,6.179,0,0,0-.367-.973c-.944-1.606-1.928-3.186-2.864-4.8-.8-1.366-1.588-2.733-2.288-4.145a9.542,9.542,0,0,1-.6-2.1,1.418,1.418,0,0,1,.091-.658c.025-.09.152-.151.332-.314a2.608,2.608,0,0,1,.785.373,20.4,20.4,0,0,1,1.756,1.83,77.25,77.25,0,0,1,6.3,8.6,16.326,16.326,0,0,1,2.113,4.595,7.431,7.431,0,0,1,.011,4.014c-.9,2.966-1.887,5.908-2.917,9.11.038.219.088.647.179,1.086l-6.406,1.451c-.09-.788-.17-1.588-.263-2.462-.3-.369-.654-.8-1-1.244A17.378,17.378,0,0,1,396.628,167.2Zm24.063,56.487a7.555,7.555,0,0,1-1.034-.21c-2.073-.735-4.148-1.459-6.206-2.238a23.936,23.936,0,0,1-5.569-3.179,10.114,10.114,0,0,1-3.964-7.209c-.5-3.747-.846-7.516-1.394-11.255-.624-4.254-.7-8.546-1.043-12.818-.106-1.292-.22-2.586-.376-3.874-.289-2.383-.6-4.763-.9-7.146l6.551-1.486q3.22,13.808,6.451,27.613.79,3.376,1.589,6.752c.405,1.72.815,2.1,2.595,2.38,1.615.256,3.233.5,4.847.754a8.137,8.137,0,0,1,.873.258c-.346,1.321-.7,2.557-.986,3.808-.3,1.321-.554,2.652-.794,3.984C421.1,221.079,421.044,222.374,420.691,223.682ZM389.964,369.618a4.486,4.486,0,0,1-.9.21c-4.055.129-8.111.235-12.166.355-4.844.145-9.686.306-14.528.446a9.421,9.421,0,0,1-1.2-.124,3.307,3.307,0,0,1,.921-1.865,20.137,20.137,0,0,1,2.444-2.315,22.541,22.541,0,0,1,3.143-1.977,61.99,61.99,0,0,1,10.535-4.269c.43.215.737.355,1.03.518a10.411,10.411,0,0,0,5.186,1.3c1.127,0,2.254-.007,3.382,0,.441.005.883.045,1.292.066A32.39,32.39,0,0,1,389.964,369.618Zm-2.43-25.724c.253,1.839.348,3.7.532,5.55.179,1.794.437,3.579.566,5.376a33.437,33.437,0,0,1,.385,5.591,19.661,19.661,0,0,1-8.046-.584c-.147-.469-.333-.934-.437-1.417q-1.984-9.077-3.942-18.158a10.966,10.966,0,0,1-.124-1.143A1.889,1.889,0,0,1,377,338.9c3.258-.041,6.5-.419,9.82-.4A33.4,33.4,0,0,1,387.534,343.894Zm-2.763-46.022q-.169,0-.339.016c-1.118.1-1.518.557-1.417,1.64.1,1.124.224,2.244.339,3.367q.656,6.481,1.315,12.961c.389,3.76.794,7.516,1.185,11.273q.408,3.957.787,7.915c.052.554.007,1.115.007,1.654a1.476,1.476,0,0,1-1.256.412c-1.355.063-2.708.084-4.062.151-3.437.168-6.874.353-10.311.527a5.938,5.938,0,0,1-.72-.061,3.762,3.762,0,0,1-.267-.785c-.228-2.018-.487-4.034-.638-6.057-.283-3.826-.539-7.654-.729-11.483-.185-3.72-.226-7.448-.412-11.166-.159-3.154-.448-6.3-.8-9.442a33.543,33.543,0,0,1,.17-9.451,7.8,7.8,0,0,1,1.025-2.665,11.519,11.519,0,0,1,8.2-5.424,22.366,22.366,0,0,1,3.867-.357c3.159-.059,6.317-.183,9.474-.269,2.03-.054,4.062-.079,6.095-.129q7.612-.191,15.23-.394c4.061-.109,8.121-.215,12.182-.349,1.745-.057,3.489-.186,5.181-.28a73.6,73.6,0,0,0,11.854,5.132,67.347,67.347,0,0,0,12.565,2.912,5.917,5.917,0,0,1-.005.9c-.315,1.778-.636,3.552-.977,5.326a8.091,8.091,0,0,1-.4,1.466,2.31,2.31,0,0,1-2.315,1.629q-3.642-.008-7.283.047-15.66.22-31.322.464c-3.668.054-7.34.251-11,.142C394.906,297.344,389.845,297.878,384.77,297.872Zm40.011,67.843a12.974,12.974,0,0,1,.165,3.441,2.309,2.309,0,0,1-.208.181.357.357,0,0,1-.15.063c-2.136.1-4.272.233-6.408.3-5.575.165-11.15.3-16.723.443-.1,0-.2-.088-.308-.14-.233-.4.022-.753.183-1.086a11.871,11.871,0,0,1,2.71-3.428,19.952,19.952,0,0,1,10.327-5.034l1.356-.244c2.55,1.851,5.519,2.02,8.553,2.012C424.873,363.346,424.6,364.568,424.782,365.715Zm-2.224-27.059q.873,10.679,1.722,21.364a2.166,2.166,0,0,1-.154.575,12.328,12.328,0,0,1-5.989-.638c-.724-2.281-1.018-4.629-1.566-6.913-.564-2.351-1.029-4.727-1.539-7.093-.5-2.3-1-4.607-1.552-7.146a18.427,18.427,0,0,1,1.835-.278c2.344-.1,4.672-.615,7.032-.391A2.055,2.055,0,0,1,422.558,338.656Zm-.7-8.94c.125,1.46.262,2.923.357,4.385.047.724.009,1.453.009,2.353-3.605.36-7.077.71-10.551,1.047a3.19,3.19,0,0,1-.676-.084,3.651,3.651,0,0,1-.229-.658c-1.376-9.374-2.747-18.748-4.132-28.211a5.314,5.314,0,0,1,1-.224c2.315-.041,4.63-.048,6.946-.086,1.24-.02,2.48-.082,3.72-.115.5-.014,1.005,0,1.4,0a2.138,2.138,0,0,1,.518,1.693c.253,3.15.478,6.3.737,9.447C421.245,322.747,421.556,326.23,421.854,329.716ZM449.9,304.6a2.374,2.374,0,0,1-1.382,1.174,9.081,9.081,0,0,1-2.8.564q-7.11.046-14.221.145c-5.924.084-11.849.194-17.771.289q-8.631.14-17.264.267a1.644,1.644,0,0,1-.29-.072,4.45,4.45,0,0,1-2.011-2.853,4.647,4.647,0,0,1,1.486-4.441,2.135,2.135,0,0,1,1.552-.565c2.03-.07,4.057-.192,6.087-.217,5.53-.07,11.062-.077,16.592-.152,6.15-.081,12.3-.2,18.448-.319,2.763-.054,5.526-.129,8.29-.192.62-.013,1.242-.043,1.862-.013a2.049,2.049,0,0,1,2.129,1.794A6.713,6.713,0,0,1,449.9,304.6Zm40.7-31.783q-.433,3.357-1.02,6.691c-.971,5.557-1.987,11.1-2.971,16.658a11.392,11.392,0,0,1-1.711,4.729,10.647,10.647,0,0,1-3.165,3.018c-.91.559-1.885,1.014-2.826,1.529a3.751,3.751,0,0,1-1.808.346c-4.007.07-8.012.151-12.019.21q-6.1.089-12.194.134a3.108,3.108,0,0,1-1.8-.2c-.011-.131-.061-.262-.02-.344a21.9,21.9,0,0,0,1.62-6.023c.9-4.706,1.733-9.431,2.708-14.124.688-3.31,1.538-6.589,2.38-9.865.321-1.251.81-2.464,1.247-3.683a7.732,7.732,0,0,1,2.38-3.238,3.984,3.984,0,0,1,2.786-1.038c1.185.038,2.369.081,3.552.073q7.79-.038,15.579-.109c.9-.007,1.8-.082,2.7-.159a9,9,0,0,1,2.693.163,2.247,2.247,0,0,1,1.978,2.19A16.4,16.4,0,0,1,490.6,272.813Zm3.313-16.187a11.389,11.389,0,0,1,.857,5.29,3.381,3.381,0,0,1-1.5,2.69,6.417,6.417,0,0,1-3.462,1.208c-2.251.129-4.5.253-6.756.321-2.645.081-5.3.1-7.942.14-.448.007-.892-.041-1.518-.073-.084-.468-.174-.788-.2-1.115a60.161,60.161,0,0,1,.163-7.826c2.1-.5,4.317-.378,6.385-.823a.977.977,0,0,0,.333-1.12c-.2-.588-.391-1.177-.575-1.769s-.355-1.174-.557-1.844a2.472,2.472,0,0,1,.629-.256c3.756-.328,7.51-.641,11.3-.96a3.74,3.74,0,0,1,.392.57C492.291,252.91,493.125,254.759,493.915,256.626Zm-20.534-3.1c0-.439.047-.876.075-1.353a10.824,10.824,0,0,1,4.036-.425,12.316,12.316,0,0,1,1.052,3.208,5.466,5.466,0,0,1-2.437.5,6.245,6.245,0,0,1-2.674-.005C473.413,254.741,473.379,254.135,473.38,253.528Zm22.332-5.023a1.486,1.486,0,0,1-.439.172c-7.2.586-14.384,1.267-21.493,1.808-.563-.493-.4-1.034-.4-1.516q-.038-8.131-.048-16.264c0-1.072.007-2.145-.007-3.218,0-.389-.054-.776-.091-1.256l-.9-.247c-.134.231-.276.367-.289.516-.054.559-.088,1.124-.088,1.686q.021,17.534.048,35.067a8.119,8.119,0,0,1-.1.885,6.86,6.86,0,0,1-1.023.154c-1.466-.014-2.933-.057-4.4-.086-.846-.018-1.693-.065-2.537-.038a5.5,5.5,0,0,0-3.537,1.426,10.225,10.225,0,0,0-2.887,4.113,54.312,54.312,0,0,0-2.043,6.98c-.505,2.141-.995,4.286-1.5,6.428a6.352,6.352,0,0,1-.271.745,2.916,2.916,0,0,1-1.726.034,69.321,69.321,0,0,1-24.065-8.654,8.153,8.153,0,0,1-.715-.453c-.084-.061-.127-.179-.247-.36,3.518-13.521,7.682-26.928,11.589-40.406a3.7,3.7,0,0,1,2.186-.088c.788.066,1.572.181,2.358.226a7.691,7.691,0,0,0,1.136-.095c.1-.219.235-.373.22-.513a2.767,2.767,0,0,0-.247-.659c-3.715-.48-7.43-.744-11.128-1.141-3.632-.391-7.283-.643-10.858-1.129-.505-1.878-.258-8.059.444-12.048,1.048-5.946,1.745-8.349,2.916-10.017,1.041.088,2.1.177,3.166.265q3.2.266,6.4.53,3.54.3,7.082.6,2.277.2,4.552.4c3.654.326,7.3.724,10.958.959a75.761,75.761,0,0,1,9.062,1.122,12.45,12.45,0,0,1,3.806,1.36,34.855,34.855,0,0,1,5.819,4.068,40.488,40.488,0,0,1,7.44,8.071c1.787,2.675,3.627,5.317,5.4,8a94.087,94.087,0,0,1,6.129,11.112C495.6,247.485,495.943,247.924,495.712,248.5Z" transform="translate(-359.272 -141.726)" fill="#3c3372"/>
      </g>
    </g>
    <g id="Group_1794" data-name="Group 1794" transform="translate(484.239 127.266)">
      <g id="Group_1792" data-name="Group 1792">
        <path id="Path_2239" data-name="Path 2239" d="M447.317,134.46a20.612,20.612,0,0,1-16.506,19.981,18.276,18.276,0,0,1-21.672-13.967,20.434,20.434,0,0,1,8.944-21.441,18.846,18.846,0,0,1,13.732-3.014c7.308,1.231,12.18,5.528,14.615,12.542A18.919,18.919,0,0,1,447.317,134.46Z" transform="translate(-408.666 -115.75)" fill="#fff"/>
        <path id="Path_2240" data-name="Path 2240" d="M424.012,126.4c.661-.52,1.138-.914,1.634-1.279a8.226,8.226,0,0,1,3.5-1.6A4.7,4.7,0,0,1,434.3,125.9a5.5,5.5,0,0,1,.81,3.229,9.32,9.32,0,0,1-.9,3.582,20.4,20.4,0,0,1-9.829,9.412c-2.253,1.048-2.631.937-4.387-.677a21.143,21.143,0,0,1-6.612-10.411A12.266,12.266,0,0,1,413.26,126a5.149,5.149,0,0,1,1.885-3.3,5.282,5.282,0,0,1,7.96,1.717C423.4,125.009,423.657,125.622,424.012,126.4Zm-2.025,14.766a2.638,2.638,0,0,0,1.806-.342,19.571,19.571,0,0,0,9.048-8.573,7.377,7.377,0,0,0,.824-3.252c.082-2.322-1.817-5.134-5.191-3.8a8.915,8.915,0,0,0-3.65,2.656c-.21.254-.416.511-.564.693-.711.156-1.064-.219-1.461-.62-.143-.5-.274-1.047-.459-1.577a7.534,7.534,0,0,0-.6-1.391,3.69,3.69,0,0,0-3.855-1.892A3.5,3.5,0,0,0,414.8,125.8a8.956,8.956,0,0,0-.143,4.349,17.923,17.923,0,0,0,4.061,7.885A15.167,15.167,0,0,0,421.987,141.168Z" transform="translate(-405.185 -111.161)" fill="#3c3372"/>
        <path id="Path_2241" data-name="Path 2241" d="M421.372,140.511a15.168,15.168,0,0,1-3.274-3.134,17.923,17.923,0,0,1-4.061-7.885,8.957,8.957,0,0,1,.143-4.349,3.5,3.5,0,0,1,3.093-2.733,3.69,3.69,0,0,1,3.855,1.892,7.532,7.532,0,0,1,.6,1.391c.185.53.315,1.079.459,1.577.4.4.749.776,1.461.62.149-.183.355-.439.564-.693a8.915,8.915,0,0,1,3.65-2.656c3.374-1.331,5.274,1.48,5.191,3.8a7.377,7.377,0,0,1-.824,3.252,19.572,19.572,0,0,1-9.048,8.573A2.638,2.638,0,0,1,421.372,140.511Z" transform="translate(-404.57 -110.505)" fill="#ffd176"/>
      </g>
      <g id="Group_1793" data-name="Group 1793" transform="translate(12.125 12.366)">
        <path id="Path_2242" data-name="Path 2242" d="M426.086,125.317c-.319-.966-1.2-1.107-2.064-.957a.683.683,0,0,0-.482-.091c-1.1.192-3.059.65-3.027,2.122a1.083,1.083,0,0,0,1.02,1.064c.772.057,1.091-.59,1.726-.853C424.008,126.292,426.665,127.082,426.086,125.317Z" transform="translate(-411.408 -121.379)" fill="#f5f5f5"/>
        <path id="Path_2243" data-name="Path 2243" d="M420.434,126.383a.388.388,0,0,1-.228-.188c-.57-.676-1.534.3-.968.968a1.4,1.4,0,0,0,.145.127l.013.131c.061.593.966,1.032,1.278.344.056-.125.113-.251.168-.376A.7.7,0,0,0,420.434,126.383Z" transform="translate(-412.553 -120.025)" fill="#f5f5f5"/>
        <path id="Path_2244" data-name="Path 2244" d="M418.532,123.97c-.756-.851-1.754-1.794-2.7-1.048a1.049,1.049,0,0,0-.2,1.452c.385.5.952.435,1.484.616.8.272.629,1.029,1.032,1.611a1.162,1.162,0,0,0,1.489.391C420.951,126.212,419.369,124.584,418.532,123.97Z" transform="translate(-415.432 -122.651)" fill="#f5f5f5"/>
      </g>
    </g>
  </g>
</svg>
